<svg width="293" height="220" viewBox="0 0 293 220" fill="none" xmlns="http://www.w3.org/2000/svg">
<path d="M152.126 40.3994H59.3327L59.0836 36.4541C58.9653 34.9451 59.1627 33.4281 59.6632 31.9998C60.1637 30.5716 60.9563 29.2635 61.9903 28.1593C63.0243 27.0551 64.2771 26.1789 65.6685 25.5869C67.0599 24.9948 68.5594 24.6998 70.0711 24.7208H139.512C142.68 24.755 145.719 25.9807 148.026 28.1543C150.333 30.328 151.739 33.2907 151.965 36.4541L152.126 40.3994Z" fill="white"/>
<path d="M152.126 40.7661H59.3326C59.2391 40.7662 59.1492 40.7306 59.0811 40.6666C59.013 40.6025 58.9719 40.5148 58.9663 40.4214L58.7173 36.4761C58.5993 34.9201 58.806 33.3567 59.3241 31.885C59.8422 30.4133 60.6605 29.0657 61.7269 27.9277C62.7933 26.7897 64.0846 25.8863 65.5185 25.2749C66.9525 24.6634 68.4979 24.3573 70.0564 24.3761H139.497C142.747 24.4204 145.862 25.6822 148.228 27.9125C150.594 30.1429 152.04 33.18 152.28 36.4247L152.529 40.3774C152.531 40.4271 152.523 40.4767 152.505 40.5233C152.488 40.5699 152.461 40.6126 152.427 40.6488C152.393 40.685 152.352 40.714 152.306 40.7341C152.261 40.7543 152.212 40.7651 152.162 40.7661H152.126ZM59.6402 40.0327H151.737L151.518 36.4761C151.293 33.4149 149.929 30.5494 147.697 28.4451C145.465 26.3409 142.526 25.1506 139.461 25.1094H70.0198C68.5619 25.0909 67.1162 25.3765 65.7746 25.9479C64.433 26.5193 63.2249 27.3641 62.2272 28.4284C61.2295 29.4928 60.4641 30.7534 59.9796 32.1301C59.4951 33.5068 59.3022 34.9693 59.4132 36.4247L59.6402 40.0327Z" fill="#231F20"/>
<path d="M161.626 194.26H68.7964L59.3032 40.5461H152.133L161.626 194.26Z" fill="white"/>
<path d="M161.626 194.627H68.7963C68.7029 194.627 68.6129 194.591 68.5448 194.527C68.4767 194.463 68.4357 194.376 68.4301 194.282L58.9076 40.5682C58.9042 40.5177 58.9109 40.4671 58.9272 40.4193C58.9436 40.3714 58.9693 40.3273 59.0028 40.2895C59.0383 40.2539 59.0806 40.2257 59.1271 40.2068C59.1737 40.1879 59.2236 40.1786 59.2738 40.1795H152.133C152.226 40.1793 152.316 40.2149 152.384 40.279C152.452 40.3431 152.494 40.4308 152.499 40.5242L162.022 194.238C162.024 194.288 162.016 194.337 161.998 194.384C161.981 194.431 161.954 194.473 161.92 194.51C161.886 194.546 161.845 194.575 161.8 194.595C161.754 194.615 161.705 194.626 161.655 194.627H161.626ZM69.1406 193.893H161.238L151.789 40.9128H59.6914L69.1406 193.893Z" fill="#231F20"/>
<path d="M108.285 34.3273H97.3492C97.252 34.3273 97.1589 34.2887 97.0902 34.2199C97.0215 34.1512 96.9829 34.0579 96.9829 33.9607C96.9829 33.8634 97.0215 33.7702 97.0902 33.7014C97.1589 33.6326 97.252 33.594 97.3492 33.594H108.285C108.383 33.594 108.476 33.6326 108.544 33.7014C108.613 33.7702 108.652 33.8634 108.652 33.9607C108.652 34.0579 108.613 34.1512 108.544 34.2199C108.476 34.2887 108.383 34.3273 108.285 34.3273Z" fill="#231F20"/>
<path d="M113.274 34.3273H110.776C110.679 34.3273 110.586 34.2887 110.517 34.2199C110.448 34.1512 110.41 34.0579 110.41 33.9607C110.412 33.864 110.451 33.7718 110.519 33.7035C110.587 33.6351 110.679 33.5959 110.776 33.594H113.274C113.371 33.594 113.464 33.6326 113.533 33.7014C113.601 33.7702 113.64 33.8634 113.64 33.9607C113.64 34.0579 113.601 34.1512 113.533 34.2199C113.464 34.2887 113.371 34.3273 113.274 34.3273Z" fill="#231F20"/>
<path d="M147.804 107.323H108.088C107.994 107.323 107.904 107.288 107.836 107.224C107.768 107.16 107.727 107.072 107.721 106.979L103.949 55.1173C103.944 55.0678 103.95 55.0179 103.966 54.9709C103.983 54.924 104.009 54.8814 104.044 54.846C104.077 54.8081 104.117 54.7779 104.163 54.7576C104.209 54.7373 104.258 54.7274 104.308 54.7286H143.13C143.221 54.7265 143.309 54.7597 143.376 54.8213C143.443 54.8828 143.484 54.9678 143.489 55.0586L148.133 106.92C148.139 107.024 148.105 107.126 148.038 107.206C147.976 107.272 147.893 107.313 147.804 107.323ZM108.425 106.59H147.401L142.837 55.4619H104.704L108.425 106.59Z" fill="#D1D3D4"/>
<path d="M120.796 162.14C120.707 162.141 120.619 162.108 120.552 162.049C120.484 161.989 120.441 161.907 120.43 161.817C119.624 154.711 118.965 146.417 118.965 146.315C118.959 146.222 118.988 146.13 119.046 146.058C119.105 145.986 119.188 145.939 119.28 145.926C119.893 145.844 120.483 145.636 121.011 145.314C121.54 144.992 121.995 144.564 122.349 144.056C124.715 140.734 123.551 134.266 123.543 134.2C123.535 134.145 123.538 134.089 123.554 134.035C123.57 133.982 123.597 133.932 123.634 133.891C123.672 133.849 123.718 133.817 123.769 133.795C123.82 133.774 123.876 133.764 123.932 133.767L127.667 134.061C127.715 134.062 127.761 134.074 127.804 134.094C127.847 134.115 127.886 134.144 127.917 134.179C127.949 134.215 127.973 134.257 127.988 134.302C128.003 134.347 128.008 134.395 128.004 134.442C128.004 134.508 127.653 140.947 129.616 142.765C129.79 142.934 130.002 143.06 130.233 143.132C130.464 143.205 130.71 143.222 130.949 143.183C131.226 143.152 131.493 143.06 131.73 142.913C131.967 142.766 132.168 142.568 132.319 142.333C133.872 140.133 132.67 134.559 132.656 134.501C132.644 134.447 132.645 134.392 132.657 134.338C132.67 134.285 132.694 134.235 132.729 134.193C132.763 134.15 132.807 134.116 132.856 134.093C132.906 134.07 132.96 134.059 133.015 134.061H136.179C136.227 134.06 136.274 134.068 136.319 134.086C136.363 134.104 136.403 134.13 136.438 134.163C136.472 134.197 136.499 134.237 136.517 134.281C136.536 134.325 136.545 134.372 136.545 134.42C136.666 136.47 136.985 138.503 137.497 140.492C137.583 140.971 137.764 141.427 138.031 141.833C138.298 142.239 138.645 142.586 139.05 142.853C140.072 143.394 141.25 143.565 142.383 143.337C142.43 143.326 142.479 143.324 142.527 143.331C142.575 143.339 142.62 143.356 142.662 143.381C142.744 143.439 142.802 143.525 142.823 143.623C144.105 150.04 145.548 161.539 145.562 161.656C145.568 161.707 145.563 161.759 145.548 161.808C145.533 161.857 145.508 161.903 145.474 161.942C145.44 161.982 145.397 162.013 145.349 162.035C145.301 162.056 145.249 162.067 145.196 162.067L120.782 162.14H120.796ZM119.742 146.586C119.866 148.177 120.43 155.195 121.126 161.407L144.801 161.333C144.529 159.265 143.336 149.864 142.185 144.115C140.978 144.301 139.742 144.076 138.677 143.477C138.189 143.157 137.771 142.742 137.448 142.257C137.124 141.772 136.902 141.227 136.794 140.653C136.318 138.727 135.999 136.765 135.842 134.787H133.476C133.74 136.209 134.414 140.653 132.934 142.743C132.725 143.061 132.45 143.329 132.128 143.529C131.805 143.729 131.443 143.856 131.066 143.902C130.719 143.959 130.363 143.933 130.027 143.827C129.691 143.722 129.385 143.539 129.132 143.293C127.184 141.489 127.228 136.202 127.272 134.757L124.342 134.53C124.576 136.136 125.14 141.401 122.957 144.474C122.2 145.569 121.047 146.326 119.742 146.586Z" fill="#D1D3D4"/>
<path d="M125.741 73.0915C125.741 73.0915 121.712 72.6295 116.636 75.9735C111.56 79.3175 104.418 83.6002 104.418 83.6002C104.418 83.6002 104.923 83.9815 107.187 90.4055L116.526 87.1715C116.526 87.1715 117.581 97.0715 117.991 101.486L101.795 126.42C101.795 126.42 106.864 130.688 111.127 127.571C111.127 127.571 112.168 131.971 115.625 131.384C119.082 130.798 120.232 128.495 120.232 128.495C120.232 128.495 121.382 132.162 124.268 131.729C127.155 131.296 128.663 128.378 128.663 128.378C128.663 128.378 130.129 132.191 133.732 131.612C134.78 131.416 135.754 130.936 136.547 130.223C137.341 129.51 137.923 128.593 138.23 127.571C138.23 127.571 142.149 135.19 150.096 126.764L139.688 101.472L141.761 86.8049L148.353 91.9969C148.353 91.9969 152.851 92.3415 151.81 86.5775C151.81 86.5775 143.328 75.7242 139.409 73.8762C135.49 72.0282 125.741 73.0915 125.741 73.0915Z" fill="white"/>
<path d="M123.793 132.11C121.947 132.11 120.731 130.526 120.13 129.257C119.005 130.61 117.412 131.489 115.669 131.721C112.959 132.169 111.45 129.8 110.901 128.135C106.55 130.819 101.591 126.72 101.539 126.669C101.472 126.612 101.427 126.531 101.415 126.443C101.403 126.355 101.424 126.266 101.474 126.192L117.589 101.383C117.252 97.5114 116.417 89.6501 116.211 87.6554L107.304 90.7354C107.26 90.7517 107.212 90.7588 107.165 90.7565C107.117 90.7542 107.07 90.7425 107.028 90.7221C106.985 90.7016 106.946 90.6728 106.914 90.6373C106.883 90.6018 106.858 90.5604 106.843 90.5154C104.748 84.5901 104.184 83.8641 104.154 83.8348C104.111 83.8005 104.077 83.7553 104.057 83.7038C104.036 83.6523 104.029 83.5963 104.037 83.5414C104.046 83.4835 104.068 83.4285 104.103 83.3812C104.137 83.3339 104.182 83.2958 104.235 83.2701C104.308 83.2261 111.428 78.9654 116.438 75.6581C121.339 72.4241 125.228 72.6661 125.741 72.7248C126.51 72.6441 135.659 71.7348 139.542 73.5608C143.424 75.3868 151.73 85.9174 152.082 86.3648C152.119 86.4113 152.141 86.4672 152.148 86.5261C152.529 88.6088 152.25 90.1928 151.327 91.1974C150.935 91.5969 150.463 91.9087 149.941 92.1122C149.42 92.3157 148.861 92.4063 148.302 92.3781C148.231 92.3728 148.162 92.3474 148.104 92.3048L142.039 87.5014L140.069 101.435L150.397 126.61C150.425 126.676 150.433 126.748 150.422 126.818C150.41 126.888 150.379 126.953 150.331 127.006C147.474 130.02 144.794 131.406 142.347 131.032C141.525 130.886 140.741 130.576 140.041 130.12C139.341 129.663 138.74 129.071 138.274 128.377C137.887 129.309 137.268 130.127 136.478 130.753C135.687 131.379 134.75 131.793 133.755 131.956C130.869 132.433 129.228 130.233 128.627 129.118C128.143 129.867 127.514 130.511 126.779 131.015C126.043 131.518 125.215 131.871 124.342 132.051C124.161 132.085 123.977 132.105 123.793 132.11ZM120.24 128.106C120.313 128.11 120.383 128.136 120.44 128.181C120.498 128.225 120.54 128.286 120.562 128.355C120.606 128.495 121.661 131.751 124.188 131.333C126.855 130.907 128.283 128.209 128.298 128.179C128.332 128.119 128.383 128.07 128.443 128.036C128.504 128.003 128.573 127.986 128.642 127.989C128.712 127.991 128.78 128.014 128.837 128.054C128.894 128.095 128.939 128.151 128.964 128.216C129.023 128.363 130.429 131.743 133.638 131.223C134.618 131.044 135.529 130.596 136.27 129.929C137.011 129.262 137.553 128.403 137.835 127.446C137.857 127.377 137.898 127.315 137.954 127.269C138.011 127.222 138.079 127.194 138.151 127.186C138.224 127.178 138.297 127.192 138.362 127.225C138.426 127.258 138.48 127.309 138.516 127.373C138.516 127.373 139.864 129.925 142.457 130.306C144.603 130.607 147.02 129.382 149.635 126.639L139.38 101.589C139.362 101.527 139.362 101.46 139.38 101.398L141.453 86.7314C141.461 86.6672 141.486 86.6064 141.526 86.5558C141.566 86.5053 141.62 86.467 141.68 86.4454C141.739 86.4213 141.804 86.4134 141.867 86.4224C141.93 86.4314 141.989 86.4571 142.039 86.4968L148.515 91.6301C148.945 91.6361 149.373 91.5555 149.772 91.393C150.17 91.2305 150.533 90.9894 150.837 90.6841C151.569 89.8481 151.804 88.4841 151.496 86.7241C150.763 85.7781 142.911 75.9148 139.278 74.1988C135.498 72.4241 125.932 73.4214 125.836 73.4654H125.756C125.712 73.4654 121.778 73.0621 116.893 76.2888C112.498 79.2221 106.44 82.8448 104.982 83.7174C105.936 85.7377 106.765 87.8144 107.465 89.9361L116.453 86.8268C116.502 86.8033 116.556 86.7911 116.611 86.7911C116.665 86.7911 116.719 86.8033 116.768 86.8268C116.816 86.8555 116.856 86.895 116.885 86.9422C116.914 86.9893 116.932 87.0428 116.937 87.0981C116.937 87.2008 118.006 97.0494 118.402 101.42C118.407 101.503 118.387 101.585 118.343 101.655L102.331 126.287C103.385 127.065 107.502 129.749 110.959 127.226C111.007 127.191 111.063 127.169 111.122 127.16C111.18 127.151 111.24 127.156 111.296 127.175C111.354 127.197 111.405 127.232 111.446 127.278C111.487 127.324 111.516 127.379 111.531 127.439C111.567 127.6 112.527 131.479 115.603 130.966C118.819 130.431 119.903 128.37 119.947 128.282C119.976 128.235 120.014 128.195 120.059 128.165C120.105 128.134 120.157 128.114 120.211 128.106H120.24Z" fill="#231F20"/>
<path d="M123.39 75.196C123.297 75.1982 123.208 75.1639 123.141 75.1007C123.106 75.0666 123.079 75.026 123.06 74.9813C123.042 74.9367 123.032 74.8887 123.032 74.8403C123.032 74.7919 123.042 74.744 123.06 74.6993C123.079 74.6546 123.106 74.6141 123.141 74.58C125.602 71.918 130.693 70.2533 131.769 69.9233C132.033 69.0167 131.961 68.045 131.564 67.188C131.347 66.8504 131.102 66.5316 130.832 66.2347C130.099 65.34 129.191 64.218 129.418 63.0007C129.545 62.5307 129.775 62.0952 130.092 61.7259C130.409 61.3567 130.804 61.0631 131.249 60.8666C131.513 60.6814 131.818 60.5649 132.138 60.5278C132.458 60.4907 132.782 60.534 133.081 60.654C134.267 61.1673 134.685 62.9346 134.707 63.008C134.728 63.1052 134.71 63.207 134.656 63.2909C134.603 63.3748 134.518 63.4339 134.421 63.4553C134.324 63.4767 134.222 63.4586 134.138 63.405C134.055 63.3513 133.996 63.2666 133.974 63.1693C133.879 62.7587 133.476 61.6293 132.78 61.3213C132.584 61.2522 132.374 61.2321 132.169 61.2627C131.963 61.2934 131.768 61.3739 131.601 61.4973C131.256 61.6518 130.947 61.8773 130.695 62.159C130.442 62.4407 130.252 62.7725 130.136 63.1326C129.975 64.02 130.729 64.9513 131.403 65.7727C131.692 66.1043 131.951 66.4601 132.18 66.836C132.69 67.9359 132.764 69.1892 132.385 70.3413C132.366 70.3959 132.334 70.445 132.292 70.4846C132.25 70.5242 132.199 70.553 132.143 70.5687C132.084 70.5687 126.21 72.3067 123.646 75.0787C123.614 75.1156 123.575 75.1452 123.531 75.1655C123.486 75.1857 123.438 75.1961 123.39 75.196Z" fill="#231F20"/>
<path d="M138.882 76.1568C138.819 76.1558 138.757 76.1392 138.703 76.1085C138.648 76.0778 138.601 76.0339 138.567 75.9808C136.945 73.549 134.63 71.6611 131.923 70.5615C131.878 70.5459 131.835 70.5213 131.799 70.489C131.763 70.4567 131.734 70.4175 131.714 70.3737C131.693 70.3298 131.682 70.2823 131.68 70.2339C131.678 70.1856 131.686 70.1373 131.704 70.0921C131.738 70.0019 131.806 69.9287 131.894 69.8877C131.981 69.8466 132.081 69.8411 132.172 69.8721C135.044 71.0143 137.494 73.014 139.19 75.5995C139.216 75.6401 139.234 75.6857 139.243 75.7335C139.251 75.7812 139.25 75.8303 139.239 75.8776C139.228 75.9248 139.208 75.9694 139.179 76.0086C139.151 76.0478 139.114 76.0807 139.073 76.1055C139.015 76.1404 138.949 76.1582 138.882 76.1568Z" fill="#231F20"/>
<path d="M131.074 78.782C130.42 78.7804 129.766 78.7363 129.118 78.65C122.43 77.7553 121.983 73.7367 121.969 73.568C121.964 73.5199 121.969 73.4712 121.982 73.4249C121.996 73.3786 122.019 73.3354 122.05 73.298C122.081 73.2605 122.118 73.2295 122.161 73.2066C122.203 73.1837 122.25 73.1695 122.298 73.1647C122.346 73.1599 122.395 73.1646 122.441 73.1786C122.487 73.1925 122.531 73.2155 122.568 73.2461C122.605 73.2768 122.636 73.3145 122.659 73.3571C122.682 73.3998 122.696 73.4465 122.701 73.4947C122.701 73.656 123.155 77.1173 129.22 77.8947C133.04 78.3519 136.887 77.2995 139.944 74.9613C140.014 74.8937 140.107 74.8559 140.204 74.8559C140.301 74.8559 140.395 74.8937 140.464 74.9613C140.526 75.0367 140.556 75.1333 140.548 75.2306C140.54 75.3279 140.494 75.4181 140.42 75.482C137.757 77.5901 134.469 78.7511 131.074 78.782Z" fill="#231F20"/>
<path d="M175.946 69.5933C175.946 69.5933 172.482 77.5573 173.5 78.3933C174.518 79.2293 177.162 78.5986 177.162 78.5986" fill="white"/>
<path d="M175.258 79.2001C174.558 79.2488 173.861 79.0687 173.273 78.6868C172.196 77.8288 174.276 72.5488 175.617 69.4761C175.662 69.3979 175.734 69.3391 175.82 69.3109C175.906 69.2828 175.999 69.2874 176.081 69.3237C176.164 69.3601 176.23 69.4256 176.268 69.5079C176.305 69.5902 176.31 69.6833 176.283 69.7694C174.525 73.8248 173.353 77.6454 173.734 78.1221C174.467 78.6941 176.401 78.4081 177.089 78.2468C177.136 78.236 177.185 78.2346 177.233 78.2428C177.28 78.251 177.326 78.2685 177.367 78.2944C177.408 78.3203 177.443 78.3541 177.471 78.3937C177.499 78.4334 177.518 78.4782 177.529 78.5254C177.551 78.6198 177.534 78.719 177.484 78.8014C177.433 78.8838 177.352 78.9428 177.258 78.9654C176.601 79.1121 175.931 79.1907 175.258 79.2001Z" fill="#231F20"/>
<path d="M187.461 91.8206L185.447 87.5966C185.447 87.5966 182.143 89.9873 178.657 84.6633C175.17 79.3393 174.438 58.7693 174.438 58.7693C174.438 58.7693 183.608 71.6466 186.158 69.5786C185.645 65.8606 187.747 63.5066 190.384 68.112C192.45 71.7273 188.428 73.8906 188.428 73.8906L191.834 86.6653" fill="white"/>
<path d="M187.462 92.1873C187.393 92.1875 187.326 92.1683 187.267 92.132C187.209 92.0957 187.162 92.0437 187.132 91.982L185.323 88.11C184.549 88.4735 183.68 88.5838 182.839 88.4253C181.243 88.132 179.741 86.9587 178.386 84.8613C174.885 79.508 174.137 59.62 174.108 58.7767C174.106 58.6979 174.128 58.6205 174.173 58.5557C174.218 58.491 174.283 58.4425 174.357 58.4173C174.432 58.3914 174.513 58.3902 174.588 58.414C174.663 58.4378 174.729 58.4852 174.775 58.5493C176.84 61.4827 182.774 69.0507 185.381 69.4173C185.528 69.4523 185.681 69.4523 185.828 69.4173C185.594 67.32 186.15 65.6847 187.249 65.3107C187.872 65.098 189.161 65.164 190.772 67.98C191.071 68.4552 191.269 68.9869 191.354 69.5421C191.438 70.0973 191.407 70.6639 191.263 71.2067C190.842 72.4254 190.014 73.4614 188.919 74.14L192.259 86.6067C192.272 86.6548 192.275 86.705 192.268 86.7542C192.261 86.8035 192.245 86.851 192.219 86.8939C192.194 86.9368 192.161 86.9743 192.121 87.0043C192.082 87.0343 192.037 87.0561 191.988 87.0687C191.94 87.0812 191.89 87.0841 191.841 87.0772C191.792 87.0704 191.744 87.0539 191.702 87.0287C191.659 87.0035 191.621 86.9701 191.591 86.9304C191.561 86.8907 191.539 86.8455 191.527 86.7973L188.113 74.0227C188.094 73.9425 188.101 73.8581 188.134 73.7825C188.167 73.7068 188.224 73.6443 188.297 73.6047C189.327 73.0216 190.12 72.0951 190.538 70.9867C190.652 70.5386 190.674 70.0718 190.601 69.6152C190.527 69.1586 190.362 68.7219 190.113 68.332C189.139 66.6307 188.15 65.7507 187.462 65.9927C186.773 66.2347 186.282 67.5327 186.561 69.542C186.571 69.6049 186.565 69.6695 186.541 69.7289C186.518 69.7884 186.479 69.8403 186.429 69.8793C186.265 70.0076 186.076 70.0994 185.874 70.1487C185.671 70.198 185.461 70.2037 185.257 70.1653C182.393 69.7693 176.855 62.6487 174.87 59.9793C175.097 64.4527 176.071 80.036 178.979 84.48C180.217 86.372 181.55 87.4647 182.935 87.7287C183.73 87.8936 184.559 87.7467 185.249 87.318C185.294 87.2886 185.344 87.2689 185.396 87.2604C185.449 87.2518 185.502 87.2546 185.554 87.2685C185.605 87.2824 185.653 87.307 185.694 87.3409C185.735 87.3747 185.768 87.4169 185.791 87.4647L187.806 91.6887C187.827 91.7314 187.839 91.778 187.842 91.8256C187.845 91.8732 187.839 91.921 187.823 91.966C187.807 92.0111 187.783 92.0526 187.751 92.088C187.719 92.1235 187.68 92.1523 187.637 92.1727C187.581 92.1938 187.52 92.1989 187.462 92.1873Z" fill="#231F20"/>
<path d="M178.384 71.4683C178.762 71.4265 178.971 70.5082 178.851 69.4173C178.73 68.3263 178.326 67.4759 177.948 67.5177C177.57 67.5596 177.361 68.4779 177.482 69.5688C177.602 70.6597 178.006 71.5102 178.384 71.4683Z" fill="#231F20"/>
<path d="M227.163 121.667C227.115 121.671 227.067 121.665 227.021 121.649C226.975 121.634 226.933 121.61 226.897 121.578C226.823 121.514 226.778 121.424 226.771 121.326C226.765 121.229 226.797 121.133 226.861 121.06C226.924 120.986 227.015 120.941 227.112 120.934C235.389 119.878 242.494 113.505 243.571 106.099C244.047 102.975 243.571 99.4988 242.223 95.5607C241.112 92.0957 239.251 88.9184 236.774 86.2548C232.847 82.2654 227.515 80.3881 222.365 78.5254C219.714 77.6346 217.115 76.5965 214.579 75.4161C208.587 72.4827 206.294 67.8627 203.87 62.9494C202.794 60.672 201.57 58.4673 200.207 56.3494C199.015 54.5045 197.469 52.9153 195.658 51.6741C193.847 50.433 191.808 49.5647 189.659 49.1198C187.51 48.6749 185.294 48.6622 183.14 49.0825C180.986 49.5028 178.936 50.3477 177.112 51.5681L176.416 52.0301C175.658 52.5722 174.846 53.0319 173.991 53.4014C173.631 53.5352 173.264 53.6503 172.892 53.7461C172.577 53.8414 172.262 53.9294 171.955 54.0394C170.695 54.4996 169.612 55.3449 168.859 56.4557C168.106 57.5665 167.721 58.8864 167.759 60.2283C167.797 61.5702 168.256 62.8661 169.071 63.9323C169.886 64.9985 171.015 65.781 172.299 66.1688C172.391 66.1991 172.468 66.2643 172.514 66.3506C172.559 66.4369 172.568 66.5374 172.541 66.6308C172.512 66.7228 172.448 66.7997 172.363 66.845C172.278 66.8903 172.179 66.9003 172.087 66.8728C170.658 66.4378 169.402 65.5646 168.496 64.3765C167.59 63.1884 167.079 61.7454 167.036 60.2512C166.993 58.7569 167.42 57.2869 168.257 56.0487C169.093 54.8104 170.297 53.8665 171.698 53.3501C172.028 53.2327 172.358 53.1374 172.695 53.0421C173.044 52.9497 173.389 52.8396 173.727 52.7121C174.533 52.3693 175.297 51.9363 176.005 51.4214L176.738 50.9521C178.642 49.6774 180.78 48.7947 183.027 48.3553C185.275 47.9159 187.588 47.9286 189.831 48.3927C192.074 48.8568 194.202 49.763 196.091 51.0585C197.981 52.354 199.594 54.013 200.837 55.9387C202.222 58.0922 203.465 60.3336 204.558 62.6488C207.027 67.6208 209.158 71.9181 214.931 74.7487C217.44 75.9188 220.012 76.9471 222.636 77.8287C227.866 79.6914 233.28 81.6274 237.323 85.7341C239.873 88.4802 241.782 91.7589 242.912 95.3334C244.333 99.4108 244.787 102.975 244.296 106.223C243.139 113.938 235.792 120.582 227.207 121.682L227.163 121.667Z" fill="#231F20"/>
<path d="M185.117 112.625C185.117 112.625 177.265 113.586 161.15 101.677C145.035 89.7673 139.666 68.8747 138.655 67.7233C137.644 66.572 137.19 66.5647 135.725 66.3447C134.85 66.1957 134.016 65.8641 133.278 65.3714C132.54 64.8786 131.913 64.2358 131.44 63.4847C131.32 63.3238 131.255 63.1281 131.257 62.9273C131.299 62.7705 131.396 62.634 131.531 62.5425C131.665 62.4511 131.828 62.4107 131.989 62.4287C132.319 62.4902 132.634 62.612 132.919 62.788C133.53 63.0877 134.196 63.2575 134.875 63.2867C135.101 63.3101 135.328 63.2721 135.534 63.1767C135.703 63.0525 135.836 62.8864 135.921 62.6947C136.006 62.5031 136.039 62.2925 136.018 62.084C136.018 60.72 135.153 58.1827 133.322 59.0333C133.016 59.1801 132.763 59.4183 132.597 59.7151C132.432 60.0119 132.363 60.3528 132.399 60.6907C132.447 60.8534 132.447 61.0266 132.399 61.1893C132.297 61.3947 132.018 61.4387 131.784 61.424C131.476 61.3999 131.177 61.313 130.904 61.1687C130.631 61.0244 130.39 60.8257 130.197 60.5849C130.003 60.344 129.861 60.0661 129.779 59.7682C129.697 59.4704 129.676 59.1588 129.719 58.8527C129.761 58.5466 129.866 58.2525 130.026 57.9883C130.186 57.7242 130.399 57.4957 130.651 57.3169C130.903 57.1381 131.188 57.0127 131.49 56.9484C131.792 56.8842 132.104 56.8825 132.407 56.9433L129.997 56.4667C129.459 56.3969 128.941 56.2199 128.473 55.946C128.241 55.8063 128.055 55.6025 127.937 55.3591C127.819 55.1158 127.773 54.8433 127.806 54.5747C127.868 54.2984 128.005 54.0445 128.202 53.8413C129.154 52.7927 130.692 52.5727 132.099 52.426C134.362 52.184 136.706 51.9787 138.889 52.6387C143.284 53.966 145.482 57.442 147.679 61.226C154.616 73.2013 164.761 83.4313 177.016 89.9067C182.531 92.84 188.736 95.37 194.962 94.864" fill="white"/>
<path d="M184.59 113.014C182.524 113.014 174.767 112.222 160.894 101.97C147.643 92.158 141.592 76.2667 139.314 70.2534C139.049 69.471 138.734 68.7067 138.369 67.9654C137.52 66.9974 137.117 66.9314 135.791 66.7187H135.696C134.76 66.5659 133.869 66.2155 133.079 65.6907C132.29 65.166 131.621 64.479 131.118 63.6754C130.951 63.4464 130.871 63.1659 130.89 62.8834C130.942 62.6273 131.089 62.4002 131.301 62.2478C131.513 62.0955 131.774 62.0291 132.033 62.062C132.357 62.1057 132.669 62.2155 132.949 62.3847L133.095 62.458C133.662 62.7362 134.281 62.8935 134.912 62.92C135.068 62.9393 135.227 62.9191 135.373 62.8614C135.644 62.7074 135.666 62.2307 135.666 62.084C135.666 61.1307 135.249 59.8254 134.56 59.3854C134.399 59.2876 134.214 59.236 134.026 59.236C133.837 59.236 133.652 59.2876 133.491 59.3854C133.253 59.4993 133.055 59.6831 132.924 59.9124C132.793 60.1418 132.736 60.4056 132.758 60.6687V60.742C132.806 60.9556 132.786 61.1788 132.7 61.38C132.6 61.542 132.453 61.6697 132.279 61.7457C132.105 61.8217 131.912 61.8426 131.726 61.8054C131.373 61.7711 131.031 61.6649 130.721 61.4934C130.412 61.3219 130.14 61.0886 129.924 60.808C129.693 60.5374 129.522 60.2209 129.422 59.8794C129.322 59.5379 129.295 59.1791 129.344 58.8266C129.392 58.474 129.515 58.1358 129.703 57.8339C129.891 57.5321 130.141 57.2736 130.436 57.0754L130.597 56.9727L129.865 56.8187C129.28 56.7389 128.717 56.5418 128.21 56.2394C127.928 56.0478 127.708 55.7795 127.574 55.4663C127.44 55.153 127.399 54.808 127.455 54.472C127.535 54.141 127.702 53.8373 127.938 53.592C128.964 52.47 130.539 52.2207 132.062 52.0594C134.568 51.7954 136.816 51.6267 139.007 52.2867C143.402 53.614 145.599 56.892 147.994 61.0427C154.857 73.1101 164.972 83.0008 177.184 89.584C182.034 92.1507 188.436 95.018 194.933 94.4974C194.981 94.4934 195.029 94.499 195.074 94.5139C195.12 94.5288 195.162 94.5526 195.198 94.5841C195.234 94.6155 195.264 94.6539 195.285 94.6969C195.306 94.74 195.318 94.7868 195.321 94.8347C195.326 94.8825 195.322 94.9308 195.308 94.9768C195.294 95.0228 195.271 95.0655 195.24 95.1024C195.209 95.1394 195.171 95.1697 195.129 95.1918C195.086 95.2138 195.039 95.227 194.992 95.2307C188.304 95.7734 181.807 92.8474 176.848 90.2367C164.511 83.5907 154.291 73.6034 147.357 61.4167C145.035 57.4054 142.962 54.2374 138.794 52.9907C136.736 52.3747 134.568 52.5287 132.143 52.7854C130.751 52.932 129.33 53.152 128.481 54.0907C128.335 54.2376 128.229 54.4194 128.173 54.6187C128.158 54.8152 128.197 55.012 128.288 55.187C128.379 55.3619 128.516 55.508 128.686 55.6087C129.113 55.8576 129.587 56.0173 130.077 56.078L132.517 56.584C132.563 56.5928 132.608 56.6108 132.648 56.637C132.688 56.6632 132.722 56.6971 132.749 56.7367C132.775 56.7763 132.794 56.8208 132.803 56.8676C132.812 56.9144 132.812 56.9626 132.802 57.0094C132.781 57.1042 132.725 57.1873 132.644 57.2418C132.564 57.2963 132.466 57.3181 132.37 57.3027C131.87 57.2414 131.365 57.3723 130.957 57.669C130.549 57.9656 130.269 58.406 130.173 58.9014C130.126 59.407 130.273 59.9115 130.585 60.3121C130.896 60.7128 131.349 60.9793 131.85 61.0574C131.94 61.0701 132.031 61.0574 132.114 61.0207C132.12 60.9573 132.12 60.8934 132.114 60.83V60.7347C132.06 60.3185 132.137 59.8959 132.334 59.5254C132.531 59.1549 132.838 58.8548 133.212 58.6667C133.488 58.5219 133.797 58.4525 134.109 58.4654C134.42 58.4782 134.722 58.573 134.985 58.74C136.04 59.422 136.45 61.138 136.45 62.062C136.477 62.336 136.429 62.6122 136.31 62.8605C136.191 63.1088 136.007 63.3196 135.776 63.47C135.512 63.5974 135.218 63.6507 134.927 63.624C134.197 63.5904 133.481 63.4083 132.824 63.0887L132.663 63.008C132.469 62.8856 132.252 62.8034 132.026 62.766C131.865 62.766 131.682 62.8467 131.667 62.942C131.652 63.0374 131.755 63.1987 131.791 63.2647C132.23 63.9782 132.814 64.5909 133.506 65.0623C134.198 65.5337 134.982 65.8533 135.806 66H135.901C137.271 66.22 137.893 66.3154 138.919 67.4667C139.369 68.2639 139.732 69.1071 140.003 69.982C142.259 75.9147 148.251 91.6814 161.355 101.361C177.119 113.014 185 112.251 185.081 112.244C185.129 112.238 185.177 112.241 185.223 112.255C185.27 112.268 185.313 112.29 185.351 112.32C185.388 112.35 185.419 112.387 185.442 112.43C185.465 112.472 185.479 112.519 185.484 112.567C185.49 112.614 185.487 112.662 185.474 112.708C185.461 112.754 185.44 112.797 185.411 112.834C185.381 112.872 185.345 112.903 185.303 112.927C185.262 112.95 185.216 112.965 185.169 112.97C184.977 112.999 184.784 113.014 184.59 113.014Z" fill="#231F20"/>
<path d="M150.822 139.128C149.965 137.977 137.007 110.895 137.007 110.895L151.4 111.181L164.08 136.539L150.822 139.128Z" fill="#231F20"/>
<path d="M150.822 139.495C150.766 139.495 150.711 139.482 150.661 139.457C150.611 139.431 150.568 139.394 150.536 139.348C149.657 138.182 137.212 112.156 136.685 111.049C136.652 110.996 136.635 110.935 136.635 110.873C136.635 110.811 136.652 110.75 136.685 110.697C136.721 110.648 136.767 110.608 136.82 110.579C136.873 110.55 136.932 110.533 136.992 110.528L151.386 110.814C151.453 110.818 151.518 110.838 151.574 110.874C151.631 110.91 151.677 110.96 151.708 111.019L164.388 136.4C164.413 136.451 164.426 136.508 164.426 136.565C164.426 136.622 164.413 136.679 164.388 136.73C164.365 136.781 164.33 136.826 164.285 136.859C164.24 136.893 164.187 136.914 164.132 136.921L150.895 139.487L150.822 139.495ZM137.593 111.269C141.219 118.844 149.738 136.547 150.998 138.725L163.524 136.268L151.174 111.54L137.593 111.269Z" fill="#231F20"/>
<path d="M151.064 135.579L139.607 112.486L150.749 113.036L160.945 134.523L151.064 135.579Z" fill="#68E1FD"/>
<path d="M230.481 147.774C230.481 147.774 240.839 160.453 240.553 170.251C240.267 180.048 237.96 182.065 237.96 182.065L240.458 195.008L186.788 195.14L189.835 161.025L230.481 147.774Z" fill="#231F20"/>
<path d="M186.788 195.507C186.737 195.507 186.687 195.496 186.641 195.476C186.594 195.456 186.552 195.426 186.518 195.389C186.483 195.352 186.457 195.308 186.441 195.26C186.424 195.212 186.418 195.161 186.422 195.111L189.476 160.996C189.481 160.924 189.507 160.856 189.551 160.799C189.596 160.743 189.656 160.701 189.725 160.681L230.364 147.4C230.434 147.377 230.508 147.375 230.579 147.394C230.649 147.414 230.712 147.454 230.76 147.51C231.185 148.038 241.205 160.409 240.912 170.243C240.663 178.75 238.891 181.507 238.356 182.16L240.817 194.92C240.828 194.973 240.827 195.028 240.813 195.08C240.799 195.132 240.773 195.18 240.736 195.221C240.703 195.263 240.661 195.297 240.613 195.321C240.565 195.345 240.512 195.359 240.458 195.36L186.788 195.507ZM190.165 161.333L187.169 194.803L240.019 194.671L237.601 182.16C237.591 182.097 237.596 182.033 237.616 181.973C237.637 181.912 237.672 181.858 237.719 181.815C237.719 181.815 239.916 179.681 240.187 170.265C240.451 161.37 231.639 149.857 230.35 148.265L190.165 161.333Z" fill="#231F20"/>
<path d="M186.656 164.201C186.656 164.201 185.322 162.8 184.209 143.345C183.096 123.889 172.907 124.08 176.804 104.361C180.305 86.6066 192.721 85.6533 200.705 86.6066C217.955 88.66 213.765 110.029 233.909 148.94C233.931 148.925 221.296 174.203 186.656 164.201Z" fill="#68E1FD"/>
<path d="M184.063 111.76C184.641 111.76 188.377 127.981 187.879 130.731C187.322 133.775 178.664 133.1 176.65 133.085C173.808 133.085 165.509 133.921 163.121 132.418C161.092 131.142 158.726 129.719 157.107 127.959C155.766 126.537 154.756 124.879 153.356 123.442C152.806 122.815 152.161 122.278 151.445 121.851C150.746 121.528 150.007 121.303 149.247 121.183C148.865 121.059 148.45 121.08 148.082 121.242C147.915 121.362 147.785 121.527 147.706 121.717C147.627 121.908 147.602 122.117 147.636 122.32C147.708 122.726 147.858 123.114 148.075 123.464C148.551 124.344 151.1 127.864 150.529 128.737C149.958 129.609 145.79 128.649 144.779 128.546C142.054 128.275 141.387 130.665 141.849 132.902C142.926 137.713 149.042 139.876 153.041 141.658C158.007 143.836 163.177 145.514 168.475 146.667C176.444 148.348 184.55 149.291 192.692 149.483C198.032 149.681 206.609 149.769 209.649 144.298C215.56 133.635 205.43 107.221 205.43 107.221" fill="white"/>
<path d="M195.754 149.945C194.611 149.945 193.556 149.908 192.706 149.879C184.542 149.688 176.413 148.741 168.424 147.048C163.093 145.881 157.891 144.186 152.895 141.988L151.642 141.445C147.577 139.685 142.515 137.493 141.497 132.983C141.3 132.322 141.256 131.625 141.369 130.945C141.482 130.265 141.749 129.62 142.149 129.059C142.482 128.706 142.897 128.44 143.357 128.286C143.817 128.133 144.308 128.096 144.786 128.179C145.006 128.179 145.38 128.267 145.826 128.348C146.83 128.517 149.87 129.081 150.221 128.539C150.573 127.996 148.866 125.415 148.317 124.557C148.068 124.161 147.863 123.823 147.753 123.64C147.513 123.249 147.349 122.816 147.269 122.364C147.221 122.086 147.254 121.799 147.364 121.539C147.475 121.278 147.658 121.056 147.892 120.897C148.337 120.681 148.849 120.644 149.32 120.795C150.162 120.882 150.978 121.136 151.721 121.541C152.465 121.946 153.12 122.495 153.649 123.156C154.372 123.92 155.048 124.729 155.671 125.576C156.212 126.306 156.789 127.008 157.4 127.681C159.084 129.292 160.958 130.691 162.982 131.846L163.348 132.081C165.084 133.173 170.416 132.931 173.947 132.777C175.06 132.726 176.013 132.689 176.687 132.689H177.624C180.217 132.777 187.147 132.997 187.55 130.614C188.011 128.062 184.583 113.153 183.887 112.009C183.824 111.965 183.776 111.901 183.75 111.828C183.725 111.755 183.724 111.675 183.747 111.601C183.769 111.527 183.815 111.462 183.877 111.415C183.939 111.369 184.015 111.343 184.092 111.342C184.223 111.357 184.345 111.416 184.436 111.511C185.228 112.464 188.78 127.93 188.267 130.746C187.718 133.753 180.884 133.533 177.602 133.423H176.679C176.027 133.423 175.082 133.459 173.984 133.511C170.145 133.679 164.886 133.914 162.996 132.697L162.63 132.469C160.551 131.282 158.627 129.841 156.902 128.179C156.272 127.494 155.68 126.774 155.129 126.023C154.518 125.202 153.86 124.416 153.159 123.669C152.636 123.072 152.023 122.559 151.342 122.151C150.666 121.837 149.948 121.622 149.211 121.513C148.919 121.409 148.601 121.409 148.31 121.513C148.203 121.6 148.122 121.714 148.074 121.843C148.027 121.972 148.014 122.111 148.039 122.247C148.105 122.606 148.239 122.95 148.434 123.259C148.537 123.449 148.734 123.757 148.976 124.131C150.324 126.251 151.401 128.069 150.873 128.905C150.346 129.741 148.244 129.47 145.746 129.037C145.321 128.964 144.969 128.905 144.757 128.883C144.395 128.815 144.022 128.837 143.671 128.947C143.32 129.057 143.001 129.252 142.743 129.514C142.419 129.988 142.207 130.529 142.123 131.097C142.04 131.665 142.086 132.245 142.259 132.792C143.189 136.935 148.061 139.047 151.979 140.741L153.239 141.291C158.188 143.469 163.341 145.147 168.622 146.3C176.574 147.989 184.667 148.932 192.794 149.116C197.189 149.27 206.375 149.6 209.422 144.107C215.18 133.723 205.276 107.609 205.174 107.345C205.156 107.3 205.147 107.252 205.149 107.203C205.15 107.155 205.16 107.107 205.18 107.063C205.2 107.018 205.228 106.978 205.264 106.945C205.299 106.912 205.341 106.886 205.386 106.869C205.477 106.835 205.578 106.838 205.667 106.878C205.756 106.918 205.826 106.991 205.862 107.081C206.272 108.167 215.985 133.782 210.059 144.481C207.356 149.263 200.632 149.945 195.754 149.945Z" fill="#231F20"/>
<path d="M204.5 103.767C204.43 103.768 204.361 103.749 204.302 103.711C204.244 103.673 204.198 103.618 204.17 103.554L199.372 93.1847C199.351 93.1409 199.339 93.0934 199.336 93.0449C199.334 92.9964 199.341 92.9479 199.357 92.9022C199.374 92.8565 199.399 92.8145 199.432 92.7787C199.464 92.7428 199.504 92.7138 199.548 92.6933C199.638 92.6553 199.738 92.653 199.83 92.6871C199.921 92.7212 199.996 92.7891 200.039 92.8767L204.829 103.246C204.85 103.29 204.862 103.337 204.865 103.386C204.867 103.434 204.86 103.483 204.844 103.528C204.827 103.574 204.802 103.616 204.77 103.652C204.737 103.688 204.697 103.717 204.653 103.737C204.605 103.758 204.552 103.768 204.5 103.767Z" fill="#231F20"/>
<path d="M165.648 155.467H165.545C165.498 155.457 165.453 155.438 165.413 155.411C165.373 155.384 165.339 155.35 165.313 155.31C165.286 155.27 165.268 155.224 165.259 155.177C165.249 155.13 165.25 155.081 165.259 155.034C165.442 154.147 169.874 133.298 178.671 132.301C178.719 132.294 178.768 132.296 178.815 132.309C178.862 132.322 178.905 132.344 178.943 132.374C178.981 132.404 179.012 132.442 179.035 132.485C179.057 132.528 179.071 132.575 179.074 132.623C179.085 132.72 179.056 132.816 178.996 132.892C178.936 132.967 178.848 133.016 178.752 133.027C170.482 133.995 166.021 155.027 165.977 155.21C165.955 155.281 165.911 155.344 165.853 155.39C165.794 155.436 165.722 155.463 165.648 155.467Z" fill="#231F20"/>
<path d="M183.206 157.219C183.158 157.217 183.111 157.204 183.067 157.183C183.024 157.162 182.985 157.133 182.953 157.097C182.921 157.06 182.897 157.018 182.881 156.973C182.865 156.927 182.859 156.879 182.862 156.831C182.862 156.779 183.081 151.543 182.254 149.189C182.236 149.144 182.227 149.095 182.228 149.046C182.229 148.997 182.24 148.949 182.26 148.904C182.281 148.859 182.31 148.819 182.345 148.786C182.381 148.753 182.424 148.727 182.47 148.71C182.516 148.693 182.565 148.686 182.614 148.689C182.662 148.691 182.71 148.704 182.754 148.725C182.798 148.747 182.838 148.777 182.87 148.814C182.902 148.85 182.927 148.893 182.942 148.94C183.821 151.433 183.601 156.647 183.587 156.867C183.585 156.915 183.573 156.963 183.553 157.007C183.533 157.05 183.505 157.09 183.469 157.122C183.434 157.155 183.392 157.18 183.347 157.197C183.302 157.214 183.254 157.221 183.206 157.219Z" fill="#231F20"/>
<path d="M154.426 153.149C155.283 152.863 198.171 159.683 198.171 159.683L197.321 205.619L142.061 197.267L154.426 153.149Z" fill="white"/>
<path d="M197.321 205.986H197.262L142.002 197.633C141.951 197.624 141.903 197.605 141.86 197.576C141.817 197.547 141.78 197.509 141.753 197.465C141.725 197.422 141.706 197.374 141.698 197.323C141.691 197.272 141.694 197.22 141.709 197.171L154.067 153.061C154.084 153.003 154.115 152.95 154.157 152.907C154.199 152.863 154.251 152.831 154.308 152.812C155.187 152.519 188.142 157.725 198.258 159.331C198.345 159.345 198.424 159.39 198.48 159.457C198.537 159.525 198.567 159.61 198.566 159.698L197.716 205.634C197.713 205.686 197.7 205.736 197.678 205.783C197.655 205.83 197.623 205.871 197.584 205.905C197.548 205.935 197.506 205.958 197.461 205.972C197.415 205.986 197.368 205.991 197.321 205.986ZM142.522 196.959L196.962 205.194L197.775 159.999C181.462 157.403 157.385 153.67 154.682 153.516L142.522 196.959Z" fill="#231F20"/>
<path d="M177.719 81.8253C177.605 81.838 177.49 81.838 177.375 81.8253C177.327 81.8199 177.281 81.8049 177.239 81.7812C177.197 81.7574 177.16 81.7254 177.13 81.687C177.101 81.6487 177.08 81.6048 177.068 81.558C177.055 81.5112 177.053 81.4624 177.06 81.4146C177.075 81.3193 177.126 81.2332 177.202 81.1744C177.278 81.1157 177.375 81.0887 177.47 81.0993C177.646 81.0993 181.697 81.5833 183.045 75.8046C183.067 75.7105 183.126 75.6291 183.209 75.5783C183.291 75.5274 183.39 75.5113 183.484 75.5333C183.531 75.5436 183.576 75.5633 183.615 75.5912C183.654 75.6191 183.688 75.6547 183.713 75.6957C183.738 75.7368 183.755 75.7825 183.762 75.8302C183.77 75.8779 183.767 75.9266 183.755 75.9733C182.495 81.4 178.862 81.8253 177.719 81.8253Z" fill="#231F20"/>
<path d="M81.0072 164.267C80.9142 164.265 80.8252 164.229 80.7575 164.165C80.6898 164.101 80.6482 164.015 80.6409 163.922L78.9415 137.221C78.9387 137.172 78.9457 137.123 78.962 137.076C78.9784 137.03 79.0038 136.987 79.0367 136.95C79.0718 136.913 79.1139 136.884 79.1604 136.864C79.207 136.844 79.2571 136.833 79.3078 136.833L104.381 136.723C104.47 136.722 104.557 136.755 104.623 136.815C104.689 136.874 104.731 136.957 104.74 137.045L107.582 163.519C107.587 163.57 107.58 163.622 107.564 163.671C107.548 163.721 107.522 163.766 107.487 163.805C107.454 163.842 107.413 163.871 107.368 163.892C107.322 163.912 107.273 163.922 107.223 163.922L97.7009 164.039C97.616 164.046 97.5318 164.02 97.4653 163.967C97.3987 163.914 97.3546 163.838 97.3419 163.753L94.4559 151.639L93.4084 163.475C93.3998 163.564 93.3596 163.647 93.295 163.709C93.2305 163.77 93.146 163.807 93.0568 163.812L81.0291 164.267H81.0072ZM79.696 137.566L81.3514 163.519L92.6979 163.093L93.9212 149.321C93.9295 149.235 93.9679 149.155 94.0295 149.095C94.0912 149.034 94.1721 148.998 94.2581 148.991C94.3448 148.982 94.4318 149.006 94.5022 149.057C94.5726 149.109 94.6213 149.185 94.639 149.27L97.9792 163.299L106.813 163.196L104.059 137.456L79.696 137.566Z" fill="#D1D3D4"/>
<path d="M79.7622 140.492C79.6651 140.492 79.572 140.453 79.5033 140.385C79.4346 140.316 79.396 140.223 79.396 140.125C79.396 140.028 79.4346 139.935 79.5033 139.866C79.572 139.797 79.6651 139.759 79.7622 139.759L104.272 139.414C104.321 139.411 104.37 139.418 104.417 139.435C104.463 139.453 104.505 139.479 104.54 139.514C104.575 139.549 104.603 139.59 104.621 139.636C104.639 139.682 104.647 139.731 104.645 139.781C104.646 139.829 104.638 139.876 104.62 139.92C104.602 139.965 104.576 140.005 104.543 140.04C104.509 140.074 104.469 140.101 104.425 140.119C104.381 140.138 104.334 140.147 104.286 140.147L79.7696 140.492H79.7622Z" fill="#D1D3D4"/>
<path d="M94.595 108.533H77.872C76.9069 108.525 75.9814 108.147 75.2854 107.478C74.5895 106.808 74.1757 105.898 74.1289 104.933C74.1039 104.466 74.1746 104 74.3368 103.562C74.4989 103.124 74.749 102.724 75.0716 102.386C75.3943 102.049 75.7826 101.781 76.2126 101.6C76.6426 101.418 77.1051 101.327 77.5717 101.332H94.2947C95.26 101.342 96.1853 101.72 96.8821 102.389C97.5789 103.058 97.9948 103.967 98.0451 104.933C98.068 105.399 97.9956 105.866 97.8322 106.303C97.6689 106.741 97.418 107.14 97.095 107.477C96.772 107.814 96.3837 108.082 95.9538 108.263C95.5239 108.445 95.0616 108.537 94.595 108.533Z" fill="#68E1FD"/>
<path d="M101.979 178.457H89.7388C88.7731 178.45 87.8467 178.073 87.1503 177.403C86.454 176.733 86.0407 175.822 85.9957 174.856C85.9717 174.389 86.0434 173.922 86.2064 173.484C86.3694 173.046 86.6202 172.646 86.9434 172.309C87.2666 171.972 87.6553 171.704 88.0857 171.523C88.5161 171.342 88.9789 171.251 89.4458 171.255H101.686C102.651 171.264 103.576 171.641 104.272 172.311C104.968 172.98 105.382 173.891 105.429 174.856C105.453 175.323 105.381 175.79 105.218 176.228C105.055 176.666 104.805 177.066 104.481 177.403C104.158 177.74 103.769 178.008 103.339 178.189C102.909 178.37 102.446 178.461 101.979 178.457Z" fill="#D1D3D4"/>
<path d="M142.273 178.457H130.033C129.067 178.45 128.14 178.074 127.442 177.404C126.745 176.734 126.33 175.823 126.283 174.856C126.26 174.39 126.332 173.923 126.496 173.486C126.659 173.048 126.91 172.649 127.233 172.312C127.556 171.974 127.944 171.707 128.374 171.525C128.804 171.344 129.266 171.252 129.733 171.255H141.973C142.94 171.262 143.867 171.639 144.564 172.308C145.262 172.978 145.677 173.89 145.724 174.856C145.748 175.323 145.676 175.79 145.513 176.228C145.35 176.666 145.099 177.066 144.776 177.403C144.453 177.74 144.064 178.008 143.634 178.189C143.203 178.37 142.74 178.461 142.273 178.457Z" fill="#D1D3D4"/>
<path d="M92.9322 56.1733L70.8912 55.7333C70.7953 55.7278 70.705 55.6861 70.6385 55.6168C70.5719 55.5474 70.534 55.4555 70.5323 55.3593C70.5312 55.3105 70.5402 55.2621 70.5588 55.217C70.5774 55.1719 70.6051 55.1312 70.6402 55.0974C70.6753 55.0637 70.7171 55.0375 70.7628 55.0208C70.8086 55.004 70.8573 54.9969 70.9059 55L92.9395 55.4106C92.9876 55.4116 93.035 55.422 93.0791 55.4413C93.1232 55.4606 93.163 55.4885 93.1963 55.5232C93.2297 55.5579 93.2558 55.5989 93.2734 55.6437C93.2909 55.6886 93.2994 55.7365 93.2984 55.7846C93.3025 55.8348 93.2961 55.8854 93.2794 55.9329C93.2628 55.9805 93.2363 56.024 93.2018 56.0606C93.1672 56.0973 93.1254 56.1263 93.0789 56.1457C93.0325 56.1651 92.9825 56.1745 92.9322 56.1733Z" fill="#D1D3D4"/>
<path d="M93.3867 63.5213L71.3458 63.1106C71.2977 63.1096 71.2503 63.0992 71.2062 63.0799C71.1621 63.0606 71.1223 63.0328 71.089 62.998C71.0556 62.9633 71.0295 62.9223 71.0119 62.8775C70.9944 62.8326 70.9859 62.7847 70.9869 62.7366C70.9869 62.6881 70.9966 62.6402 71.0155 62.5956C71.0345 62.551 71.0622 62.5107 71.0971 62.4772C71.132 62.4436 71.1734 62.4175 71.2186 62.4003C71.2639 62.3831 71.3121 62.3753 71.3605 62.3773L93.3941 62.7879C93.49 62.7935 93.5803 62.8351 93.6468 62.9044C93.7134 62.9738 93.7513 63.0658 93.753 63.1619C93.7511 63.2579 93.7116 63.3493 93.6432 63.4165C93.5747 63.4836 93.4826 63.5213 93.3867 63.5213Z" fill="#D1D3D4"/>
<path d="M93.8334 70.8694L71.7852 70.4588C71.6893 70.4532 71.599 70.4116 71.5324 70.3422C71.4659 70.2729 71.428 70.1809 71.4263 70.0848C71.4272 70.0366 71.4376 69.9891 71.4569 69.945C71.4762 69.9009 71.504 69.861 71.5387 69.8276C71.5734 69.7942 71.6143 69.768 71.6591 69.7505C71.7039 69.733 71.7517 69.7244 71.7998 69.7254L93.8334 70.1361C93.9306 70.1361 94.0237 70.1747 94.0924 70.2435C94.1611 70.3122 94.1997 70.4055 94.1997 70.5028C94.1997 70.6 94.1611 70.6933 94.0924 70.762C94.0237 70.8308 93.9306 70.8694 93.8334 70.8694Z" fill="#D1D3D4"/>
<path d="M94.2801 78.2173L72.2465 77.7993C72.1981 77.7994 72.1502 77.7896 72.1057 77.7706C72.0611 77.7517 72.0209 77.7239 71.9874 77.6889C71.9539 77.654 71.9277 77.6126 71.9106 77.5673C71.8934 77.522 71.8856 77.4737 71.8876 77.4253C71.8853 77.3763 71.8935 77.3273 71.9117 77.2817C71.9299 77.2361 71.9576 77.1948 71.993 77.1608C72.0283 77.1268 72.0706 77.1007 72.1168 77.0844C72.1631 77.068 72.2123 77.0617 72.2612 77.066L94.2874 77.484C94.3355 77.4849 94.383 77.4954 94.427 77.5147C94.4711 77.534 94.511 77.5618 94.5443 77.5965C94.5776 77.6313 94.6038 77.6722 94.6213 77.7171C94.6388 77.762 94.6473 77.8098 94.6464 77.858C94.6464 77.9058 94.6368 77.9531 94.6184 77.9972C94.5999 78.0413 94.5728 78.0812 94.5387 78.1147C94.5045 78.1482 94.4641 78.1745 94.4197 78.1921C94.3753 78.2097 94.3279 78.2183 94.2801 78.2173Z" fill="#D1D3D4"/>
<path d="M94.7344 85.5654L72.7008 85.1474C72.6527 85.1464 72.6053 85.136 72.5612 85.1167C72.5171 85.0974 72.4773 85.0696 72.4439 85.0348C72.4106 85.0001 72.3844 84.9591 72.3669 84.9143C72.3494 84.8694 72.3409 84.8215 72.3419 84.7734C72.3506 84.6785 72.3931 84.59 72.4617 84.524C72.5303 84.458 72.6204 84.419 72.7154 84.4141L94.749 84.8321C94.845 84.8376 94.9352 84.8792 95.0018 84.9486C95.0684 85.0179 95.1063 85.1099 95.108 85.2061C95.1042 85.3027 95.0632 85.3941 94.9935 85.4611C94.9238 85.5281 94.831 85.5655 94.7344 85.5654Z" fill="#D1D3D4"/>
<path d="M88.4055 92.7886L73.1548 92.4953C73.0577 92.4953 72.9645 92.4567 72.8958 92.3879C72.8272 92.3191 72.7886 92.2259 72.7886 92.1286C72.7886 92.0314 72.8272 91.9381 72.8958 91.8694C72.9645 91.8006 73.0577 91.762 73.1548 91.762L88.4128 92.0553C88.5099 92.0553 88.6031 92.0939 88.6718 92.1627C88.7405 92.2315 88.779 92.3247 88.779 92.422C88.779 92.5192 88.7405 92.6125 88.6718 92.6812C88.6031 92.75 88.5099 92.7886 88.4128 92.7886H88.4055Z" fill="#D1D3D4"/>
<path d="M106.213 183.817L105.48 184.551L105.092 184.125L106.234 183.113H106.769L107.179 187.579H106.571L106.213 183.817Z" fill="#D1D3D4"/>
<path d="M111.934 187L113.56 185.255C113.617 185.195 113.671 185.131 113.721 185.064C113.776 185 113.823 184.928 113.86 184.851C113.903 184.777 113.933 184.695 113.948 184.609C113.963 184.522 113.963 184.433 113.948 184.345C113.935 184.243 113.906 184.144 113.86 184.052C113.813 183.966 113.751 183.889 113.677 183.825C113.599 183.76 113.509 183.711 113.413 183.678C113.317 183.644 113.215 183.624 113.113 183.619C112.921 183.606 112.731 183.67 112.586 183.795C112.451 183.927 112.372 184.106 112.366 184.294L111.707 184.228C111.709 184.052 111.752 183.879 111.831 183.722C111.899 183.583 111.997 183.46 112.117 183.363C112.242 183.264 112.387 183.194 112.542 183.157C112.714 183.112 112.891 183.09 113.069 183.091C113.257 183.097 113.444 183.127 113.626 183.179C113.792 183.235 113.947 183.316 114.087 183.421C114.226 183.526 114.34 183.658 114.424 183.81C114.518 183.976 114.573 184.162 114.585 184.353C114.611 184.488 114.611 184.628 114.585 184.763C114.554 184.889 114.507 185.009 114.446 185.123C114.386 185.235 114.315 185.341 114.234 185.438L113.97 185.731L112.629 187.125L114.871 187.161L114.922 187.689L111.992 187.645L111.934 187Z" fill="#D1D3D4"/>
<path d="M119.398 186.692C119.468 186.877 119.581 187.043 119.727 187.176C119.883 187.292 120.075 187.352 120.269 187.345C120.484 187.349 120.693 187.273 120.855 187.132C120.925 187.061 120.98 186.976 121.016 186.883C121.053 186.777 121.068 186.665 121.06 186.553C121.05 186.391 120.994 186.236 120.899 186.105C120.815 185.994 120.704 185.906 120.577 185.849C120.448 185.787 120.309 185.747 120.167 185.731C120.02 185.72 119.873 185.72 119.727 185.731L119.683 185.196C119.87 185.205 120.056 185.193 120.24 185.159C120.36 185.14 120.475 185.095 120.577 185.027C120.651 184.976 120.706 184.901 120.731 184.815C120.753 184.716 120.753 184.613 120.731 184.514C120.729 184.411 120.705 184.309 120.661 184.215C120.616 184.122 120.553 184.039 120.474 183.971C120.316 183.845 120.12 183.778 119.918 183.781C119.765 183.773 119.615 183.82 119.493 183.913C119.369 184.009 119.275 184.139 119.222 184.287L118.592 184.067C118.663 183.805 118.834 183.581 119.068 183.443C119.308 183.306 119.583 183.24 119.859 183.253C120.038 183.253 120.216 183.28 120.386 183.333C120.55 183.381 120.704 183.458 120.841 183.561C120.981 183.663 121.096 183.796 121.178 183.949C121.269 184.114 121.321 184.297 121.331 184.485C121.357 184.707 121.302 184.93 121.178 185.115C121.06 185.299 120.876 185.43 120.665 185.482C120.802 185.508 120.933 185.557 121.053 185.629C121.165 185.696 121.265 185.783 121.346 185.885C121.432 185.986 121.501 186.1 121.551 186.223C121.603 186.349 121.632 186.483 121.639 186.619C121.664 186.809 121.641 187.003 121.573 187.183C121.51 187.338 121.409 187.474 121.28 187.579C121.148 187.686 120.996 187.766 120.833 187.814C120.652 187.865 120.465 187.89 120.277 187.887C119.955 187.886 119.639 187.8 119.361 187.638C119.079 187.472 118.864 187.212 118.753 186.905L119.398 186.692Z" fill="#D1D3D4"/>
<path d="M127.455 186.927H125.558L125.5 186.311L127.016 183.473H127.748L128.019 186.406H128.649L128.693 186.934H128.071L128.158 187.917H127.551L127.455 186.927ZM127.206 184.162L126.049 186.362H127.426L127.206 184.162Z" fill="#D1D3D4"/>
<path d="M109.055 189.398L105.436 189.347C105.323 189.342 105.215 189.296 105.133 189.218C105.051 189.14 105 189.034 104.989 188.921C104.983 188.869 104.988 188.816 105.004 188.766C105.02 188.715 105.047 188.669 105.082 188.63C105.118 188.591 105.161 188.56 105.21 188.54C105.258 188.519 105.31 188.509 105.363 188.511L108.982 188.569C109.095 188.572 109.204 188.616 109.287 188.693C109.371 188.77 109.423 188.874 109.436 188.987C109.444 189.041 109.439 189.095 109.423 189.146C109.407 189.198 109.38 189.245 109.344 189.284C109.307 189.324 109.262 189.354 109.212 189.374C109.162 189.394 109.108 189.402 109.055 189.398Z" fill="#D1D3D4"/>
<path d="M215.919 193.057C215.846 193.056 215.776 193.031 215.719 192.986C215.662 192.941 215.622 192.878 215.604 192.808L210.103 168.608C210.085 168.524 210.1 168.437 210.146 168.365C210.191 168.292 210.262 168.24 210.345 168.219C210.429 168.202 210.517 168.218 210.59 168.265C210.662 168.311 210.714 168.384 210.733 168.469L216.234 192.669C216.245 192.71 216.247 192.753 216.241 192.796C216.234 192.838 216.219 192.879 216.197 192.915C216.174 192.951 216.144 192.983 216.109 193.007C216.074 193.032 216.034 193.049 215.992 193.057H215.919Z" fill="white"/>
<path d="M214.271 174.893C214.193 174.891 214.118 174.863 214.058 174.812C214.025 174.784 213.998 174.751 213.978 174.712C213.958 174.674 213.946 174.632 213.942 174.589C213.939 174.546 213.944 174.502 213.958 174.461C213.972 174.42 213.993 174.382 214.022 174.35C214.058 174.313 217.223 170.559 216.695 166.621C216.69 166.578 216.693 166.535 216.705 166.494C216.716 166.453 216.735 166.414 216.761 166.381C216.788 166.347 216.82 166.319 216.857 166.298C216.894 166.277 216.935 166.263 216.977 166.258C217.02 166.252 217.063 166.255 217.104 166.267C217.145 166.278 217.183 166.297 217.217 166.324C217.251 166.35 217.279 166.382 217.3 166.42C217.321 166.457 217.335 166.498 217.34 166.54C217.904 170.764 214.652 174.607 214.513 174.775C214.483 174.811 214.446 174.84 214.405 174.86C214.363 174.881 214.317 174.892 214.271 174.893Z" fill="white"/>
</svg>
