<svg width="300" height="224" viewBox="0 0 300 224" fill="none" xmlns="http://www.w3.org/2000/svg">
<path d="M158.138 191.535C181.913 191.535 201.188 189.7 201.188 187.436C201.188 185.172 181.913 183.337 158.138 183.337C134.362 183.337 115.088 185.172 115.088 187.436C115.088 189.7 134.362 191.535 158.138 191.535Z" fill="#D1D3D4"/>
<path d="M144.735 174.227H171.54L174.75 161.407H141.518L144.735 174.227Z" fill="white"/>
<path d="M171.54 174.601H144.75C144.666 174.6 144.584 174.572 144.518 174.521C144.452 174.469 144.404 174.398 144.382 174.317L141.172 161.497C141.157 161.442 141.155 161.384 141.167 161.328C141.179 161.272 141.204 161.22 141.24 161.176C141.275 161.131 141.319 161.095 141.37 161.071C141.42 161.046 141.476 161.033 141.532 161.034H174.75C174.808 161.033 174.864 161.046 174.916 161.07C174.968 161.095 175.014 161.131 175.05 161.176C175.085 161.221 175.109 161.273 175.12 161.328C175.132 161.384 175.131 161.441 175.118 161.497L171.9 174.317C171.881 174.398 171.835 174.47 171.77 174.522C171.705 174.573 171.623 174.601 171.54 174.601ZM145.027 173.854H171.278L174.278 161.78H142.027L145.027 173.854Z" fill="#231F20"/>
<path d="M188.183 121.393C188.183 121.393 202.223 130.137 207.105 144.704C211.988 159.271 200.858 187.413 200.858 187.413L175.305 159.831L188.183 121.393Z" fill="white"/>
<path d="M200.858 187.809C200.806 187.808 200.755 187.797 200.709 187.775C200.662 187.753 200.621 187.721 200.588 187.682L175.028 160.108C174.984 160.057 174.953 159.997 174.939 159.931C174.925 159.866 174.927 159.799 174.945 159.734L187.823 121.281C187.841 121.227 187.872 121.177 187.912 121.136C187.952 121.094 188.001 121.062 188.055 121.042C188.105 121.018 188.161 121.006 188.216 121.006C188.272 121.006 188.327 121.018 188.378 121.042C188.52 121.132 202.628 130.002 207.458 144.547C209.505 150.655 209.07 159.749 206.175 171.584C204.841 176.994 203.183 182.32 201.21 187.533C201.188 187.592 201.151 187.644 201.102 187.685C201.053 187.725 200.995 187.753 200.933 187.764L200.858 187.809ZM175.733 159.787L200.723 186.756C202.223 182.724 211.148 157.987 206.723 144.846C202.41 131.951 190.68 123.558 188.355 121.998L175.733 159.787Z" fill="#231F20"/>
<path d="M127.44 121.393C127.44 121.393 113.393 130.137 108.518 144.704C103.643 159.271 114.75 187.413 114.75 187.413L140.31 159.831L127.44 121.393Z" fill="white"/>
<path d="M114.75 187.809H114.683C114.62 187.798 114.562 187.77 114.513 187.73C114.465 187.689 114.427 187.637 114.405 187.578C112.432 182.365 110.774 177.039 109.44 171.629C106.538 159.794 106.11 150.722 108.158 144.592C113.018 130.069 127.095 121.177 127.238 121.087C127.288 121.063 127.343 121.051 127.399 121.051C127.455 121.051 127.51 121.063 127.56 121.087C127.614 121.107 127.663 121.139 127.703 121.18C127.744 121.222 127.774 121.271 127.793 121.326L140.663 159.779C140.684 159.843 140.688 159.91 140.675 159.976C140.662 160.041 140.632 160.102 140.588 160.153L115.028 187.727C114.99 187.759 114.945 187.783 114.897 187.797C114.85 187.811 114.8 187.815 114.75 187.809ZM127.23 121.975C124.913 123.536 113.183 131.929 108.863 144.823C104.46 157.965 113.363 182.702 114.863 186.734L139.89 159.787L127.23 121.975Z" fill="#231F20"/>
<path d="M135.18 166.26C128.19 149.625 123.802 125.507 123.802 98.672C123.802 58.0086 146.302 36.8331 154.89 30.255C155.819 29.5399 156.96 29.152 158.134 29.152C159.308 29.152 160.449 29.5399 161.378 30.255C169.943 36.8331 192.473 58.0086 192.473 98.672C192.473 125.507 188.078 149.625 181.095 166.26C181.095 166.26 174.135 169.755 158.138 169.755C142.14 169.755 135.18 166.26 135.18 166.26Z" fill="white"/>
<path d="M158.138 170.128C142.23 170.128 135.3 166.738 135.008 166.596C134.929 166.558 134.867 166.491 134.835 166.41C127.583 149.139 123.428 124.447 123.428 98.672C123.428 58.3147 145.268 37.1766 154.658 29.9787C155.655 29.2164 156.877 28.8032 158.134 28.8032C159.391 28.8032 160.613 29.2164 161.61 29.9787C171 37.199 192.848 58.352 192.848 98.672C192.848 124.447 188.685 149.139 181.44 166.41C181.405 166.492 181.341 166.558 181.26 166.596C180.975 166.738 174.038 170.128 158.138 170.128ZM135.473 165.984C136.463 166.432 143.558 169.381 158.138 169.381C172.718 169.381 179.813 166.432 180.803 165.984C187.98 148.811 192.098 124.29 192.098 98.672C192.098 58.6507 170.453 37.6992 161.153 30.5536C160.292 29.8961 159.237 29.5396 158.153 29.5396C157.068 29.5396 156.013 29.8961 155.153 30.5536C145.845 37.6992 124.208 58.6432 124.208 98.672C124.178 124.29 128.288 148.811 135.473 165.984Z" fill="#231F20"/>
<path d="M161.378 30.255C171.878 38.5875 180.091 49.4295 185.25 61.7718H131.01C136.172 49.4287 144.387 38.5865 154.89 30.255C155.819 29.5399 156.96 29.152 158.134 29.152C159.308 29.152 160.449 29.5399 161.378 30.255Z" fill="white"/>
<path d="M185.25 62.1451H131.01C130.947 62.145 130.886 62.1292 130.831 62.0992C130.776 62.0692 130.729 62.0259 130.695 61.9734C130.666 61.9196 130.65 61.8592 130.65 61.7979C130.65 61.7366 130.666 61.6762 130.695 61.6224C138 44.5014 148.868 34.4363 154.695 29.9563C155.692 29.194 156.914 28.7808 158.171 28.7808C159.428 28.7808 160.65 29.194 161.648 29.9563C167.475 34.4363 178.343 44.5014 185.648 61.6224C185.677 61.6762 185.693 61.7366 185.693 61.7979C185.693 61.8592 185.677 61.9196 185.648 61.9734C185.607 62.0394 185.547 62.0914 185.476 62.1222C185.405 62.1529 185.326 62.1609 185.25 62.1451ZM131.565 61.3984H184.68C177.443 44.7478 166.845 34.9366 161.138 30.5536C160.277 29.8961 159.222 29.5396 158.138 29.5396C157.053 29.5396 155.998 29.8961 155.138 30.5536C149.408 34.9366 138.81 44.7478 131.58 61.3984H131.565Z" fill="#231F20"/>
<path d="M148.403 107.311H165.188V121.498C165.188 122.171 164.919 122.817 164.441 123.293C163.962 123.769 163.314 124.036 162.638 124.036H150.953C150.276 124.036 149.628 123.769 149.149 123.293C148.671 122.817 148.403 122.171 148.403 121.498V107.311Z" fill="white"/>
<path d="M162.63 124.395H150.953C150.176 124.393 149.432 124.084 148.884 123.537C148.336 122.99 148.028 122.248 148.028 121.475V107.289C148.028 107.19 148.067 107.095 148.137 107.025C148.208 106.955 148.303 106.915 148.403 106.915H165.188C165.287 106.915 165.382 106.955 165.453 107.025C165.523 107.095 165.563 107.19 165.563 107.289V121.475C165.563 122.25 165.254 122.992 164.704 123.54C164.154 124.087 163.408 124.395 162.63 124.395ZM148.778 107.684V121.475C148.778 122.05 149.007 122.602 149.414 123.009C149.822 123.416 150.375 123.646 150.953 123.648H162.63C163.208 123.646 163.762 123.417 164.171 123.009C164.58 122.602 164.811 122.051 164.813 121.475V107.684H148.778Z" fill="#231F20"/>
<path d="M156.795 112.851C168.36 112.851 177.735 103.518 177.735 92.0043C177.735 80.4908 168.36 71.1573 156.795 71.1573C145.23 71.1573 135.855 80.4908 135.855 92.0043C135.855 103.518 145.23 112.851 156.795 112.851Z" fill="white"/>
<path d="M156.795 113.225C152.577 113.226 148.454 111.982 144.947 109.651C141.439 107.319 138.705 104.004 137.09 100.126C135.475 96.2468 135.052 91.9784 135.874 87.8601C136.696 83.7418 138.726 79.9587 141.708 76.9892C144.689 74.0197 148.489 71.9972 152.625 71.1775C156.761 70.3579 161.049 70.7778 164.946 72.3843C168.842 73.9907 172.173 76.7115 174.516 80.2026C176.859 83.6936 178.11 87.7981 178.11 91.9968C178.104 97.6237 175.857 103.018 171.861 106.998C167.865 110.977 162.447 113.217 156.795 113.225ZM156.795 71.5232C152.725 71.5218 148.747 72.7219 145.363 74.9718C141.978 77.2217 139.34 80.4204 137.782 84.1631C136.224 87.9058 135.816 92.0245 136.61 95.9981C137.403 99.9718 139.363 103.622 142.241 106.487C145.118 109.351 148.784 111.302 152.776 112.092C156.767 112.882 160.904 112.476 164.664 110.925C168.423 109.374 171.636 106.748 173.896 103.378C176.156 100.009 177.361 96.0483 177.36 91.9968C177.352 86.5693 175.183 81.3664 171.328 77.5285C167.473 73.6907 162.247 71.5311 156.795 71.5232Z" fill="#231F20"/>
<path d="M156.795 104.869C163.932 104.869 169.718 99.1095 169.718 92.0043C169.718 84.8991 163.932 79.1392 156.795 79.1392C149.658 79.1392 143.873 84.8991 143.873 92.0043C143.873 99.1095 149.658 104.869 156.795 104.869Z" fill="#231F20"/>
<path d="M156.795 105.235C154.165 105.237 151.593 104.462 149.405 103.008C147.218 101.554 145.512 99.487 144.504 97.0681C143.497 94.6493 143.232 91.9872 143.745 89.4187C144.257 86.8502 145.523 84.4907 147.382 82.6385C149.241 80.7863 151.611 79.5248 154.191 79.0133C156.77 78.5019 159.444 78.7637 161.874 79.7654C164.305 80.7672 166.382 82.464 167.843 84.6412C169.305 86.8184 170.085 89.3782 170.085 91.9968C170.081 95.5054 168.68 98.8692 166.189 101.351C163.697 103.832 160.319 105.229 156.795 105.235ZM156.795 79.5126C154.313 79.5111 151.886 80.2426 149.821 81.6147C147.757 82.9867 146.147 84.9376 145.197 87.2205C144.246 89.5033 143.997 92.0156 144.481 94.4395C144.965 96.8633 146.16 99.0898 147.915 100.837C149.67 102.585 151.907 103.775 154.341 104.256C156.776 104.738 159.3 104.49 161.593 103.544C163.886 102.597 165.845 100.995 167.223 98.9397C168.602 96.8843 169.336 94.4681 169.335 91.9968C169.331 88.687 168.009 85.5139 165.658 83.1735C163.307 80.8331 160.12 79.5165 156.795 79.5126Z" fill="#231F20"/>
<path d="M146.543 91.1829H146.49C146.442 91.1765 146.395 91.1606 146.353 91.136C146.31 91.1114 146.274 91.0787 146.244 91.0397C146.215 91.0008 146.194 90.9564 146.182 90.9092C146.17 90.862 146.168 90.8129 146.175 90.7648C147.623 80.864 156.75 81.3867 156.818 81.3867C156.917 81.3936 157.01 81.4396 157.075 81.5145C157.14 81.5894 157.173 81.6871 157.166 81.7861C157.159 81.8851 157.113 81.9774 157.038 82.0425C156.963 82.1076 156.864 82.1403 156.765 82.1333C156.42 82.1333 148.26 81.6853 146.91 90.8917C146.891 90.9747 146.845 91.0487 146.778 91.1017C146.711 91.1546 146.628 91.1833 146.543 91.1829Z" fill="white"/>
<path d="M161.348 83.343C161.263 83.3419 161.181 83.313 161.115 83.2608C160.538 82.8483 159.873 82.5748 159.173 82.4619C159.074 82.4489 158.985 82.3976 158.924 82.3192C158.864 82.2408 158.837 82.1418 158.85 82.0438C158.865 81.9466 158.917 81.859 158.995 81.7992C159.073 81.7393 159.172 81.7119 159.27 81.7227C160.102 81.853 160.891 82.178 161.573 82.671C161.651 82.7315 161.702 82.8204 161.715 82.9184C161.727 83.0164 161.701 83.1153 161.64 83.1936C161.606 83.239 161.562 83.276 161.511 83.3019C161.46 83.3278 161.405 83.3418 161.348 83.343Z" fill="white"/>
<path d="M137.715 160.474C137.637 160.474 137.56 160.45 137.497 160.404C137.434 160.359 137.386 160.294 137.363 160.22C133.721 148.737 130.783 137.045 128.565 125.209C128.547 125.112 128.569 125.012 128.625 124.93C128.682 124.849 128.768 124.794 128.865 124.775C128.913 124.766 128.963 124.766 129.011 124.776C129.06 124.786 129.106 124.805 129.146 124.833C129.187 124.861 129.221 124.897 129.248 124.938C129.274 124.979 129.292 125.026 129.3 125.074C131.512 136.875 134.44 148.532 138.068 159.981C138.099 160.074 138.092 160.175 138.048 160.264C138.005 160.352 137.928 160.419 137.835 160.451L137.715 160.474Z" fill="white"/>
<path d="M148.403 119.467C148.403 119.123 165.188 119.467 165.188 119.467H148.403Z" fill="white"/>
<path d="M165.188 119.87C159.233 119.75 149.588 119.624 148.605 119.818C148.525 119.877 148.425 119.903 148.327 119.889C148.229 119.875 148.14 119.822 148.08 119.743C148.02 119.664 147.995 119.564 148.009 119.466C148.023 119.368 148.075 119.28 148.155 119.22C148.297 119.078 148.598 118.787 165.203 119.123C165.302 119.123 165.397 119.163 165.468 119.233C165.538 119.303 165.578 119.398 165.578 119.497C165.578 119.596 165.538 119.691 165.468 119.761C165.397 119.831 165.302 119.87 165.203 119.87H165.188Z" fill="#231F20"/>
<path d="M148.403 115.733C148.403 115.39 165.188 115.733 165.188 115.733H148.403Z" fill="white"/>
<path d="M165.187 116.114C159.232 115.995 149.588 115.875 148.605 116.062C148.525 116.121 148.425 116.147 148.327 116.133C148.229 116.119 148.14 116.066 148.08 115.987C148.02 115.908 147.995 115.808 148.009 115.71C148.023 115.612 148.075 115.524 148.155 115.465C148.297 115.323 148.598 115.032 165.202 115.368C165.301 115.373 165.393 115.416 165.461 115.486C165.529 115.557 165.568 115.65 165.57 115.748C165.566 115.847 165.524 115.94 165.453 116.008C165.381 116.076 165.286 116.114 165.187 116.114Z" fill="#231F20"/>
<path d="M150 123.835H163.298C163.298 124.581 163 125.297 162.469 125.825C161.939 126.353 161.22 126.65 160.47 126.65H152.828C152.078 126.65 151.358 126.353 150.828 125.825C150.298 125.297 150 124.581 150 123.835Z" fill="#231F20"/>
<path d="M160.5 127.023H152.828C151.978 127.023 151.164 126.687 150.563 126.089C149.962 125.491 149.625 124.68 149.625 123.835C149.625 123.736 149.665 123.641 149.735 123.571C149.805 123.501 149.901 123.461 150 123.461H163.298C163.397 123.461 163.492 123.501 163.563 123.571C163.633 123.641 163.673 123.736 163.673 123.835C163.673 124.675 163.339 125.482 162.745 126.079C162.151 126.676 161.344 127.015 160.5 127.023ZM150.435 124.208C150.524 124.784 150.818 125.309 151.262 125.688C151.706 126.067 152.272 126.276 152.858 126.276H160.5C161.085 126.276 161.651 126.067 162.095 125.688C162.54 125.309 162.833 124.784 162.923 124.208H150.435Z" fill="#231F20"/>
<path d="M136.133 152.91C136.133 152.91 145.973 154.261 149.475 153.813L150.045 161.579C150.045 161.579 139.305 161.437 136.59 160.085L136.133 152.91Z" fill="white"/>
<path d="M150.045 161.96C149.603 161.96 139.185 161.803 136.425 160.466C136.363 160.438 136.31 160.393 136.271 160.336C136.233 160.279 136.211 160.213 136.208 160.145L135.758 152.955C135.754 152.898 135.763 152.841 135.784 152.789C135.805 152.736 135.837 152.688 135.878 152.649C135.919 152.61 135.97 152.581 136.024 152.565C136.079 152.548 136.136 152.543 136.193 152.552C136.298 152.552 146.018 153.888 149.438 153.448C149.49 153.442 149.543 153.446 149.593 153.462C149.644 153.477 149.69 153.503 149.73 153.537C149.771 153.57 149.804 153.611 149.829 153.657C149.853 153.703 149.868 153.754 149.873 153.806L150.435 161.571C150.439 161.624 150.432 161.678 150.414 161.728C150.396 161.778 150.367 161.824 150.33 161.862C150.291 161.897 150.246 161.923 150.197 161.939C150.148 161.956 150.097 161.963 150.045 161.96ZM136.958 159.846C139.523 160.907 147.675 161.138 149.625 161.183L149.123 154.232C145.778 154.515 138.488 153.612 136.553 153.35L136.958 159.846Z" fill="#D1D3D4"/>
<path d="M62.1151 162.348C62.9906 163.9 64.3563 165.12 66.0001 165.82C67.3951 166.402 69.0001 166.245 70.4476 166.566C74.5951 167.395 78.7951 166.813 82.8226 165.648C86.8501 164.483 91.2301 162.497 93.3226 158.734C94.1215 157.241 94.5224 155.568 94.4869 153.877C94.4515 152.185 93.9809 150.531 93.1201 149.072C92.4676 147.997 91.6201 147.064 90.9226 146.018C89.8848 144.315 89.0849 142.478 88.5451 140.56C87.4651 137.17 86.6326 133.4 84.7951 130.316C84.4012 129.728 83.8942 129.223 83.3034 128.831C82.7125 128.438 82.0495 128.167 81.3526 128.031C80.9476 127.926 76.9651 128.091 77.1526 128.337C76.3276 127.247 74.6101 127.59 73.4026 128.195C69.8623 129.96 67.1663 133.046 65.9026 136.782C64.8151 140.037 64.8976 143.569 64.1026 146.907C63.4801 149.513 62.3401 151.962 61.6651 154.553C60.9901 157.144 60.8326 159.996 62.1151 162.348Z" fill="white"/>
<path d="M74.505 167.306C73.1253 167.308 71.7486 167.176 70.395 166.91C69.8473 166.808 69.2937 166.741 68.7375 166.708C67.7616 166.682 66.7965 166.498 65.88 166.163C64.1465 165.439 62.7054 164.159 61.785 162.527C60.6225 160.399 60.465 157.674 61.305 154.433C61.635 153.194 62.055 151.977 62.4825 150.789C62.9781 149.482 63.4013 148.148 63.75 146.795C64.0645 145.368 64.2974 143.925 64.4475 142.471C64.6188 140.496 64.9882 138.542 65.55 136.64C66.8371 132.815 69.5892 129.652 73.2075 127.837C74.475 127.21 76.2075 126.866 77.2425 127.837C78.632 127.628 80.0387 127.555 81.4425 127.62C82.1879 127.767 82.8964 128.06 83.5262 128.484C84.156 128.907 84.6945 129.451 85.11 130.084C86.4533 132.59 87.4811 135.25 88.17 138.006C88.41 138.813 88.6425 139.619 88.92 140.403C89.45 142.29 90.2347 144.095 91.2525 145.772C91.5525 146.22 91.8975 146.668 92.22 147.093C92.6638 147.651 93.0769 148.231 93.4575 148.833C94.3544 150.347 94.8448 152.066 94.8816 153.823C94.9184 155.581 94.5003 157.318 93.6675 158.868C91.905 162.071 88.4175 164.394 82.9725 165.962C80.228 166.806 77.3771 167.258 74.505 167.306ZM75.5175 127.971C74.8288 128.001 74.1552 128.182 73.545 128.501C70.1029 130.229 67.4855 133.24 66.2625 136.879C65.7155 138.733 65.3537 140.636 65.1825 142.561C65.0287 144.041 64.7934 145.512 64.4775 146.966C64.1225 148.347 63.6944 149.708 63.195 151.043C62.775 152.208 62.3475 153.41 62.0325 154.62C61.485 156.718 61.1175 159.727 62.445 162.176C63.2902 163.662 64.6102 164.823 66.195 165.476C67.041 165.777 67.9294 165.944 68.8275 165.969C69.4113 166.002 69.9925 166.072 70.5675 166.178C74.16 166.925 78.15 166.596 82.7625 165.267C88.0125 163.774 91.35 161.534 93.015 158.547C93.7859 157.112 94.1723 155.504 94.1369 153.877C94.1014 152.25 93.6453 150.659 92.8125 149.259C92.4484 148.68 92.0528 148.122 91.6275 147.586C91.29 147.146 90.945 146.69 90.63 146.22C89.5717 144.486 88.7543 142.617 88.2 140.665C87.9525 139.873 87.7125 139.067 87.45 138.253C86.7733 135.557 85.7657 132.954 84.45 130.502C84.0835 129.954 83.6108 129.484 83.0596 129.12C82.5085 128.756 81.8898 128.505 81.24 128.382C79.9593 128.34 78.6773 128.405 77.4075 128.576C77.3961 128.597 77.3774 128.613 77.355 128.621C77.2764 128.681 77.1769 128.708 77.0785 128.695C76.9801 128.683 76.8908 128.632 76.83 128.554C76.6737 128.359 76.473 128.205 76.2447 128.104C76.0164 128.003 75.7671 127.957 75.5175 127.971Z" fill="#231F20"/>
<path d="M94.7101 188.026C95.4601 188.026 100.973 188.623 103.553 189.9C106.133 191.177 106.695 191.274 106.17 192.998C105.645 194.723 101.1 195.149 97.6351 194.492C95.4056 194.038 93.2552 193.26 91.2526 192.185L94.7101 188.026Z" fill="white"/>
<path d="M100.822 195.119C99.7337 195.12 98.6469 195.025 97.575 194.835C95.3057 194.373 93.1173 193.58 91.08 192.483C91.037 192.458 91 192.424 90.9716 192.383C90.9432 192.342 90.9241 192.295 90.9155 192.246C90.9069 192.197 90.9092 192.147 90.922 192.099C90.9349 192.051 90.9581 192.006 90.99 191.968L94.4475 187.809C94.477 187.769 94.5154 187.737 94.5597 187.715C94.6041 187.693 94.653 187.682 94.7025 187.682C95.505 187.682 101.062 188.287 103.702 189.594L104.287 189.877C106.365 190.893 107.062 191.236 106.5 193.103C106.065 194.551 103.455 195.119 100.822 195.119ZM91.785 192.087C93.6537 193.044 95.6445 193.742 97.7025 194.163C101.407 194.858 105.442 194.238 105.847 192.901C106.252 191.565 106.072 191.513 103.987 190.49L103.402 190.206C101.032 189.034 96.0225 188.414 94.8675 188.369L91.785 192.087Z" fill="#231F20"/>
<path d="M95.4525 188.011C95.9403 188.127 96.3659 188.422 96.6441 188.838C96.9223 189.253 97.0325 189.758 96.9525 190.251C96.705 192.08 92.82 192.155 92.595 192.162C92.37 192.17 95.4525 188.011 95.4525 188.011Z" fill="white"/>
<path d="M92.5876 192.506C92.5223 192.505 92.4585 192.486 92.4031 192.452C92.3476 192.418 92.3025 192.369 92.2726 192.312C92.1526 192.088 92.0926 191.961 95.1751 187.831C95.2143 187.777 95.2686 187.736 95.3312 187.712C95.3938 187.688 95.462 187.683 95.5276 187.697C96.1001 187.83 96.6004 188.174 96.9265 188.661C97.2526 189.148 97.3799 189.741 97.2826 190.318C97.0126 192.334 93.3301 192.513 92.5951 192.558L92.5876 192.506ZM95.5876 188.406C94.6276 189.706 93.6376 191.087 93.1726 191.796C94.5901 191.684 96.4726 191.266 96.6076 190.206C96.6802 189.833 96.6165 189.447 96.4281 189.117C96.2397 188.787 95.9389 188.535 95.5801 188.406H95.5876Z" fill="#231F20"/>
<path d="M66.6301 192.199C66.5101 192.259 65.4601 193.626 60.8476 194.178C56.2351 194.731 54.5251 195.709 53.4976 193.297C52.4701 190.885 53.1751 189.332 55.4476 188.645C57.7201 187.958 63.9826 187.383 65.1976 188.533C66.4126 189.683 66.6301 192.199 66.6301 192.199Z" fill="white"/>
<path d="M55.77 195.186C55.2022 195.233 54.6355 195.084 54.1646 194.764C53.6937 194.445 53.3471 193.975 53.1825 193.432C52.9118 192.925 52.7518 192.367 52.713 191.794C52.6742 191.222 52.7576 190.647 52.9575 190.109C53.2046 189.657 53.546 189.264 53.9587 188.955C54.3714 188.646 54.8458 188.428 55.35 188.317C57.6 187.645 64.0575 186.988 65.445 188.317C66.8325 189.646 66.945 192.095 66.945 192.207C66.9497 192.266 66.9391 192.325 66.9141 192.379C66.8892 192.432 66.8507 192.479 66.8025 192.513C65.3925 193.782 62.805 194.313 60.8625 194.544C59.8725 194.664 59.025 194.798 58.275 194.917C57.448 195.07 56.6106 195.16 55.77 195.186ZM61.77 188.212C59.6697 188.207 57.5766 188.457 55.5375 188.959C55.1282 189.05 54.7425 189.225 54.4054 189.473C54.0682 189.721 53.787 190.037 53.58 190.4C53.4214 190.852 53.36 191.333 53.4001 191.81C53.4402 192.287 53.5807 192.751 53.8125 193.17C54.4875 194.738 55.3125 194.664 58.185 194.216C58.935 194.096 59.805 193.954 60.81 193.835C62.6175 193.618 65.0175 193.14 66.27 192.058C66.2025 191.498 65.9175 189.668 64.9725 188.787C64.5375 188.377 63.2775 188.212 61.7775 188.212H61.77Z" fill="#231F20"/>
<path d="M68.1 191.214C68.1 191.214 66.0075 192.954 64.6125 192.752C63.2175 192.55 61.29 191.789 62.07 190.288C62.85 188.787 67.8375 187.891 67.8375 187.891L68.1 191.214Z" fill="white"/>
<path d="M64.845 193.103C64.7502 193.11 64.6549 193.11 64.56 193.103C64.035 193.021 62.2575 192.685 61.7025 191.61C61.5842 191.376 61.5276 191.117 61.5381 190.855C61.5486 190.594 61.6258 190.34 61.7625 190.116C62.595 188.511 67.2525 187.63 67.7625 187.54C67.8094 187.533 67.8574 187.535 67.9034 187.547C67.9495 187.558 67.9927 187.579 68.0305 187.607C68.0684 187.636 68.1 187.672 68.1235 187.713C68.1471 187.754 68.162 187.799 68.1675 187.846L68.4225 191.177C68.4287 191.23 68.4209 191.284 68.3999 191.334C68.3789 191.384 68.3453 191.427 68.3025 191.46C68.25 191.55 66.3375 193.103 64.845 193.103ZM67.5 188.294C65.955 188.608 62.8725 189.422 62.34 190.445C62.2609 190.57 62.2147 190.713 62.2055 190.86C62.1963 191.007 62.2245 191.155 62.2875 191.289C62.61 191.908 63.7875 192.282 64.635 192.409C65.4825 192.535 67.065 191.572 67.71 191.065L67.5 188.294Z" fill="#231F20"/>
<path d="M93.225 176.617C93.225 176.617 91.02 185.173 82.9725 186.816C74.925 188.459 70.7625 188.018 67.9125 182.612C65.0625 177.206 66.945 173.891 66.945 173.891L92.34 173.391L93.225 176.617Z" fill="#231F20"/>
<path d="M76.3126 188.033C72.3451 188.033 69.6151 186.652 67.5751 182.806C64.6651 177.281 66.5401 173.846 66.6226 173.734C66.6531 173.677 66.6983 173.629 66.7537 173.595C66.809 173.561 66.8725 173.542 66.9376 173.54L92.3326 173.04C92.4158 173.043 92.4961 173.071 92.563 173.12C92.63 173.17 92.6804 173.238 92.7076 173.316L93.5851 176.542C93.6 176.603 93.6 176.667 93.5851 176.729C93.5851 176.818 91.2301 185.539 83.0851 187.182C80.8609 187.685 78.5926 187.97 76.3126 188.033ZM67.1851 174.265C66.8701 175.011 65.9026 177.998 68.2426 182.433C71.0701 187.802 75.2251 188.011 82.8976 186.45C90.1726 184.957 92.5651 177.49 92.8351 176.617L92.0851 173.772L67.1851 174.265Z" fill="#231F20"/>
<path d="M65.0326 176.691C65.0326 176.691 60.8701 163.303 61.4176 154.918C61.9651 146.533 67.5001 145.906 69.3676 145.749C71.2351 145.593 81.3676 144.047 85.1626 148.482C88.9576 152.917 95.6101 173.69 95.6101 173.69L65.0326 176.691Z" fill="#68E1FD"/>
<path d="M80.0626 145.772L79.4026 150.252C78.9564 150.924 78.2788 151.412 77.4971 151.622C76.7154 151.832 75.8834 151.751 75.1576 151.394C72.3151 150.222 72.2626 148.064 72.2626 148.064L73.6126 139.783C75.7226 137.633 77.192 134.943 77.8576 132.011C77.8576 132.011 80.3626 136.364 83.9926 137.342C83.8618 139.315 83.5632 141.273 83.1001 143.196C82.5001 145.361 80.1076 145.749 80.0626 145.772Z" fill="white"/>
<path d="M76.6951 152.104C76.1136 152.096 75.5397 151.971 75.0076 151.738C72.0076 150.491 71.8951 148.169 71.8876 148.072L73.2376 139.724C73.2547 139.641 73.2966 139.566 73.3576 139.507C75.4079 137.404 76.8375 134.779 77.4901 131.921C77.508 131.849 77.5477 131.783 77.6041 131.734C77.6604 131.684 77.7305 131.653 77.8051 131.645C77.8784 131.635 77.9531 131.646 78.0198 131.678C78.0866 131.71 78.1423 131.761 78.1801 131.824C78.1801 131.869 80.6551 136.058 84.0901 136.976C84.1738 137 84.2469 137.051 84.2974 137.122C84.3478 137.192 84.3726 137.278 84.3676 137.364C84.236 139.365 83.9324 141.351 83.4601 143.3C83.2381 143.988 82.8386 144.606 82.3017 145.092C81.7647 145.578 81.109 145.916 80.4001 146.07L79.7776 150.312C79.7714 150.36 79.7533 150.406 79.7251 150.446C79.3907 150.944 78.9408 151.355 78.4134 151.643C77.886 151.932 77.2967 152.09 76.6951 152.104ZM73.9576 139.97L72.6376 148.124C72.6376 148.124 72.7426 149.998 75.3001 151.051C75.9332 151.371 76.6612 151.453 77.3502 151.281C78.0392 151.11 78.6428 150.697 79.0501 150.117L79.6876 145.72C79.6987 145.664 79.721 145.612 79.7533 145.566C79.7855 145.519 79.827 145.48 79.8751 145.451L80.0251 145.398C80.6435 145.291 81.2217 145.02 81.6992 144.614C82.1767 144.208 82.5362 143.682 82.7401 143.091C83.1781 141.291 83.4641 139.458 83.5951 137.611C80.8951 136.745 78.8701 134.191 78.0001 132.929C77.261 135.574 75.8717 137.994 73.9576 139.97Z" fill="#231F20"/>
<path d="M75.36 139.91C75.3238 139.492 75.1528 139.097 74.8725 138.783C74.5962 138.504 74.274 138.274 73.92 138.103C73.7351 137.991 73.5278 137.92 73.3125 137.894C73.1605 137.895 73.01 137.925 72.87 137.984C72.5288 138.089 72.2363 138.311 72.045 138.611C71.9198 138.872 71.8606 139.159 71.8725 139.447C71.8583 139.758 71.886 140.07 71.955 140.373C72.0319 140.676 72.1682 140.96 72.3561 141.209C72.5439 141.459 72.7796 141.669 73.0495 141.827C73.3195 141.986 73.6182 142.089 73.9285 142.132C74.2389 142.174 74.5546 142.155 74.8575 142.076" fill="white"/>
<path d="M74.25 142.524C73.6385 142.527 73.0437 142.325 72.5609 141.952C72.0781 141.578 71.7353 141.054 71.5875 140.463C71.5087 140.128 71.4759 139.784 71.49 139.44C71.4805 139.092 71.5551 138.746 71.7075 138.432C71.944 138.047 72.3154 137.762 72.75 137.633C72.936 137.559 73.1346 137.521 73.335 137.521C73.6003 137.552 73.8559 137.638 74.085 137.775C74.4742 137.964 74.8291 138.216 75.135 138.522C75.4724 138.894 75.6779 139.366 75.72 139.866C75.7239 139.915 75.7181 139.964 75.7029 140.011C75.6877 140.058 75.6634 140.101 75.6314 140.138C75.5993 140.176 75.5602 140.207 75.5162 140.229C75.4722 140.251 75.4242 140.265 75.375 140.269C75.3258 140.273 75.2762 140.267 75.2292 140.252C75.1822 140.237 75.1387 140.213 75.101 140.181C75.0634 140.149 75.0325 140.11 75.01 140.066C74.9875 140.022 74.9739 139.974 74.97 139.925C74.9391 139.589 74.7996 139.272 74.5725 139.022C74.3245 138.773 74.0353 138.568 73.7175 138.417C73.5824 138.334 73.432 138.278 73.275 138.253C73.1709 138.249 73.0676 138.272 72.975 138.32C72.72 138.394 72.4995 138.555 72.3525 138.776C72.2595 138.984 72.2159 139.212 72.225 139.44C72.211 139.718 72.2363 139.997 72.3 140.269C72.4368 140.78 72.7674 141.219 73.2225 141.493C73.677 141.753 74.2152 141.825 74.7225 141.695C74.8189 141.672 74.9204 141.687 75.0058 141.737C75.0911 141.788 75.1536 141.869 75.18 141.964C75.1936 142.011 75.1975 142.06 75.1916 142.109C75.1857 142.157 75.17 142.204 75.1455 142.247C75.121 142.289 75.0882 142.326 75.0491 142.356C75.0099 142.386 74.9652 142.407 74.9175 142.419C74.7001 142.481 74.4759 142.516 74.25 142.524Z" fill="#231F20"/>
<path d="M79.425 138.634C79.425 138.634 80.7 141.127 80.28 141.486C79.86 141.844 78.8625 141.486 78.8625 141.486" fill="white"/>
<path d="M79.755 142.009C79.4027 142.001 79.0546 141.93 78.7275 141.8C78.6781 141.785 78.6324 141.76 78.5931 141.726C78.5539 141.693 78.522 141.652 78.4994 141.606C78.4768 141.56 78.464 141.509 78.4619 141.458C78.4597 141.407 78.4682 141.355 78.4868 141.308C78.5055 141.26 78.5338 141.216 78.5701 141.18C78.6064 141.143 78.6499 141.114 78.6978 141.095C78.7458 141.076 78.7971 141.068 78.8487 141.069C78.9002 141.071 78.9509 141.083 78.9975 141.105C79.3085 141.241 79.6521 141.285 79.9875 141.232C79.8228 140.381 79.5215 139.561 79.095 138.805C79.0684 138.761 79.0512 138.712 79.0445 138.662C79.0378 138.611 79.0417 138.559 79.056 138.51C79.0702 138.46 79.0946 138.414 79.1275 138.375C79.1603 138.335 79.2011 138.303 79.2471 138.28C79.2931 138.257 79.3434 138.243 79.3949 138.24C79.4464 138.237 79.4979 138.245 79.5463 138.263C79.5947 138.281 79.6388 138.308 79.676 138.344C79.7132 138.379 79.7427 138.422 79.7625 138.469C81.165 141.225 80.685 141.635 80.5125 141.77C80.2963 141.936 80.0279 142.021 79.755 142.009Z" fill="#231F20"/>
<path d="M77.8485 138.076C77.8731 137.776 77.719 137.519 77.5043 137.502C77.2896 137.484 77.0957 137.713 77.0711 138.013C77.0465 138.313 77.2006 138.571 77.4153 138.588C77.63 138.606 77.8239 138.377 77.8485 138.076Z" fill="#231F20"/>
<path d="M81.8588 138.616C81.8812 138.316 81.7253 138.06 81.5105 138.044C81.2957 138.028 81.1034 138.259 81.081 138.559C81.0585 138.859 81.2144 139.115 81.4292 139.131C81.644 139.147 81.8363 138.917 81.8588 138.616Z" fill="#231F20"/>
<path d="M79.0951 144.002C78.5756 144.008 78.062 143.893 77.5951 143.666C77.1567 143.412 76.7848 143.059 76.5097 142.634C76.2347 142.21 76.0644 141.727 76.0126 141.225C76.0042 141.176 76.0056 141.125 76.0167 141.077C76.0278 141.028 76.0484 140.983 76.0773 140.942C76.1062 140.901 76.1429 140.867 76.1852 140.84C76.2275 140.814 76.2746 140.796 76.3238 140.788C76.3731 140.779 76.4235 140.781 76.4722 140.792C76.5209 140.803 76.5669 140.823 76.6077 140.852C76.6484 140.881 76.6831 140.917 76.7096 140.96C76.7362 141.002 76.7542 141.049 76.7626 141.098C76.7975 141.486 76.9237 141.86 77.1308 142.191C77.338 142.522 77.6203 142.8 77.9551 143.002C79.2151 143.659 81.0376 142.845 81.0526 142.837C81.1444 142.799 81.2477 142.796 81.3412 142.831C81.4346 142.866 81.5112 142.935 81.5551 143.024C81.5937 143.114 81.5957 143.216 81.5608 143.308C81.5258 143.4 81.4566 143.475 81.3676 143.517C80.6496 143.826 79.8773 143.991 79.0951 144.002Z" fill="#231F20"/>
<path d="M80.0626 145.772C80.0626 145.772 77.1676 146.011 75.6526 144.831C75.6526 144.831 76.9276 148.855 79.6126 148.848L80.0626 145.772Z" fill="#231F20"/>
<path d="M79.5975 149.221C76.6875 149.221 75.3525 145.122 75.2925 144.943C75.2716 144.866 75.2747 144.785 75.3015 144.71C75.3283 144.636 75.3775 144.571 75.4425 144.525C75.5067 144.478 75.5842 144.453 75.6637 144.453C75.7433 144.453 75.8208 144.478 75.885 144.525C77.265 145.6 80.0025 145.391 80.0325 145.384C80.0882 145.381 80.1437 145.39 80.1955 145.411C80.2472 145.431 80.294 145.463 80.3325 145.503C80.3731 145.542 80.4033 145.59 80.4204 145.644C80.4374 145.697 80.4407 145.754 80.43 145.809L79.98 148.885C79.9723 148.98 79.9282 149.068 79.8568 149.13C79.7855 149.193 79.6925 149.226 79.5975 149.221ZM76.4025 145.675C76.8975 146.713 77.865 148.251 79.29 148.452L79.6275 146.168C78.5312 146.203 77.4378 146.036 76.4025 145.675Z" fill="#231F20"/>
<path d="M64.02 147.907C61.7175 148.363 54.6075 170.994 57.8625 173.391C62.9475 177.124 78.4575 172.025 78.4575 172.025L76.905 165.364C76.905 165.364 65.7075 165.894 65.505 163.61C65.3025 161.325 71.76 150.595 70.8525 149.027C69.945 147.459 64.02 147.907 64.02 147.907Z" fill="#68E1FD"/>
<path d="M75.75 167.627C77.6131 167.701 79.4788 167.576 81.315 167.253C82.671 166.894 84.0669 166.706 85.47 166.693C87.317 166.744 89.1404 167.12 90.855 167.806C90.9275 167.828 90.9924 167.869 91.0425 167.925C91.2075 168.149 90.825 168.381 90.54 168.388C89.7999 168.423 89.0589 168.345 88.3425 168.157C90.1166 168.775 91.8011 169.624 93.3525 170.681C93.5325 170.8 93.7275 170.994 93.645 171.196C93.5625 171.397 93.21 171.36 92.9775 171.263L88.9275 169.493C89.9722 169.889 90.945 170.451 91.8075 171.158C91.9275 171.263 92.0625 171.397 92.0325 171.554C91.98 171.83 91.575 171.786 91.3275 171.666C90.0948 171.088 88.9153 170.403 87.8025 169.62L90.315 171.457C90.315 171.659 90.1425 171.83 89.94 171.845C89.7344 171.835 89.5352 171.77 89.3625 171.659L86.5725 170.121L88.32 171.293C88.5975 171.472 88.905 171.771 88.7775 172.077C88.65 172.383 88.1025 172.331 87.7425 172.181C86.3095 171.595 84.8153 171.169 83.2875 170.912C82.7541 170.747 82.2026 170.647 81.645 170.613C80.7942 170.74 79.956 170.94 79.14 171.211C77.9025 171.509 76.6575 171.823 75.39 172.137" fill="white"/>
<path d="M88.335 172.682C88.0767 172.676 87.822 172.62 87.585 172.517C86.1758 171.942 84.7068 171.523 83.205 171.27C83.01 171.27 82.8225 171.181 82.635 171.136C82.313 171.031 81.9762 170.978 81.6375 170.979C81.0745 171.033 80.5204 171.156 79.9875 171.345C79.7175 171.42 79.455 171.502 79.2 171.562L75.51 172.48C75.4661 172.492 75.4202 172.496 75.3751 172.49C75.3299 172.484 75.2864 172.469 75.2471 172.446C75.2079 172.423 75.1737 172.392 75.1467 172.356C75.1197 172.319 75.1004 172.278 75.09 172.234C75.0694 172.147 75.0838 172.055 75.13 171.978C75.1762 171.902 75.2506 171.846 75.3375 171.823L79.0875 170.89C79.335 170.83 79.5825 170.755 79.8375 170.681C80.4224 170.48 81.0291 170.35 81.645 170.292C82.0542 170.284 82.4621 170.342 82.8525 170.464C83.0245 170.518 83.1999 170.56 83.3775 170.591C84.9211 170.854 86.4304 171.287 87.8775 171.883C88.0541 171.969 88.2521 172.003 88.4475 171.98C88.4475 171.92 88.4025 171.771 88.125 171.584L86.385 170.419C86.3207 170.367 86.2775 170.293 86.2633 170.212C86.2491 170.131 86.2649 170.047 86.3077 169.976C86.3506 169.905 86.4176 169.852 86.4965 169.827C86.5755 169.801 86.661 169.805 86.7375 169.837L89.5275 171.375C89.5995 171.416 89.6747 171.451 89.7525 171.479L87.6 169.911C87.5283 169.857 87.4805 169.776 87.4666 169.687C87.4526 169.599 87.4735 169.508 87.525 169.434C87.5789 169.361 87.6596 169.312 87.7495 169.298C87.8394 169.284 87.9312 169.306 88.005 169.359C89.1001 170.128 90.2593 170.803 91.47 171.375H91.5375C90.9658 170.913 90.3445 170.514 89.685 170.188L88.7925 169.799C88.7516 169.782 88.7145 169.757 88.6833 169.726C88.6521 169.695 88.6274 169.657 88.6107 169.616C88.594 169.575 88.5856 169.532 88.5859 169.487C88.5862 169.443 88.5952 169.4 88.6125 169.359C88.646 169.277 88.7099 169.211 88.7909 169.175C88.8719 169.139 88.9638 169.135 89.0475 169.165C89.3625 169.284 89.6775 169.419 89.9775 169.568L93.105 170.919H93.165C91.6419 169.876 89.9845 169.043 88.2375 168.441C88.15 168.414 88.0767 168.354 88.0338 168.273C87.9909 168.193 87.9819 168.098 88.0087 168.011C88.0356 167.924 88.0961 167.851 88.177 167.808C88.2579 167.766 88.3525 167.757 88.44 167.783C89.1222 167.962 89.8276 168.038 90.5325 168.007C88.8984 167.389 87.1723 167.046 85.425 166.992C84.2257 166.991 83.0311 167.141 81.87 167.44L81.36 167.545C79.5117 167.896 77.631 168.048 75.75 168C75.7053 168 75.6612 167.991 75.6201 167.974C75.5791 167.956 75.542 167.931 75.5112 167.899C75.4803 167.866 75.4563 167.828 75.4407 167.787C75.425 167.745 75.4179 167.701 75.42 167.657C75.4219 167.567 75.4592 167.481 75.5236 167.419C75.5881 167.356 75.6748 167.321 75.765 167.321C77.6031 167.389 79.4433 167.264 81.255 166.947L81.765 166.843C82.9909 166.534 84.2505 166.379 85.515 166.38C87.4061 166.431 89.2728 166.818 91.0275 167.522C91.1567 167.568 91.2708 167.648 91.3575 167.754C91.417 167.829 91.4536 167.919 91.4629 168.015C91.4722 168.11 91.4538 168.206 91.41 168.291C91.3322 168.423 91.2233 168.535 91.0926 168.615C90.9619 168.696 90.8134 168.744 90.66 168.754C91.6739 169.24 92.6492 169.801 93.5775 170.434C94.14 170.815 94.05 171.181 93.99 171.353C93.9613 171.425 93.9179 171.491 93.8624 171.547C93.8069 171.602 93.7405 171.645 93.6675 171.674C93.4033 171.75 93.12 171.726 92.8725 171.606L92.3925 171.397C92.4115 171.488 92.4115 171.582 92.3925 171.674C92.3761 171.76 92.3398 171.841 92.2864 171.911C92.233 171.981 92.1641 172.038 92.085 172.077C91.9424 172.132 91.7895 172.156 91.6368 172.147C91.484 172.138 91.3351 172.096 91.2 172.025C91.02 171.942 90.8325 171.853 90.6525 171.756C90.6283 171.827 90.5901 171.893 90.54 171.95C90.4725 172.035 90.3873 172.104 90.2901 172.153C90.193 172.202 90.0863 172.23 89.9775 172.234C89.7116 172.229 89.4522 172.151 89.2275 172.01H89.1825C89.1818 172.104 89.1641 172.198 89.13 172.286C89.0941 172.374 89.0402 172.454 88.9718 172.521C88.9034 172.588 88.822 172.64 88.7325 172.674C88.6023 172.707 88.4663 172.71 88.335 172.682Z" fill="#231F20"/>
<path d="M84 150.401C84.63 151.013 86.385 160.787 87.045 165.409L84 150.401Z" fill="white"/>
<path d="M87.0375 165.76C86.9553 165.761 86.8756 165.732 86.8135 165.678C86.7513 165.624 86.711 165.55 86.7 165.469C85.95 160.362 84.285 151.282 83.7525 150.655C83.7196 150.624 83.6934 150.586 83.6755 150.544C83.6577 150.503 83.6484 150.458 83.6484 150.412C83.6484 150.367 83.6577 150.322 83.6755 150.28C83.6934 150.239 83.7196 150.201 83.7525 150.17C83.8172 150.105 83.9049 150.069 83.9963 150.069C84.0877 150.069 84.1753 150.105 84.24 150.17C85.0725 150.976 86.9775 162.497 87.3825 165.372C87.39 165.416 87.3885 165.461 87.3781 165.505C87.3677 165.548 87.3487 165.589 87.3222 165.626C87.2956 165.662 87.262 165.692 87.2235 165.715C87.1849 165.739 87.1421 165.754 87.0975 165.76H87.0375Z" fill="#231F20"/>
<path d="M70.02 174.571C69.9335 174.571 69.8497 174.541 69.7828 174.487C69.7158 174.432 69.6698 174.356 69.6525 174.272C69.6427 174.223 69.6428 174.173 69.6526 174.125C69.6624 174.076 69.6819 174.03 69.7098 173.989C69.7377 173.948 69.7736 173.913 69.8152 173.886C69.8569 173.859 69.9035 173.84 69.9525 173.831L75.0675 172.853L75.1125 167.014L65.3625 166.208C65.3071 166.202 65.2537 166.184 65.2059 166.156C65.158 166.127 65.1168 166.089 65.085 166.044C65.0547 165.999 65.0343 165.949 65.0252 165.896C65.0162 165.844 65.0187 165.789 65.0325 165.738L69.12 150.588C69.1463 150.493 69.2091 150.412 69.2948 150.363C69.3804 150.315 69.482 150.301 69.5775 150.326C69.6257 150.338 69.6711 150.358 69.7109 150.388C69.7506 150.417 69.7838 150.454 69.8084 150.497C69.8331 150.54 69.8486 150.587 69.854 150.636C69.8595 150.685 69.8547 150.735 69.84 150.782L65.8725 165.499L75.5325 166.298C75.6267 166.305 75.7145 166.348 75.7785 166.417C75.8424 166.486 75.8778 166.577 75.8775 166.671L75.8325 173.159C75.8322 173.247 75.8012 173.331 75.7451 173.398C75.6889 173.465 75.6111 173.51 75.525 173.525L70.11 174.563L70.02 174.571Z" fill="#231F20"/>
<path d="M100.185 176.139L104.903 163.572L85.6351 163.953L81.3151 178.289L100.185 176.139Z" fill="white"/>
<path d="M81.3151 178.655C81.2605 178.655 81.2066 178.643 81.1573 178.62C81.1081 178.597 81.0646 178.563 81.0301 178.521C80.9908 178.474 80.9634 178.418 80.9504 178.358C80.9373 178.298 80.9389 178.236 80.9551 178.177L85.2751 163.849C85.2984 163.773 85.3449 163.706 85.4081 163.658C85.4713 163.61 85.548 163.582 85.6276 163.58L104.895 163.199C104.956 163.199 105.017 163.213 105.071 163.24C105.126 163.267 105.174 163.307 105.21 163.356C105.243 163.407 105.264 163.466 105.272 163.526C105.279 163.587 105.274 163.648 105.255 163.707L100.538 176.273C100.511 176.337 100.468 176.393 100.413 176.435C100.357 176.477 100.292 176.504 100.223 176.512L81.3601 178.655H81.3151ZM85.9201 164.319L81.8401 177.849L99.9151 175.795L104.355 163.953L85.9201 164.319Z" fill="#231F20"/>
<path d="M99.1576 176.258C99.1576 176.258 104.408 180.484 102.533 184.359C100.658 188.235 67.3201 192.64 67.3201 192.64L65.8201 187.578C65.8201 187.578 92.0101 174.279 99.1576 176.258Z" fill="#231F20"/>
<path d="M67.32 193.036C67.2389 193.036 67.16 193.01 67.095 192.961C67.0301 192.913 66.9828 192.845 66.96 192.767L65.46 187.705C65.436 187.621 65.4415 187.532 65.4756 187.451C65.5097 187.371 65.5704 187.305 65.6475 187.264C66.7275 186.719 92.0551 173.906 99.2626 175.9C99.3116 175.913 99.3575 175.936 99.3975 175.967C99.6226 176.146 104.835 180.447 102.878 184.516C100.995 188.466 70.815 192.573 67.3725 193.028L67.32 193.036ZM66.2625 187.809L67.59 192.289C80.9176 190.505 100.913 186.921 102.195 184.24C103.793 180.888 99.5401 177.109 98.9776 176.632C92.34 174.899 69.075 186.383 66.2625 187.787V187.809Z" fill="#231F20"/>
<path d="M64.0801 174.317C64.0801 174.317 90.0151 184.77 96.4501 187.51L92.7001 193.267C92.7001 193.267 68.7526 192.804 61.8826 186.809C55.0126 180.813 55.5001 170.845 64.0801 174.317Z" fill="#231F20"/>
<path d="M92.7075 193.641C91.725 193.641 68.5425 193.103 61.65 187.092C57.15 183.135 55.83 177.64 57.4725 174.981C58.65 173.085 61.1175 172.741 64.2225 173.966C64.4775 174.07 90.2325 184.419 96.5925 187.167C96.643 187.188 96.6886 187.22 96.726 187.26C96.7635 187.3 96.7921 187.347 96.81 187.398C96.8251 187.451 96.8288 187.506 96.8211 187.56C96.8133 187.614 96.7942 187.666 96.765 187.712L93.015 193.469C92.9818 193.52 92.9364 193.563 92.8828 193.593C92.8292 193.623 92.769 193.639 92.7075 193.641ZM60.9 173.973C60.351 173.935 59.8019 174.046 59.3108 174.293C58.8197 174.54 58.4048 174.915 58.11 175.377C56.61 177.766 57.8925 182.844 62.1375 186.532C68.49 192.073 90.1425 192.827 92.505 192.886L95.895 187.66C88.9125 184.673 64.1925 174.75 63.9375 174.645C62.9774 174.23 61.9463 174.002 60.9 173.973Z" fill="#231F20"/>
<path d="M100.275 171.121C100.305 171.271 100.369 171.411 100.463 171.532L100.965 172.278C100.946 172.201 100.911 172.129 100.861 172.066C100.812 172.004 100.749 171.953 100.677 171.918C100.606 171.882 100.528 171.863 100.448 171.86C100.368 171.858 100.288 171.873 100.215 171.905C100.073 171.983 99.9559 172.098 99.8753 172.237C99.7946 172.377 99.7539 172.536 99.7575 172.697C99.768 173.022 99.8445 173.342 99.9826 173.637C100.335 174.563 101.153 175.922 102.323 175.22C103.118 174.742 103.343 173.062 103.455 172.234C103.673 170.584 103.17 168.5 101.04 168.792C101.097 169.61 101.403 170.391 101.918 171.032C101.573 170.666 100.178 170.15 100.275 171.121Z" fill="white"/>
<path d="M101.685 175.75C101.534 175.752 101.384 175.726 101.243 175.676C100.864 175.477 100.529 175.205 100.257 174.875C99.9852 174.546 99.7823 174.165 99.66 173.757C99.5088 173.42 99.4248 173.058 99.4125 172.689C99.4074 172.462 99.4675 172.238 99.5857 172.043C99.7039 171.849 99.8754 171.692 100.08 171.591C99.9934 171.462 99.9394 171.313 99.9225 171.158C99.8821 170.991 99.9011 170.815 99.9763 170.66C100.051 170.504 100.178 170.38 100.335 170.307C100.561 170.215 100.809 170.194 101.048 170.247C100.842 169.792 100.72 169.304 100.688 168.806C100.679 168.722 100.704 168.637 100.757 168.57C100.81 168.503 100.888 168.459 100.973 168.448C101.326 168.373 101.693 168.384 102.042 168.48C102.39 168.577 102.71 168.755 102.975 169.001C103.785 169.792 103.92 171.241 103.778 172.271C103.635 173.301 103.41 174.951 102.488 175.511C102.246 175.659 101.969 175.742 101.685 175.75ZM100.433 172.204H100.358C100.274 172.254 100.206 172.326 100.16 172.411C100.114 172.496 100.092 172.592 100.095 172.689C100.115 172.97 100.183 173.245 100.298 173.503C100.477 174.134 100.897 174.67 101.468 174.996C101.582 175.034 101.704 175.043 101.823 175.023C101.941 175.004 102.054 174.956 102.15 174.884C102.795 174.503 103.013 172.868 103.11 172.174C103.207 171.703 103.203 171.217 103.1 170.748C102.997 170.279 102.796 169.836 102.51 169.449C102.364 169.314 102.193 169.21 102.006 169.142C101.819 169.074 101.621 169.044 101.423 169.053C101.524 169.674 101.782 170.26 102.173 170.755C102.224 170.826 102.247 170.912 102.239 170.999C102.231 171.085 102.191 171.166 102.128 171.226C102.064 171.283 101.981 171.315 101.895 171.315C101.809 171.315 101.726 171.283 101.663 171.226C101.374 170.986 101.002 170.871 100.628 170.905C100.59 170.905 100.628 171.024 100.628 171.069C100.655 171.159 100.701 171.243 100.763 171.315L101.01 171.689C101.097 171.75 101.171 171.828 101.225 171.92C101.279 172.011 101.313 172.113 101.325 172.219C101.332 172.295 101.313 172.371 101.273 172.435C101.232 172.5 101.172 172.55 101.1 172.577C101.027 172.603 100.948 172.604 100.874 172.58C100.801 172.555 100.738 172.507 100.695 172.443L100.53 172.196L100.433 172.204Z" fill="#231F20"/>
<path d="M93.0001 186.54C92.9528 186.547 92.9048 186.547 92.8576 186.54C92.2951 186.316 78.9076 181.156 75.8776 179.312C75.8274 179.289 75.7827 179.256 75.7464 179.215C75.7101 179.173 75.6831 179.125 75.667 179.072C75.651 179.02 75.6463 178.964 75.6533 178.91C75.6603 178.855 75.6789 178.803 75.7077 178.756C75.7366 178.709 75.7751 178.669 75.8207 178.638C75.8663 178.607 75.918 178.586 75.9723 178.577C76.0266 178.567 76.0824 178.569 76.1359 178.583C76.1894 178.596 76.2393 178.621 76.2826 178.655C79.2826 180.469 93.0001 185.763 93.1426 185.815C93.2363 185.855 93.3112 185.929 93.3516 186.022C93.3921 186.115 93.3951 186.221 93.3601 186.316C93.3298 186.385 93.2792 186.443 93.215 186.483C93.1507 186.523 93.0758 186.543 93.0001 186.54Z" fill="white"/>
<path d="M239.078 193.932C238.831 193.932 238.591 193.852 238.394 193.704C238.198 193.556 238.056 193.347 237.99 193.11L201.315 62.0257C201.235 61.7385 201.274 61.4317 201.421 61.1726C201.569 60.9136 201.814 60.7235 202.103 60.6443C202.391 60.5651 202.699 60.6032 202.959 60.7502C203.22 60.8973 203.41 61.1412 203.49 61.4283L240.158 192.513C240.241 192.795 240.21 193.099 240.069 193.358C239.929 193.617 239.691 193.81 239.408 193.894C239.299 193.92 239.189 193.933 239.078 193.932Z" fill="#231F20"/>
<path d="M212.603 193.932C212.357 193.933 212.117 193.854 211.922 193.705C211.726 193.556 211.586 193.347 211.523 193.11L174.848 62.0256C174.778 61.7427 174.822 61.4439 174.97 61.1926C175.118 60.9413 175.358 60.7572 175.64 60.6795C175.922 60.6018 176.223 60.6365 176.48 60.7763C176.737 60.9161 176.929 61.15 177.015 61.4283L213.69 192.513C213.768 192.8 213.73 193.106 213.582 193.365C213.435 193.624 213.19 193.814 212.903 193.894C212.804 193.918 212.704 193.93 212.603 193.932Z" fill="#231F20"/>
<path d="M204.66 72.5835H178.657C178.359 72.5835 178.073 72.4655 177.862 72.2555C177.651 72.0454 177.532 71.7606 177.532 71.4635C177.532 71.1665 177.651 70.8816 177.862 70.6715C178.073 70.4615 178.359 70.3435 178.657 70.3435H204.66C204.958 70.3435 205.245 70.4615 205.456 70.6715C205.666 70.8816 205.785 71.1665 205.785 71.4635C205.785 71.7606 205.666 72.0454 205.456 72.2555C205.245 72.4655 204.958 72.5835 204.66 72.5835Z" fill="#231F20"/>
<path d="M208.59 86.6133H182.588C182.289 86.6133 182.003 86.4954 181.792 86.2853C181.581 86.0753 181.463 85.7904 181.463 85.4934C181.463 85.1963 181.581 84.9114 181.792 84.7014C182.003 84.4914 182.289 84.3734 182.588 84.3734H208.59C208.888 84.3734 209.175 84.4914 209.386 84.7014C209.597 84.9114 209.715 85.1963 209.715 85.4934C209.715 85.7904 209.597 86.0753 209.386 86.2853C209.175 86.4954 208.888 86.6133 208.59 86.6133Z" fill="#231F20"/>
<path d="M212.52 100.681H186.518C186.219 100.681 185.933 100.563 185.722 100.353C185.511 100.142 185.393 99.8576 185.393 99.5606C185.393 99.2635 185.511 98.9786 185.722 98.7686C185.933 98.5586 186.219 98.4406 186.518 98.4406H212.52C212.818 98.4406 213.105 98.5586 213.316 98.7686C213.527 98.9786 213.645 99.2635 213.645 99.5606C213.645 99.8576 213.527 100.142 213.316 100.353C213.105 100.563 212.818 100.681 212.52 100.681Z" fill="#231F20"/>
<path d="M216.45 114.733H190.448C190.149 114.733 189.863 114.615 189.652 114.405C189.441 114.195 189.323 113.91 189.323 113.613C189.323 113.316 189.441 113.031 189.652 112.821C189.863 112.611 190.149 112.493 190.448 112.493H216.45C216.748 112.493 217.035 112.611 217.246 112.821C217.456 113.031 217.575 113.316 217.575 113.613C217.575 113.91 217.456 114.195 217.246 114.405C217.035 114.615 216.748 114.733 216.45 114.733Z" fill="#231F20"/>
<path d="M220.38 128.778H194.377C194.079 128.778 193.793 128.66 193.582 128.45C193.371 128.24 193.252 127.955 193.252 127.658C193.252 127.361 193.371 127.076 193.582 126.866C193.793 126.656 194.079 126.538 194.377 126.538H220.38C220.678 126.538 220.964 126.656 221.175 126.866C221.386 127.076 221.505 127.361 221.505 127.658C221.505 127.955 221.386 128.24 221.175 128.45C220.964 128.66 220.678 128.778 220.38 128.778Z" fill="#231F20"/>
<path d="M224.31 142.83H198.307C198.009 142.83 197.723 142.712 197.512 142.502C197.301 142.292 197.182 142.007 197.182 141.71C197.182 141.413 197.301 141.128 197.512 140.918C197.723 140.708 198.009 140.59 198.307 140.59H224.31C224.608 140.59 224.895 140.708 225.105 140.918C225.316 141.128 225.435 141.413 225.435 141.71C225.435 142.007 225.316 142.292 225.105 142.502C224.895 142.712 224.608 142.83 224.31 142.83Z" fill="#231F20"/>
<path d="M228.24 156.882H202.238C201.939 156.882 201.653 156.764 201.442 156.554C201.231 156.344 201.113 156.059 201.113 155.762C201.113 155.465 201.231 155.18 201.442 154.97C201.653 154.76 201.939 154.642 202.238 154.642H228.24C228.538 154.642 228.825 154.76 229.036 154.97C229.247 155.18 229.365 155.465 229.365 155.762C229.365 156.059 229.247 156.344 229.036 156.554C228.825 156.764 228.538 156.882 228.24 156.882Z" fill="#231F20"/>
<path d="M232.17 170.927H206.167C205.869 170.927 205.583 170.809 205.372 170.599C205.161 170.389 205.042 170.104 205.042 169.807C205.042 169.51 205.161 169.225 205.372 169.015C205.583 168.805 205.869 168.687 206.167 168.687H232.17C232.468 168.687 232.754 168.805 232.965 169.015C233.176 169.225 233.295 169.51 233.295 169.807C233.295 170.104 233.176 170.389 232.965 170.599C232.754 170.809 232.468 170.927 232.17 170.927Z" fill="#231F20"/>
<path d="M236.1 184.979H210.098C209.799 184.979 209.513 184.861 209.302 184.651C209.091 184.441 208.973 184.156 208.973 183.859C208.973 183.562 209.091 183.277 209.302 183.067C209.513 182.857 209.799 182.739 210.098 182.739H236.1C236.398 182.739 236.685 182.857 236.896 183.067C237.106 183.277 237.225 183.562 237.225 183.859C237.225 184.156 237.106 184.441 236.896 184.651C236.685 184.861 236.398 184.979 236.1 184.979Z" fill="#231F20"/>
<path d="M220.118 77.9819C220.118 77.9819 215.67 72.1056 217.485 68.2155C217.485 68.2155 215.82 67.7003 217.403 65.6768C218.631 64.2357 220.318 63.2566 222.184 62.9021C224.049 62.5475 225.979 62.839 227.655 63.728L226.155 64.4747C227.439 64.0765 228.821 64.136 230.066 64.6429C231.31 65.1498 232.338 66.0725 232.973 67.2523L231.308 67.8571L230.333 75.9733L220.118 77.9819Z" fill="white"/>
<path d="M220.118 78.3253C220.064 78.3251 220.012 78.312 219.965 78.2873C219.918 78.2626 219.878 78.227 219.848 78.1835C219.66 77.9445 215.513 72.3893 217.043 68.3797C216.761 68.2084 216.549 67.9442 216.443 67.6331C216.375 67.2447 216.403 66.8458 216.523 66.4703C216.643 66.0947 216.852 65.7534 217.133 65.4752C218.414 63.9787 220.169 62.9608 222.108 62.589C224.048 62.2172 226.057 62.5135 227.805 63.4293C227.863 63.4552 227.912 63.4971 227.947 63.5501C227.981 63.603 228 63.6648 228 63.728C228 63.7882 227.985 63.8474 227.955 63.8997C229.054 63.8925 230.134 64.1861 231.077 64.7483C232.02 65.3106 232.79 66.1199 233.303 67.088C233.323 67.1326 233.333 67.1809 233.333 67.2299C233.333 67.2788 233.323 67.3272 233.303 67.3717C233.285 67.4194 233.256 67.4628 233.22 67.4988C233.184 67.5349 233.14 67.5628 233.093 67.5808L231.63 68.1109L230.678 76.0256C230.668 76.096 230.637 76.1617 230.589 76.2139C230.541 76.266 230.477 76.302 230.408 76.3168L220.155 78.3253H220.118ZM223.68 63.1232C222.538 63.1172 221.408 63.3616 220.371 63.839C219.334 64.3165 218.415 65.0153 217.68 65.8859C217.185 66.5205 216.983 67.0432 217.095 67.4165C217.138 67.5258 217.204 67.6248 217.288 67.7071C217.372 67.7894 217.472 67.8533 217.583 67.8944C217.629 67.9082 217.672 67.932 217.709 67.9643C217.745 67.9966 217.774 68.0365 217.793 68.0811C217.811 68.1247 217.821 68.1717 217.821 68.2192C217.821 68.2667 217.811 68.3137 217.793 68.3573C216.255 71.6651 219.57 76.6229 220.268 77.6011L230.063 75.6896L231 67.8123C231.007 67.7496 231.032 67.6902 231.072 67.6412C231.112 67.5922 231.165 67.5557 231.225 67.536L232.493 67.0731C231.858 66.0705 230.906 65.3065 229.787 64.901C228.669 64.4955 227.446 64.4716 226.313 64.8331C226.23 64.8631 226.139 64.8605 226.058 64.8258C225.977 64.7911 225.912 64.7269 225.878 64.6464C225.845 64.5676 225.843 64.4797 225.873 64.3997C225.902 64.3197 225.96 64.2533 226.035 64.2133L226.86 63.7877C225.852 63.3661 224.773 63.1405 223.68 63.1232Z" fill="#231F20"/>
<path d="M236.312 148.767L236.431 148.785C237.197 148.902 237.912 148.379 238.03 147.617L240.909 128.907C241.026 128.145 240.5 127.432 239.735 127.315L239.616 127.297C238.851 127.18 238.135 127.704 238.018 128.466L235.138 147.176C235.021 147.938 235.547 148.65 236.312 148.767Z" fill="white"/>
<path d="M236.655 149.139H236.385H236.258C235.802 149.069 235.394 148.822 235.121 148.453C234.848 148.083 234.734 147.621 234.803 147.168L237.683 128.427C237.717 128.203 237.796 127.988 237.914 127.794C238.033 127.601 238.189 127.433 238.373 127.299C238.745 127.025 239.212 126.91 239.67 126.978H239.798C240.253 127.048 240.662 127.295 240.934 127.664C241.207 128.034 241.321 128.496 241.253 128.949L238.373 147.676C238.339 147.901 238.261 148.117 238.142 148.312C238.024 148.507 237.867 148.676 237.683 148.811C237.383 149.025 237.024 149.14 236.655 149.139ZM236.363 148.393H236.49C236.767 148.433 237.05 148.364 237.276 148.199C237.502 148.034 237.653 147.787 237.698 147.511L240.578 128.793C240.599 128.656 240.593 128.516 240.56 128.381C240.526 128.246 240.466 128.12 240.383 128.009C240.217 127.784 239.969 127.634 239.693 127.59H239.565C239.428 127.569 239.288 127.574 239.153 127.606C239.018 127.638 238.89 127.696 238.778 127.777C238.666 127.858 238.572 127.961 238.501 128.079C238.43 128.197 238.384 128.328 238.365 128.464L235.5 147.22C235.459 147.496 235.529 147.777 235.695 148.002C235.86 148.227 236.108 148.378 236.385 148.422L236.363 148.393Z" fill="#231F20"/>
<path d="M239.078 118.354C239.078 118.354 235.672 130.801 237.135 130.174C238.785 129.427 239.678 125.694 239.678 125.694C239.678 125.694 240.915 127.792 240.915 128.919C240.915 130.047 239.34 133.937 240.585 134.191C241.83 134.445 244.883 127.919 244.538 126.411C244.204 125.193 243.751 124.01 243.188 122.879L243.75 119.392" fill="white"/>
<path d="M240.66 134.512C240.613 134.52 240.565 134.52 240.518 134.512C240.403 134.495 240.294 134.452 240.199 134.386C240.104 134.32 240.026 134.232 239.97 134.131C239.558 133.489 239.82 132.227 240.248 130.525C240.402 129.995 240.51 129.453 240.57 128.905C240.455 128.093 240.188 127.311 239.783 126.597C239.4 127.799 238.568 129.942 237.27 130.502C237.178 130.545 237.075 130.56 236.974 130.547C236.873 130.534 236.778 130.492 236.7 130.428C235.8 129.681 237.593 122.483 238.748 118.279C238.759 118.236 238.779 118.195 238.806 118.16C238.833 118.124 238.868 118.094 238.907 118.072C238.946 118.049 238.989 118.035 239.034 118.03C239.079 118.025 239.124 118.028 239.168 118.041C239.255 118.065 239.329 118.122 239.373 118.201C239.418 118.279 239.431 118.372 239.408 118.459C238.065 123.357 236.895 128.763 237.158 129.808C238.313 129.158 239.145 126.582 239.408 125.612C239.422 125.545 239.456 125.485 239.506 125.438C239.555 125.392 239.618 125.361 239.685 125.35C239.754 125.34 239.823 125.35 239.886 125.38C239.949 125.409 240.001 125.456 240.038 125.515C240.09 125.604 241.32 127.702 241.32 128.905C241.262 129.509 241.147 130.106 240.975 130.689C240.713 131.734 240.315 133.317 240.608 133.773C240.618 133.792 240.633 133.809 240.652 133.822C240.67 133.835 240.691 133.844 240.713 133.847C240.713 133.847 240.855 133.847 241.178 133.526C242.633 132.033 244.5 127.553 244.268 126.478C243.935 125.289 243.491 124.134 242.94 123.028C242.919 122.96 242.919 122.887 242.94 122.819L243.51 119.325C243.527 119.237 243.576 119.16 243.649 119.108C243.722 119.057 243.812 119.035 243.9 119.049C243.945 119.055 243.987 119.07 244.026 119.093C244.065 119.116 244.098 119.147 244.125 119.183C244.151 119.219 244.17 119.26 244.181 119.304C244.191 119.347 244.193 119.393 244.185 119.437L243.638 122.819C244.195 123.943 244.642 125.119 244.973 126.329C245.295 127.755 243.105 132.586 241.703 134.004C241.575 134.158 241.416 134.283 241.237 134.371C241.057 134.458 240.86 134.506 240.66 134.512Z" fill="#231F20"/>
<path d="M208.672 134.176L211.395 140.896C211.395 140.896 203.422 144.002 201.262 144.458C199.102 144.913 199.012 143.935 201.937 141.269C204.187 139.186 205.065 138.91 205.065 138.91L203.61 136.304L208.672 134.176Z" fill="white"/>
<path d="M200.408 144.921C200.221 144.945 200.031 144.916 199.86 144.838C199.689 144.76 199.544 144.636 199.44 144.48C199.215 144.047 199.268 143.27 201.69 141.03C202.564 140.177 203.532 139.425 204.578 138.79L203.295 136.506C203.258 136.415 203.258 136.313 203.295 136.222C203.31 136.177 203.334 136.135 203.367 136.101C203.399 136.066 203.439 136.038 203.483 136.02L208.545 133.885C208.63 133.855 208.723 133.855 208.808 133.885C208.85 133.901 208.889 133.926 208.921 133.959C208.953 133.991 208.978 134.029 208.995 134.072L211.725 140.792C211.759 140.875 211.759 140.969 211.725 141.053C211.687 141.135 211.62 141.202 211.538 141.24C211.208 141.366 203.513 144.361 201.353 144.816C201.042 144.883 200.725 144.918 200.408 144.921ZM204.098 136.483L205.365 138.723C205.387 138.769 205.398 138.818 205.398 138.869C205.398 138.919 205.387 138.969 205.365 139.014C205.346 139.062 205.317 139.105 205.279 139.14C205.242 139.175 205.197 139.201 205.148 139.216C205.148 139.216 204.285 139.53 202.148 141.501C199.845 143.614 200.018 144.129 200.025 144.137C200.033 144.144 200.198 144.308 201.173 144.137C203.033 143.741 209.423 141.299 210.923 140.709L208.5 134.632L204.098 136.483Z" fill="#231F20"/>
<path d="M221.767 161.937C221.868 163.279 221.764 164.628 221.46 165.939C220.89 167.678 220.636 169.503 220.71 171.33C220.897 172.771 222.442 174.503 223.972 173.802C225.502 173.1 226.102 168.717 226.05 167.537C225.912 165.581 225.957 163.616 226.185 161.668L221.767 161.937Z" fill="white"/>
<path d="M223.207 174.302C222.823 174.297 222.446 174.194 222.112 174.003C221.641 173.722 221.237 173.34 220.93 172.886C220.623 172.432 220.42 171.916 220.335 171.375C220.095 169.531 220.882 166.671 221.13 165.842C221.422 164.57 221.523 163.261 221.43 161.96C221.426 161.915 221.432 161.87 221.446 161.828C221.46 161.786 221.483 161.746 221.512 161.713C221.542 161.677 221.578 161.648 221.619 161.627C221.661 161.607 221.706 161.595 221.753 161.594L226.125 161.332C226.178 161.327 226.231 161.336 226.279 161.357C226.328 161.378 226.37 161.41 226.402 161.452C226.437 161.491 226.462 161.538 226.475 161.589C226.488 161.639 226.489 161.692 226.477 161.743C226.258 163.619 226.215 165.511 226.35 167.395V167.522C226.387 168.441 225.9 173.264 224.1 174.108C223.82 174.236 223.516 174.302 223.207 174.302ZM222.135 162.251C222.208 163.523 222.092 164.798 221.79 166.036C221.234 167.721 220.981 169.49 221.04 171.263C221.105 171.699 221.267 172.116 221.514 172.482C221.76 172.849 222.085 173.157 222.465 173.384C222.664 173.507 222.891 173.58 223.126 173.594C223.36 173.609 223.595 173.564 223.807 173.466C225.082 172.876 225.75 168.806 225.697 167.492V167.373C225.577 165.592 225.595 163.805 225.75 162.027L222.135 162.251Z" fill="#231F20"/>
<path d="M233.835 104.451C233.033 103.951 215.025 107.878 215.025 107.878C215.025 107.878 193.2 111.806 193.777 117.257C194.355 122.707 203.25 137.387 203.25 137.387L209.963 135.557L204.053 121.371H217.395C217.395 121.371 222 153.813 220.688 163.423L227.228 164.438L233.835 104.451Z" fill="#231F20"/>
<path d="M227.25 164.767H227.197L220.665 163.752C220.622 163.746 220.581 163.732 220.544 163.711C220.507 163.689 220.475 163.661 220.449 163.627C220.423 163.593 220.404 163.554 220.394 163.512C220.383 163.471 220.381 163.428 220.388 163.386C221.58 154.373 217.582 124.947 217.14 121.729H204.555L210.277 135.43C210.296 135.474 210.305 135.521 210.305 135.569C210.305 135.616 210.296 135.663 210.277 135.707C210.232 135.789 210.157 135.85 210.067 135.878L203.355 137.7C203.285 137.72 203.212 137.716 203.144 137.691C203.077 137.665 203.019 137.619 202.98 137.558C202.62 136.954 194.04 122.76 193.463 117.309C192.855 111.619 214.065 107.737 214.973 107.602C220.41 106.415 233.182 103.697 234.015 104.22C234.067 104.253 234.109 104.3 234.135 104.355C234.162 104.411 234.172 104.472 234.165 104.533L227.565 164.513C227.55 164.603 227.505 164.684 227.437 164.745C227.378 164.769 227.313 164.777 227.25 164.767ZM221.077 163.147L226.957 164.058L233.49 104.728C231.667 104.728 221.49 106.811 215.115 108.2C209.115 109.282 193.68 113.001 194.115 117.219C194.648 122.177 202.328 135.139 203.423 136.984L209.527 135.326L203.76 121.505C203.736 121.458 203.724 121.405 203.724 121.352C203.724 121.299 203.736 121.247 203.76 121.199C203.791 121.154 203.832 121.117 203.881 121.091C203.929 121.065 203.983 121.051 204.037 121.05H217.388C217.466 121.052 217.541 121.082 217.6 121.134C217.659 121.185 217.698 121.256 217.71 121.333C217.92 122.662 222.195 153.216 221.055 163.147H221.077Z" fill="#231F20"/>
<path d="M233.205 121.221L208.29 108.528C208.29 108.528 214.913 86.6059 217.958 83.3654C221.003 80.1248 233.355 81.775 235.163 84.9558C236.97 88.1366 234.855 109.051 233.205 121.221Z" fill="#68E1FD"/>
<path d="M221.918 80.0576L221.618 84.2763C221.661 84.6003 221.776 84.9108 221.953 85.186C222.13 85.4613 222.365 85.6946 222.643 85.8697C222.92 86.0447 223.232 86.1572 223.558 86.1992C223.884 86.2413 224.215 86.2119 224.528 86.1131C225.303 85.94 226.03 85.5977 226.657 85.1109C227.283 84.6241 227.793 84.005 228.15 83.2982C228.15 83.2982 228.803 73.1734 229.02 70.5003C227.133 70.2753 225.314 69.6598 223.68 68.6934C223.438 68.505 223.17 68.3517 222.885 68.2379C222.36 68.1558 222.428 68.4544 222.188 68.9024C221.771 69.7149 221.092 70.3644 220.26 70.7467C220.155 70.784 220.062 70.8484 219.99 70.9334C219.951 71.0043 219.93 71.0839 219.93 71.1648C219.66 73.5766 219.18 75.9808 219.51 78.4075C219.795 80.416 221.918 80.0576 221.918 80.0576Z" fill="white"/>
<path d="M223.778 86.5387C223.255 86.5522 222.742 86.3977 222.315 86.0981C221.753 85.6602 221.383 85.0238 221.28 84.3211L221.55 80.4235C221.016 80.43 220.492 80.2737 220.05 79.9755C219.816 79.7948 219.62 79.57 219.473 79.3137C219.326 79.0574 219.232 78.7748 219.195 78.4821C219.009 76.5541 219.087 74.6099 219.428 72.7029C219.495 72.1877 219.563 71.6725 219.615 71.1573C219.627 71.029 219.665 70.9045 219.728 70.7914C219.828 70.6438 219.972 70.5314 220.14 70.4704C220.905 70.1177 221.531 69.5213 221.918 68.7754C221.96 68.6908 221.998 68.6035 222.03 68.5141C222.049 68.4124 222.089 68.3158 222.148 68.2304C222.206 68.145 222.282 68.0726 222.37 68.0178C222.458 67.9631 222.557 67.9271 222.66 67.9123C222.763 67.8975 222.867 67.9041 222.968 67.9317C223.222 67.9982 223.46 68.1178 223.665 68.2826L223.875 68.4245C225.457 69.3663 227.22 69.9667 229.05 70.1866C229.14 70.1953 229.223 70.2381 229.283 70.3061C229.312 70.3394 229.335 70.3785 229.349 70.4209C229.363 70.4632 229.369 70.508 229.365 70.5525C229.148 73.2032 228.495 83.2459 228.488 83.3504C228.498 83.387 228.498 83.4257 228.488 83.4624C228.111 84.2176 227.568 84.8784 226.899 85.3955C226.231 85.9126 225.453 86.2728 224.625 86.4491C224.347 86.5086 224.062 86.5386 223.778 86.5387ZM221.963 84.2987C222.06 84.7881 222.325 85.2288 222.713 85.5456C222.968 85.7049 223.255 85.8079 223.554 85.8479C223.852 85.8878 224.156 85.8636 224.445 85.7771C225.159 85.6169 225.829 85.3042 226.409 84.8607C226.989 84.4172 227.465 83.8535 227.805 83.2085C227.858 82.3723 228.42 73.7408 228.645 70.8064C226.829 70.5301 225.083 69.9118 223.5 68.9845L223.223 68.8053C223.101 68.7095 222.967 68.6292 222.825 68.5664C222.778 68.5596 222.73 68.5596 222.683 68.5664C222.667 68.6225 222.646 68.6774 222.623 68.7306C222.585 68.8277 222.54 68.9397 222.48 69.0592C222.026 69.9379 221.289 70.6398 220.388 71.0528C220.342 71.072 220.299 71.0971 220.26 71.1274C220.263 71.1523 220.263 71.1773 220.26 71.2021C220.2 71.7248 220.133 72.24 220.065 72.7626C219.735 74.608 219.66 76.4895 219.84 78.3552C219.855 78.5648 219.914 78.7689 220.014 78.9541C220.113 79.1394 220.251 79.3017 220.418 79.4304C220.845 79.6953 221.352 79.8011 221.85 79.7291C221.901 79.7196 221.953 79.7222 222.002 79.7364C222.052 79.7507 222.097 79.7763 222.135 79.8112C222.174 79.8451 222.205 79.8879 222.225 79.9359C222.244 79.9839 222.252 80.0358 222.248 80.0875L222 84.2987H221.963Z" fill="#231F20"/>
<path d="M221.805 82.1334C222.851 82.2154 223.889 81.8977 224.708 81.2448C225.04 80.9712 225.309 80.6295 225.497 80.2429C225.684 79.8564 225.786 79.4341 225.795 79.0048C224.608 79.6629 223.276 80.0218 221.918 80.0502L221.805 82.1334Z" fill="#231F20"/>
<path d="M222.112 82.4768C221.917 82.4768 221.79 82.4768 221.775 82.4768C221.691 82.4675 221.613 82.427 221.558 82.3633C221.502 82.2997 221.473 82.2176 221.475 82.1333L221.588 80.0576C221.593 79.9724 221.631 79.8926 221.694 79.8344C221.757 79.7761 221.839 79.7438 221.925 79.744C223.222 79.7091 224.493 79.3661 225.63 78.7435C225.678 78.7156 225.732 78.7002 225.788 78.6988C225.843 78.6973 225.898 78.7098 225.947 78.7351C225.997 78.7605 226.039 78.7978 226.07 78.8436C226.101 78.8894 226.12 78.9423 226.125 78.9973C226.121 79.4762 226.011 79.9484 225.804 80.3805C225.596 80.8127 225.296 81.1943 224.925 81.4987C224.137 82.1523 223.138 82.4997 222.112 82.4768ZM222.225 80.3861L222.157 81.8123C223.005 81.8243 223.829 81.5359 224.482 80.9984C224.915 80.6218 225.23 80.1294 225.39 79.5797C224.401 80.0596 223.324 80.3339 222.225 80.3861Z" fill="#231F20"/>
<path d="M224.003 73.4197C224.003 73.4197 222.503 75.3685 222.818 75.7344C223.133 76.1003 224.04 75.936 224.04 75.936" fill="white"/>
<path d="M223.568 76.3093C223.382 76.3261 223.195 76.302 223.02 76.2388C222.845 76.1756 222.686 76.0747 222.555 75.9435C222.443 75.8016 222.09 75.3685 223.74 73.2181C223.798 73.1605 223.874 73.1256 223.956 73.1201C224.038 73.1145 224.118 73.1386 224.183 73.1878C224.249 73.2371 224.293 73.3082 224.31 73.3879C224.326 73.4676 224.313 73.5506 224.273 73.6213C223.782 74.2014 223.389 74.857 223.11 75.5627C223.39 75.6595 223.692 75.6751 223.98 75.6075C224.023 75.5988 224.066 75.5988 224.109 75.6074C224.151 75.616 224.191 75.6329 224.227 75.6573C224.263 75.6817 224.293 75.713 224.316 75.7493C224.34 75.7857 224.355 75.8263 224.363 75.8688C224.371 75.9115 224.371 75.9554 224.363 75.9982C224.354 76.0409 224.337 76.0815 224.313 76.1176C224.289 76.1537 224.257 76.1847 224.221 76.2086C224.184 76.2326 224.143 76.249 224.1 76.2571C223.925 76.2912 223.746 76.3087 223.568 76.3093Z" fill="#231F20"/>
<path d="M222.483 72.7027C222.508 72.4607 222.425 72.2538 222.297 72.2408C222.169 72.2277 222.046 72.4133 222.021 72.6553C221.996 72.8974 222.079 73.1042 222.207 73.1172C222.334 73.1303 222.458 72.9447 222.483 72.7027Z" fill="#231F20"/>
<path d="M226.416 72.8134C226.424 72.5702 226.326 72.3696 226.198 72.3654C226.07 72.3611 225.959 72.5548 225.951 72.7979C225.943 73.0411 226.04 73.2417 226.169 73.2459C226.297 73.2502 226.407 73.0565 226.416 72.8134Z" fill="#231F20"/>
<path d="M228.105 74.4277C228.6 73.8229 229.373 72.7179 230.288 73.1285C230.531 73.2423 230.74 73.4173 230.895 73.6363C231.194 74.0923 231.348 74.6269 231.339 75.1712C231.33 75.7155 231.157 76.2445 230.843 76.6901C230.355 77.504 228.93 78.6987 228.075 77.5861" fill="white"/>
<path d="M228.93 78.4C228.708 78.3981 228.489 78.3436 228.292 78.241C228.095 78.1385 227.926 77.9908 227.798 77.8102C227.755 77.7375 227.74 77.6516 227.757 77.569C227.773 77.4863 227.82 77.4125 227.887 77.3618C227.955 77.3111 228.039 77.2869 228.123 77.2938C228.208 77.3008 228.287 77.3384 228.345 77.3995C228.411 77.5047 228.505 77.5901 228.616 77.6466C228.726 77.7031 228.851 77.7287 228.975 77.7206C229.364 77.612 229.723 77.4178 230.026 77.1523C230.329 76.8869 230.568 76.557 230.726 76.187C230.884 75.8171 230.956 75.4166 230.937 75.0151C230.918 74.6136 230.809 74.2215 230.617 73.8678C230.5 73.6939 230.34 73.5527 230.152 73.4571C229.598 73.2107 229.05 73.8155 228.495 74.5099L228.375 74.6592C228.35 74.7017 228.316 74.7383 228.275 74.7665C228.235 74.7947 228.189 74.8138 228.14 74.8227C228.091 74.8316 228.041 74.8299 227.993 74.8178C227.945 74.8057 227.9 74.7835 227.862 74.7527C227.823 74.7218 227.792 74.6831 227.77 74.6391C227.747 74.5951 227.735 74.5468 227.733 74.4976C227.731 74.4483 227.74 74.3993 227.759 74.3537C227.778 74.3082 227.806 74.2672 227.843 74.2336L227.955 74.0843C228.473 73.4347 229.342 72.3595 230.43 72.8374C230.731 72.9733 230.99 73.1873 231.18 73.4571C231.529 73.9624 231.716 74.5612 231.716 75.1744C231.716 75.7877 231.529 76.3865 231.18 76.8918C230.954 77.2759 230.649 77.6077 230.284 77.8651C229.919 78.1226 229.504 78.2999 229.065 78.3851L228.93 78.4Z" fill="#231F20"/>
<path d="M223.665 78.3104C223.293 78.2984 222.928 78.2084 222.593 78.0462C222.258 77.8841 221.962 77.6536 221.723 77.3696C221.685 77.3395 221.654 77.3017 221.633 77.2587C221.611 77.2158 221.599 77.1687 221.597 77.1207C221.595 77.0727 221.604 77.0249 221.622 76.9804C221.641 76.936 221.668 76.896 221.703 76.8631C221.739 76.8302 221.78 76.8053 221.826 76.7899C221.872 76.7745 221.92 76.769 221.968 76.7738C222.016 76.7787 222.063 76.7937 222.104 76.8179C222.146 76.8421 222.182 76.8749 222.21 76.9142C222.393 77.1478 222.628 77.3365 222.895 77.466C223.163 77.5954 223.457 77.6621 223.755 77.6608C224.58 77.5138 225.319 77.0633 225.825 76.399C225.851 76.3645 225.885 76.3356 225.922 76.3139C225.96 76.2922 226.002 76.2782 226.045 76.2726C226.088 76.267 226.132 76.2701 226.174 76.2815C226.216 76.293 226.256 76.3126 226.29 76.3392C226.325 76.3649 226.355 76.3976 226.378 76.4352C226.4 76.4728 226.415 76.5145 226.42 76.5578C226.426 76.6012 226.422 76.6452 226.41 76.6872C226.398 76.7292 226.378 76.7683 226.35 76.8022C225.721 77.6107 224.802 78.1458 223.785 78.2955L223.665 78.3104Z" fill="#231F20"/>
<path d="M235.162 84.9333C235.162 84.9333 242.745 89.9211 246.465 101.405C248.272 106.99 244.597 121.938 244.597 121.938L237.63 119.123C237.63 119.123 239.49 107.639 239.13 106.109C238.77 104.578 229.23 94.0128 229.23 94.0128L235.162 84.9333Z" fill="#68E1FD"/>
<path d="M196.553 86.5088C196.553 86.5088 190.178 80.6475 189.585 80.7968C188.993 80.9461 186.24 82.7381 186.3 83.2608C186.36 83.7835 186.398 84.3211 186.398 84.3211C186.866 84.1945 187.353 84.149 187.838 84.1867C188.376 84.7538 188.877 85.3549 189.338 85.9861C189.69 86.4341 187.718 86.8896 187.718 86.8896C188.497 87.1532 189.297 87.3506 190.11 87.4795C191.116 87.7228 192.094 88.0707 193.028 88.5173L196.553 86.5088Z" fill="white"/>
<path d="M192.99 88.8533C192.938 88.8516 192.887 88.8389 192.84 88.816C191.946 88.3814 191.009 88.0434 190.043 87.808C189.202 87.6807 188.374 87.4808 187.568 87.2107C187.497 87.1854 187.437 87.1385 187.395 87.0767C187.353 87.015 187.332 86.9416 187.335 86.8672C187.339 86.7939 187.367 86.7238 187.414 86.6674C187.462 86.6109 187.526 86.571 187.598 86.5536C188.065 86.4558 188.516 86.2951 188.94 86.0757L188.835 85.9339C188.58 85.5979 187.823 84.5973 187.65 84.4405C187.253 84.4715 186.859 84.534 186.473 84.6272C186.424 84.6368 186.374 84.6362 186.326 84.6252C186.277 84.6143 186.232 84.5934 186.192 84.5638C186.153 84.5342 186.12 84.4966 186.096 84.4535C186.072 84.4104 186.057 84.3627 186.053 84.3136C186.053 84.3136 186.053 83.7835 185.963 83.2757C185.85 82.3797 189.09 80.5429 189.503 80.4384C189.698 80.3936 190.253 80.2443 196.785 86.2251C196.825 86.2615 196.857 86.3068 196.876 86.3575C196.895 86.4082 196.902 86.4627 196.896 86.5166C196.891 86.5704 196.872 86.6222 196.842 86.6676C196.812 86.7129 196.772 86.7506 196.725 86.7776L193.155 88.8533C193.101 88.8666 193.044 88.8666 192.99 88.8533ZM188.858 86.8747C189.262 86.9955 189.676 87.0805 190.095 87.1285C191.089 87.3472 192.053 87.683 192.968 88.1291L195.968 86.4341C193.215 83.9179 190.208 81.3568 189.608 81.1403C188.963 81.3568 186.773 82.8651 186.608 83.2683C186.608 83.4848 186.66 83.7088 186.675 83.8955C187.688 83.7088 187.913 83.8432 187.988 83.8955C188.502 84.3888 188.959 84.9372 189.353 85.5307L189.54 85.7771C189.595 85.8455 189.632 85.9262 189.647 86.0122C189.663 86.0982 189.657 86.1867 189.63 86.2699C189.458 86.5623 189.182 86.7805 188.858 86.8821V86.8747Z" fill="#231F20"/>
<path d="M218.948 82.8278C218.948 82.8278 207.008 90.2571 205.23 89.839C203.453 89.4208 195.398 84.9408 195.398 84.9408L191.955 88.8534C191.955 88.8534 200.265 98.1942 204.293 97.1712C208.32 96.1483 218.843 90.1227 218.843 90.1227L218.948 82.8278Z" fill="#68E1FD"/>
<path d="M218.205 84.6571C218.205 84.6571 212.063 97.5147 209.573 104.406L218.205 84.6571Z" fill="white"/>
<path d="M209.573 104.75C209.535 104.757 209.497 104.757 209.46 104.75C209.375 104.719 209.306 104.657 209.266 104.576C209.227 104.495 209.221 104.402 209.25 104.317C211.718 97.4848 217.83 84.6646 217.898 84.5302C217.944 84.4605 218.014 84.4099 218.095 84.3879C218.175 84.3659 218.262 84.3739 218.337 84.4105C218.412 84.4471 218.472 84.5097 218.504 84.5867C218.536 84.6637 218.539 84.7498 218.513 84.8288C218.453 84.9558 212.355 97.7462 209.895 104.541C209.868 104.604 209.823 104.657 209.766 104.694C209.708 104.732 209.641 104.751 209.573 104.75Z" fill="#231F20"/>
<path d="M239.093 106.109C239.093 106.109 232.163 96.992 229.193 94.0128L239.093 106.109Z" fill="white"/>
<path d="M239.093 106.452C239.038 106.451 238.985 106.438 238.937 106.414C238.889 106.389 238.847 106.354 238.815 106.31C238.748 106.221 231.87 97.1787 228.953 94.2592C228.892 94.194 228.859 94.1081 228.861 94.0195C228.863 93.9308 228.899 93.8463 228.962 93.7836C229.025 93.7209 229.11 93.6849 229.199 93.6831C229.288 93.6813 229.375 93.7138 229.44 93.7739C232.388 96.7606 239.078 105.526 239.363 105.9C239.417 105.972 239.44 106.063 239.427 106.153C239.415 106.242 239.367 106.323 239.295 106.378C239.239 106.426 239.167 106.453 239.093 106.452Z" fill="#231F20"/>
<path d="M124.823 188.854C123.076 188.916 121.357 188.41 119.925 187.413C118.103 186.062 116.978 183.762 116.58 180.559C115.958 175.519 114.18 171.868 111.33 169.71C109.094 168.096 106.336 167.366 103.59 167.664C103.542 167.673 103.492 167.671 103.444 167.66C103.396 167.65 103.351 167.629 103.311 167.601C103.272 167.572 103.238 167.536 103.212 167.494C103.187 167.453 103.17 167.406 103.163 167.358C103.147 167.26 103.171 167.16 103.228 167.079C103.286 166.998 103.372 166.943 103.47 166.925C106.409 166.585 109.367 167.367 111.75 169.113C114.81 171.397 116.693 175.22 117.338 180.477C117.713 183.463 118.733 185.599 120.383 186.823C122.858 188.653 126.24 188.078 128.055 187.772C128.393 187.712 128.685 187.66 128.91 187.637C135.533 186.891 136.905 173.809 138.015 163.289C138.278 160.795 138.525 158.443 138.825 156.397C138.832 156.348 138.849 156.301 138.875 156.258C138.901 156.216 138.935 156.179 138.975 156.149C139.015 156.12 139.06 156.098 139.109 156.086C139.157 156.075 139.207 156.072 139.256 156.079C139.306 156.087 139.353 156.104 139.396 156.129C139.438 156.155 139.475 156.189 139.505 156.228C139.535 156.268 139.556 156.314 139.568 156.362C139.58 156.41 139.582 156.46 139.575 156.509C139.275 158.54 139.028 160.884 138.765 163.363C137.633 174.153 136.223 187.578 129.015 188.377L128.205 188.503C127.09 188.72 125.958 188.838 124.823 188.854Z" fill="#231F20"/>
<path d="M115.688 58.9493H55.7626V104.489H115.688V58.9493Z" fill="white"/>
<path d="M115.688 104.877H55.7625C55.6611 104.877 55.5638 104.837 55.492 104.765C55.4203 104.694 55.38 104.597 55.38 104.496V58.9867C55.38 58.9367 55.3899 58.8872 55.4091 58.841C55.4283 58.7948 55.4565 58.7528 55.492 58.7174C55.5276 58.6821 55.5697 58.654 55.6161 58.6349C55.6625 58.6158 55.7123 58.6059 55.7625 58.6059H115.688C115.738 58.6049 115.789 58.614 115.836 58.6327C115.883 58.6514 115.927 58.6793 115.963 58.7148C115.999 58.7502 116.028 58.7925 116.048 58.8392C116.067 58.8859 116.078 58.9361 116.078 58.9867V104.533C116.068 104.629 116.023 104.718 115.95 104.781C115.878 104.845 115.784 104.879 115.688 104.877ZM56.1525 104.13H115.305V59.3302H56.1525V104.13Z" fill="#D1D3D4"/>
<path d="M144.495 159.115C145.377 159.115 146.093 158.403 146.093 157.524C146.093 156.646 145.377 155.934 144.495 155.934C143.613 155.934 142.898 156.646 142.898 157.524C142.898 158.403 143.613 159.115 144.495 159.115Z" fill="#68E1FD"/>
<path d="M108.375 96.656H64.6201C64.5692 96.657 64.5187 96.6479 64.4714 96.6292C64.4241 96.6105 64.3811 96.5826 64.3448 96.5472C64.3084 96.5117 64.2796 96.4694 64.2599 96.4227C64.2402 96.376 64.2301 96.3259 64.2301 96.2752V65.3259C64.2135 65.2681 64.2106 65.2073 64.2217 65.1482C64.2327 65.0891 64.2574 65.0334 64.2937 64.9854C64.3301 64.9375 64.3771 64.8985 64.4312 64.8717C64.4852 64.8449 64.5447 64.831 64.6051 64.831C64.6655 64.831 64.725 64.8449 64.779 64.8717C64.833 64.8985 64.8801 64.9375 64.9164 64.9854C64.9528 65.0334 64.9775 65.0891 64.9885 65.1482C64.9996 65.2073 64.9967 65.2681 64.9801 65.3259V95.887H108.375C108.457 95.9102 108.528 95.9591 108.579 96.0265C108.63 96.0938 108.658 96.1759 108.658 96.2603C108.658 96.3447 108.63 96.4268 108.579 96.4941C108.528 96.5615 108.457 96.6105 108.375 96.6336V96.656Z" fill="#D1D3D4"/>
<path d="M64.62 96.656C64.5605 96.6665 64.4996 96.6665 64.44 96.656C64.3487 96.6083 64.2801 96.5266 64.2491 96.4286C64.2182 96.3307 64.2275 96.2245 64.275 96.1334C64.5 95.5734 70.5675 83.9254 76.5 85.8667C78.0307 86.433 79.4348 87.293 80.6325 88.3979C82.9425 90.3243 84.3375 91.4891 89.535 86.7104C93.51 83.0518 95.4075 78.7062 96.93 75.2118C98.4525 71.7174 99.705 68.8427 102.383 67.9243C102.432 67.9076 102.484 67.9008 102.536 67.9042C102.588 67.9075 102.638 67.921 102.685 67.9439C102.732 67.9668 102.773 67.9986 102.808 68.0375C102.842 68.0764 102.868 68.1217 102.885 68.1707C102.902 68.2197 102.909 68.2716 102.905 68.3232C102.902 68.3749 102.888 68.4254 102.865 68.4719C102.842 68.5183 102.81 68.5598 102.771 68.594C102.732 68.6281 102.687 68.6543 102.638 68.671C100.283 69.4848 99.12 72.1579 97.6425 75.5403C96.09 79.1019 94.155 83.5296 90.06 87.2928C84.6375 92.288 82.755 91.1979 80.1375 89.0102C79.0111 87.9696 77.6914 87.158 76.2525 86.6208C71.0025 84.8438 65.055 96.3275 65.0025 96.4395C64.9689 96.5104 64.9142 96.5693 64.8457 96.608C64.7772 96.6468 64.6984 96.6635 64.62 96.656Z" fill="#D1D3D4"/>
<path d="M131.43 110.641H101.625V131.809H131.43V110.641Z" fill="white"/>
<path d="M131.43 132.16H101.625C101.524 132.16 101.426 132.12 101.355 132.048C101.283 131.977 101.243 131.88 101.243 131.779V110.641C101.242 110.59 101.251 110.54 101.269 110.493C101.288 110.446 101.316 110.403 101.352 110.367C101.387 110.331 101.43 110.302 101.477 110.282C101.524 110.263 101.574 110.253 101.625 110.253H131.43C131.533 110.253 131.633 110.294 131.706 110.367C131.779 110.439 131.82 110.538 131.82 110.641V131.809C131.812 131.906 131.768 131.997 131.695 132.062C131.623 132.127 131.528 132.162 131.43 132.16ZM102 131.413H131.033V111.022H102V131.413Z" fill="#D1D3D4"/>
<path d="M112.56 128.322C111.597 128.366 110.635 128.215 109.732 127.879C108.829 127.542 108.004 127.027 107.307 126.364C106.609 125.701 106.054 124.904 105.675 124.021C105.296 123.139 105.101 122.189 105.101 121.229C105.101 120.269 105.296 119.319 105.675 118.436C106.054 117.554 106.609 116.757 107.307 116.094C108.004 115.431 108.829 114.916 109.732 114.579C110.635 114.242 111.597 114.092 112.56 114.136C114.002 114.133 115.41 114.571 116.595 115.39C116.637 115.418 116.673 115.454 116.701 115.495C116.729 115.537 116.749 115.584 116.758 115.633C116.768 115.683 116.768 115.733 116.758 115.782C116.748 115.832 116.728 115.878 116.7 115.92L113.295 120.856H119.295C119.346 120.855 119.396 120.864 119.444 120.882C119.491 120.901 119.534 120.929 119.57 120.964C119.607 121 119.636 121.042 119.655 121.089C119.675 121.136 119.685 121.186 119.685 121.236C119.679 123.115 118.926 124.915 117.591 126.243C116.256 127.571 114.447 128.318 112.56 128.322ZM112.56 114.882C111.319 114.882 110.104 115.243 109.066 115.921C108.029 116.599 107.213 117.565 106.72 118.699C106.227 119.834 106.078 121.087 106.292 122.304C106.506 123.522 107.073 124.65 107.923 125.551C108.773 126.451 109.87 127.084 111.077 127.372C112.284 127.659 113.55 127.589 114.717 127.169C115.885 126.749 116.904 125.999 117.648 125.009C118.392 124.02 118.829 122.836 118.905 121.602H112.56C112.489 121.602 112.419 121.582 112.358 121.546C112.297 121.509 112.248 121.456 112.215 121.393C112.179 121.333 112.159 121.265 112.159 121.195C112.159 121.125 112.179 121.057 112.215 120.997L115.815 115.771C114.831 115.188 113.705 114.883 112.56 114.89V114.882Z" fill="#D1D3D4"/>
<path d="M119.303 114.882L115.785 119.467H121.718C121.712 118.566 121.489 117.68 121.069 116.883C120.649 116.085 120.043 115.399 119.303 114.882Z" fill="#D1D3D4"/>
<path d="M128.445 123.245H121.695C121.613 123.222 121.542 123.173 121.491 123.105C121.44 123.038 121.412 122.956 121.412 122.871C121.412 122.787 121.44 122.705 121.491 122.638C121.542 122.57 121.613 122.521 121.695 122.498H128.445C128.503 122.482 128.564 122.479 128.623 122.49C128.683 122.501 128.739 122.525 128.787 122.562C128.835 122.598 128.874 122.645 128.901 122.698C128.928 122.752 128.942 122.811 128.942 122.871C128.942 122.932 128.928 122.991 128.901 123.045C128.874 123.098 128.835 123.145 128.787 123.181C128.739 123.218 128.683 123.242 128.623 123.253C128.564 123.264 128.503 123.261 128.445 123.245Z" fill="#D1D3D4"/>
<path d="M126.158 125.94H121.718C121.636 125.917 121.564 125.868 121.513 125.801C121.462 125.733 121.435 125.651 121.435 125.567C121.435 125.483 121.462 125.401 121.513 125.333C121.564 125.266 121.636 125.217 121.718 125.194H126.158C126.216 125.177 126.277 125.174 126.336 125.185C126.395 125.196 126.451 125.221 126.5 125.257C126.548 125.293 126.587 125.34 126.614 125.394C126.641 125.448 126.655 125.507 126.655 125.567C126.655 125.627 126.641 125.686 126.614 125.74C126.587 125.794 126.548 125.841 126.5 125.877C126.451 125.913 126.395 125.938 126.336 125.949C126.277 125.96 126.216 125.957 126.158 125.94Z" fill="#D1D3D4"/>
</svg>
