<svg width="19" height="16" viewBox="0 0 19 16" fill="none" xmlns="http://www.w3.org/2000/svg">
<path d="M18.0657 6.64351H3.15867L8.23201 1.59821C8.40795 1.42351 8.50728 1.18608 8.50815 0.938144C8.50903 0.690211 8.41138 0.452083 8.23668 0.276148C8.06199 0.100213 7.82455 0.000881936 7.57662 5.84446e-06C7.32869 -0.000870247 7.09056 0.0967807 6.91462 0.271477L0.234264 6.90045C0.191275 6.94363 0.152192 6.99053 0.117474 7.0406V7.06863C0.0895295 7.11126 0.066048 7.15666 0.0474008 7.2041V7.2368C0.0474008 7.28352 0.0146997 7.33023 0.0053565 7.37695C-0.0017855 7.43903 -0.0017855 7.50173 0.0053565 7.56381C0.0053565 7.56381 0.0053565 7.59651 0.0053565 7.61053C0.00281651 7.65565 0.00281651 7.70088 0.0053565 7.74601C0.0053565 7.78805 0.0287151 7.82542 0.0380583 7.8628C0.0407012 7.88295 0.0407012 7.90337 0.0380583 7.92353L0.0987885 8.03564L0.126818 8.08236C0.16003 8.12952 0.195904 8.17475 0.234264 8.21783L6.88659 14.8935C7.06404 15.0549 7.29674 15.1418 7.53652 15.1364C7.7763 15.1309 8.00479 15.0334 8.17468 14.8641C8.34457 14.6948 8.44286 14.4667 8.44918 14.2269C8.4555 13.9872 8.36938 13.7542 8.20865 13.5761L3.14466 8.51214H18.0657C18.3135 8.51214 18.5511 8.41371 18.7263 8.23849C18.9016 8.06327 19 7.82562 19 7.57783C19 7.33003 18.9016 7.09238 18.7263 6.91717C18.5511 6.74195 18.3135 6.64351 18.0657 6.64351Z" fill="#404950"/>
</svg>
