<svg width="16" height="12" viewBox="0 0 16 12" fill="none" xmlns="http://www.w3.org/2000/svg">
<path d="M14.3221 5.26685H2.50414L6.52618 1.26703C6.66566 1.12853 6.7444 0.9403 6.7451 0.743743C6.74579 0.547186 6.66838 0.358403 6.52988 0.218925C6.39139 0.0794466 6.20316 0.000699182 6.0066 4.63338e-06C5.81004 -0.000689915 5.62126 0.0767259 5.48178 0.215222L0.18572 5.47054C0.151639 5.50477 0.120655 5.54195 0.0931314 5.58165V5.60387C0.0709773 5.63767 0.0523616 5.67366 0.0375784 5.71127V5.7372C0.0375784 5.77423 0.0116536 5.81127 0.00424653 5.8483C-0.00141551 5.89752 -0.00141551 5.94723 0.00424653 5.99645C0.00424653 5.99645 0.00424653 6.02237 0.00424653 6.03348C0.00223287 6.06925 0.00223287 6.10511 0.00424653 6.14088C0.00424653 6.17421 0.0227648 6.20384 0.0301719 6.23347C0.0322671 6.24945 0.0322671 6.26564 0.0301719 6.28162L0.0783176 6.3705L0.100539 6.40754C0.126869 6.44493 0.155309 6.48079 0.18572 6.51494L5.45956 11.8073C5.60023 11.9352 5.78471 12.0041 5.97481 11.9998C6.1649 11.9955 6.34604 11.9182 6.48073 11.784C6.61542 11.6498 6.69333 11.4689 6.69835 11.2788C6.70336 11.0887 6.63509 10.904 6.50766 10.7629L2.49302 6.74826H14.3221C14.5186 6.74826 14.707 6.67023 14.8459 6.53132C14.9848 6.39241 15.0628 6.204 15.0628 6.00756C15.0628 5.81111 14.9848 5.6227 14.8459 5.4838C14.707 5.34489 14.5186 5.26685 14.3221 5.26685Z" fill="#777B7C"/>
</svg>
