<svg width="30" height="30" viewBox="0 0 30 30" fill="none" xmlns="http://www.w3.org/2000/svg">
<path d="M20.5753 10.5955H10.3247C10.1355 10.5955 9.97775 10.7532 9.97775 10.9425V20.6253C9.97775 21.3823 10.5928 21.9973 11.3498 21.9973H19.5502C20.3072 21.9973 20.9222 21.3823 20.9222 20.6253V10.9425C20.9222 10.7532 20.7645 10.5955 20.5753 10.5955ZM13.2422 19.1903C13.2422 19.4426 13.0372 19.6476 12.7848 19.6476C12.5325 19.6476 12.3275 19.4426 12.3275 19.1903V13.3711C12.3275 13.1187 12.5325 12.9137 12.7848 12.9137C13.0372 12.9137 13.2422 13.1187 13.2422 13.3711V19.1903ZM15.9073 19.1903C15.9073 19.4426 15.7023 19.6476 15.45 19.6476C15.1977 19.6476 14.9927 19.4426 14.9927 19.1903V13.3711C14.9927 13.1187 15.1977 12.9137 15.45 12.9137C15.7023 12.9137 15.9073 13.1187 15.9073 13.3711V19.1903ZM18.5725 19.1903C18.5725 19.4426 18.3675 19.6476 18.1152 19.6476C17.8628 19.6476 17.6578 19.4426 17.6578 19.1903V13.3711C17.6578 13.1187 17.8628 12.9137 18.1152 12.9137C18.3675 12.9137 18.5725 13.1187 18.5725 13.3711V19.1903Z" fill="#777B7C"/>
<path d="M21.2219 8.30892H18.1782L17.4528 7.29963C17.3266 7.11039 17.1059 7 16.8693 7H14.0307C13.7941 7 13.5891 7.11039 13.4472 7.29963L12.7218 8.30892H9.67812C9.29963 8.30892 9 8.60856 9 8.98704C9 9.36552 9.29963 9.66516 9.67812 9.66516H21.2219C21.6004 9.66516 21.9 9.36552 21.9 8.98704C21.9 8.60856 21.6004 8.30892 21.2219 8.30892Z" fill="#777B7C"/>
</svg>
