<svg width="30" height="30" viewBox="0 0 30 30" fill="none" xmlns="http://www.w3.org/2000/svg">
<path d="M21.6248 8.87504L20.4582 7.458C20.2501 7.16684 19.8756 7 19.4999 7H9.50006C9.12448 7 8.75002 7.16684 8.54179 7.458L7.37529 8.87504C7.12505 9.12463 7 9.50006 7 9.91656V20.3333C7 21.25 7.75 22 8.66677 22H20.3333C21.2501 22 22 21.25 22 20.3332V9.91653C22 9.50006 21.8751 9.12463 21.6248 8.87504ZM14.5 19.0833L9.91671 14.5H12.8334V12.8333H16.1667V14.5H19.0834L14.5 19.0833ZM8.75002 8.66662L9.41659 7.83329H19.4165L20.2085 8.66662H8.75002Z" fill="#777B7C"/>
</svg>
