<svg width="30" height="30" viewBox="0 0 30 30" fill="none" xmlns="http://www.w3.org/2000/svg">
<path d="M13.5119 13.6229H8.31512C7.8754 13.6229 7.51562 13.9867 7.51562 14.4314V15.8462C7.51562 16.2909 7.8754 16.6547 8.31512 16.6547H13.5119V21.9098C13.5119 22.3545 13.8716 22.7183 14.3114 22.7183H15.7105C16.1502 22.7183 16.51 22.3545 16.51 21.9098V16.6547H21.7067C22.1465 16.6547 22.5062 16.2909 22.5062 15.8462V14.4314C22.5062 13.9867 22.1465 13.6229 21.7067 13.6229H16.51V8.36778C16.51 7.92311 16.1502 7.5593 15.7105 7.5593H14.3114C13.8716 7.5593 13.5119 7.92311 13.5119 8.36778V13.6229Z" fill="white"/>
<path d="M4.35694 23.648C3.75732 24.2544 3.75732 25.1842 4.35694 25.7905C6.35569 27.8521 8.91409 29.3074 11.6724 29.9542C12.4719 30.1563 13.3113 29.6712 13.5112 28.8627C13.7111 28.0543 13.2314 27.2054 12.4319 27.0032C12.3919 27.0032 12.3519 27.0032 12.3519 26.9628C10.1133 26.4373 8.07462 25.3054 6.47562 23.648C5.87599 23.0821 4.91659 23.0821 4.35694 23.648Z" fill="white"/>
<path d="M17.6691 26.9628C16.8696 27.1245 16.3499 27.933 16.5098 28.7415C16.6697 29.5499 17.4692 30.0755 18.2687 29.9138C18.3087 29.9138 18.3087 29.9138 18.3486 29.9138C26.4236 28.0947 31.4604 19.929 29.6216 11.8038C28.0625 4.8913 21.9863 0 14.9907 0C14.1513 0 13.4717 0.687208 13.4717 1.53611C13.4717 2.38502 14.1513 3.07222 14.9907 3.07222C21.6266 3.07222 26.9832 8.48904 26.9832 15.1994C27.0232 20.8184 23.1456 25.7097 17.6691 26.9628Z" fill="white"/>
<path d="M0 15.159C0 17.0185 0.3198 18.878 0.999374 20.6163C1.2792 21.3843 2.15865 21.7885 2.95815 21.4652C3.71767 21.1822 4.11742 20.2929 3.79762 19.4844C3.27795 18.0695 2.99812 16.6143 2.99812 15.1186C2.99812 14.2697 2.31855 13.5825 1.47907 13.5825C0.639599 13.5825 0 14.3101 0 15.159Z" fill="white"/>
<path d="M4.07738 6.99335C3.35783 6.58911 2.43841 6.83166 2.03866 7.55929C1.87876 7.84226 1.71886 8.12522 1.59893 8.40819C1.23916 9.13582 1.51898 10.0656 2.23853 10.4294C2.95808 10.7932 3.8775 10.5102 4.23728 9.78261C4.23728 9.78261 4.23728 9.78261 4.23728 9.74218C4.3572 9.49964 4.47713 9.29752 4.59705 9.05498C5.03678 8.36777 4.79693 7.43801 4.07738 6.99335Z" fill="white"/>
</svg>
