<svg width="30" height="30" viewBox="0 0 30 30" fill="none" xmlns="http://www.w3.org/2000/svg">
<path d="M17.7184 18.2857V30H11.9858V18.2857C11.9858 18 12.2725 17.8571 12.4158 17.8571H17.1452C17.4318 17.8571 17.7184 18 17.7184 18.2857Z" fill="white"/>
<path d="M27.4649 1.57143C27.1782 0.571429 26.175 0 25.1718 0H4.53448C3.53128 0 2.67139 0.571429 2.38476 1.57143L0.0917218 8C-0.194908 9 0.0917195 10.4286 2.38476 10.4286C2.8147 10.4286 3.53128 10.1429 3.81791 10C5.53769 8.28571 8.26067 8.28571 9.98045 10C10.4104 10.4286 11.2703 10.4286 11.8435 10C13.5633 8.28571 16.2863 8.28571 18.0061 10C18.436 10.4286 19.2959 10.4286 19.8692 10C20.7291 9.14286 21.8756 8.71429 23.0221 8.71429C24.1686 8.71429 25.3152 9.14286 26.175 10C26.4617 10.2857 27.1782 10.4286 27.4649 10.4286C29.328 10.4286 30.3312 9.28571 29.9012 8L27.4649 1.57143ZM9.12056 4L8.11736 6.85714C7.97404 7.28571 7.68742 7.57143 7.25747 7.57143C7.11416 7.57143 7.11415 7.57143 6.97084 7.57143C6.39758 7.42857 6.25426 6.85714 6.39758 6.42857L7.40078 3.57143C7.5441 3.14286 8.11736 2.85714 8.5473 3C8.97725 3 9.26388 3.57143 9.12056 4ZM15.8564 6.57143C15.8564 7.14286 15.4264 7.57143 14.8532 7.57143C14.2799 7.57143 13.85 7.14286 13.85 6.57143V3.71429C13.85 3.28571 14.2799 2.85714 14.8532 2.85714C15.4264 2.85714 15.8564 3.28571 15.8564 3.71429V6.57143ZM22.7355 7.42857C22.5922 7.42857 22.5922 7.42857 22.4489 7.42857C22.0189 7.42857 21.7323 7.14286 21.589 6.71429L20.5858 3.85714C20.4424 3.42857 20.7291 2.85714 21.159 2.71429C21.589 2.57143 22.1622 2.85714 22.3055 3.28571L23.3087 6.14286C23.4521 6.71429 23.1654 7.28571 22.7355 7.42857ZM24.5986 11.2857C23.5954 10.2857 22.0189 10.2857 21.0157 11.2857C19.8692 12.4286 17.7195 12.4286 16.5729 11.2857C15.5697 10.2857 13.9933 10.2857 12.9901 11.2857C11.8435 12.4286 9.69382 12.4286 8.5473 11.2857C7.5441 10.2857 5.96763 10.2857 4.96443 11.2857C4.39117 11.8571 3.38796 12.2857 2.52807 12.1429C2.09813 12.1429 1.8115 12 1.52487 11.8571V27.5714C1.52487 28.8571 2.52807 30 3.81791 30H9.98045V18.2857C9.98045 17 10.9837 16 12.4168 16H17.1462C18.436 16 19.5826 17 19.5826 18.2857V30H25.7451C27.0349 30 28.1815 29 28.1815 27.5714V11.8571C27.7515 12 27.3216 12.1429 26.8916 12.1429C26.0317 12.1429 25.1718 11.8571 24.5986 11.2857Z" fill="white"/>
</svg>
