<svg width="30" height="30" viewBox="0 0 30 30" fill="none" xmlns="http://www.w3.org/2000/svg">
<path d="M12.5132 9.26165C12.8128 9.26165 13.1124 9.26165 13.412 9.26165C14.1242 9.26165 14.8381 9.26165 15.5503 9.26165C16.4115 9.26165 17.2743 9.26165 18.1355 9.26165C18.8854 9.26165 19.6353 9.26165 20.3851 9.26165C20.7464 9.26165 21.1093 9.26837 21.4706 9.26165C21.4757 9.26165 21.4808 9.26165 21.486 9.26165C21.7548 9.26165 22.0116 9.02977 21.9996 8.75756C21.9876 8.48368 21.7736 8.25348 21.486 8.25348C21.1864 8.25348 20.8868 8.25348 20.5871 8.25348C19.8749 8.25348 19.161 8.25348 18.4488 8.25348C17.5877 8.25348 16.7248 8.25348 15.8636 8.25348C15.1138 8.25348 14.3639 8.25348 13.614 8.25348C13.2528 8.25348 12.8898 8.24675 12.5286 8.25348C12.5234 8.25348 12.5183 8.25348 12.5132 8.25348C12.2444 8.25348 11.9876 8.48536 11.9995 8.75756C12.0115 9.03145 12.2255 9.26165 12.5132 9.26165Z" fill="#777B7C"/>
<path d="M7.51402 9.2616C8.13378 9.2616 8.75353 9.2616 9.37329 9.2616C9.46061 9.2616 9.54963 9.2616 9.63695 9.2616C9.90574 9.2616 10.1625 9.02972 10.1506 8.75751C10.1386 8.48362 9.92457 8.25342 9.63695 8.25342C9.01719 8.25342 8.39743 8.25342 7.77767 8.25342C7.69036 8.25342 7.60133 8.25342 7.51402 8.25342C7.24523 8.25342 6.98842 8.4853 7.0004 8.75751C7.01239 9.0314 7.22639 9.2616 7.51402 9.2616Z" fill="#777B7C"/>
<path d="M11.0751 10.1709C11.8722 10.1709 12.5183 9.53669 12.5183 8.75438C12.5183 7.97208 11.8722 7.33789 11.0751 7.33789C10.278 7.33789 9.63184 7.97208 9.63184 8.75438C9.63184 9.53669 10.278 10.1709 11.0751 10.1709Z" fill="#777B7C"/>
<path d="M11.0751 9.83473C11.0391 9.83473 11.0032 9.83305 10.9672 9.83137C10.957 9.83137 10.9124 9.83305 10.909 9.82633C10.909 9.82633 10.9963 9.84145 10.9296 9.82801C10.8611 9.81625 10.7943 9.80113 10.7275 9.78096C10.7087 9.77424 10.6317 9.75912 10.6197 9.74232C10.6214 9.744 10.6967 9.7776 10.6385 9.74904C10.6248 9.74232 10.6111 9.73559 10.5974 9.72887C10.5341 9.69695 10.4742 9.65998 10.4142 9.62133C10.4108 9.61965 10.4074 9.61629 10.4057 9.61461C10.3766 9.59277 10.3817 9.59781 10.4211 9.62806C10.4159 9.62806 10.3886 9.60117 10.3868 9.59949C10.3646 9.58101 10.3423 9.56084 10.3201 9.54068C10.2961 9.51716 10.2721 9.49363 10.2499 9.47011C10.2379 9.45667 10.2242 9.44322 10.2122 9.4281C10.2037 9.41802 10.1711 9.36593 10.1968 9.4113C10.2242 9.46003 10.1882 9.39954 10.1831 9.39281C10.1746 9.38105 10.166 9.36929 10.1574 9.35585C10.1403 9.33064 10.1249 9.30544 10.1112 9.28023C10.0924 9.24831 10.077 9.2147 10.0598 9.1811C10.0393 9.14077 10.0496 9.18782 10.0667 9.19958C10.0547 9.19118 10.0461 9.14917 10.0427 9.13741C10.0205 9.07692 10.0033 9.01475 9.98965 8.95258C9.98623 8.93745 9.9828 8.92233 9.98109 8.90721C9.97082 8.84504 9.96397 8.90385 9.98109 8.91729C9.9674 8.90553 9.97253 8.82151 9.97253 8.80135C9.97082 8.73414 9.97596 8.66861 9.97938 8.60139C9.9828 8.55099 9.96226 8.68709 9.97767 8.61148C9.98109 8.59635 9.9828 8.58123 9.98623 8.56611C9.99308 8.52914 10.0033 8.49217 10.0136 8.45521C10.0222 8.42664 10.0307 8.39808 10.041 8.36951C10.0479 8.35271 10.0547 8.33423 10.0616 8.31742C10.077 8.27206 10.0239 8.39304 10.0581 8.32583C10.089 8.26702 10.1198 8.2082 10.1557 8.15107C10.1643 8.13931 10.1728 8.12587 10.1814 8.11411C10.1865 8.10739 10.2208 8.0469 10.1951 8.09562C10.1694 8.14267 10.2037 8.08554 10.2105 8.07882C10.2208 8.06706 10.2293 8.05698 10.2396 8.04522C10.2841 7.99649 10.3321 7.94944 10.3834 7.90743C10.392 7.90071 10.4485 7.8671 10.4005 7.89231C10.3577 7.91583 10.3988 7.89399 10.4108 7.88559C10.4382 7.8671 10.4673 7.84862 10.4947 7.83182C10.5204 7.8167 10.5461 7.80157 10.5735 7.78813C10.5906 7.77973 10.6077 7.77133 10.6248 7.76293C10.6351 7.75789 10.6454 7.75284 10.6556 7.74948C10.6128 7.76629 10.6026 7.77133 10.6265 7.76125C10.6882 7.74108 10.7481 7.71756 10.8114 7.70244C10.8457 7.69403 10.8799 7.68731 10.9142 7.68059C10.9296 7.67891 10.9775 7.67723 10.9261 7.67891C10.8679 7.67891 10.9501 7.67723 10.9621 7.67723C11.0306 7.67219 11.0973 7.67219 11.1658 7.67555C11.1864 7.67723 11.2052 7.67891 11.224 7.68059C11.272 7.68395 11.1556 7.66883 11.2035 7.67723C11.2463 7.68563 11.2874 7.69235 11.3285 7.70244C11.3884 7.71756 11.4449 7.73604 11.5031 7.7562C11.575 7.78141 11.4534 7.72764 11.4945 7.75284C11.5099 7.76293 11.5288 7.76797 11.5459 7.77637C11.5801 7.79317 11.6127 7.81165 11.6452 7.83014C11.6709 7.84526 11.6966 7.86206 11.7205 7.87887C11.7205 7.87887 11.7565 7.90071 11.7565 7.90407C11.7548 7.88727 11.7017 7.8587 11.7496 7.89903C11.8027 7.9444 11.8558 7.99145 11.902 8.04354C11.9157 8.05866 11.9585 8.09226 11.9602 8.11075C11.9516 8.09899 11.9431 8.0889 11.9345 8.07714C11.9414 8.08554 11.9482 8.09562 11.9551 8.10403C11.9636 8.11579 11.9722 8.12755 11.9808 8.14099C12.0201 8.1998 12.0527 8.26197 12.0852 8.32415C12.1143 8.38128 12.0801 8.30566 12.0783 8.30566C12.0869 8.31238 12.0955 8.34599 12.0989 8.35775C12.1109 8.38968 12.1211 8.4216 12.1314 8.45353C12.14 8.48209 12.1468 8.51234 12.1537 8.5409C12.1571 8.55603 12.1605 8.57115 12.1622 8.58627C12.1657 8.60139 12.1674 8.61652 12.1691 8.63164C12.1674 8.61652 12.1657 8.60307 12.1622 8.58795C12.1537 8.65348 12.1725 8.73078 12.1708 8.79799C12.1691 8.82991 12.1657 8.86016 12.1639 8.89209C12.1588 8.96938 12.1759 8.83328 12.1657 8.88368C12.1622 8.90217 12.1588 8.92065 12.1554 8.94081C12.14 9.01811 12.116 9.09372 12.0886 9.16765C12.0835 9.18278 12.0578 9.21638 12.0852 9.17942C12.116 9.13573 12.0749 9.1979 12.0698 9.20966C12.0527 9.24327 12.0355 9.27519 12.015 9.30712C11.9945 9.3424 11.9705 9.37433 11.9465 9.40794C11.9208 9.44658 11.9585 9.40962 11.9602 9.39281C11.9602 9.40626 11.9243 9.43482 11.9174 9.44322C11.8678 9.49867 11.8147 9.55076 11.7582 9.59781C11.7513 9.60285 11.7291 9.62469 11.7239 9.62637C11.7616 9.59949 11.7685 9.59277 11.7479 9.60789C11.7394 9.61461 11.7291 9.62133 11.7205 9.62637C11.6897 9.64654 11.6589 9.6667 11.6264 9.68519C11.5938 9.70367 11.5613 9.72047 11.5271 9.73727C11.5288 9.73727 11.4894 9.75744 11.486 9.75576C11.5339 9.73727 11.539 9.73391 11.5048 9.74736C11.498 9.75072 11.4911 9.7524 11.4843 9.75576C11.4124 9.78264 11.3387 9.80281 11.2634 9.81793C11.2446 9.82129 11.2257 9.82465 11.2052 9.82801C11.1795 9.83137 11.1898 9.83137 11.2377 9.82297C11.2257 9.82465 11.2138 9.82633 11.2018 9.82633C11.1624 9.83305 11.1196 9.83473 11.0751 9.83473C10.8953 9.83641 10.7241 9.98764 10.7327 10.1708C10.7412 10.3523 10.8833 10.5085 11.0751 10.5069C11.8335 10.5001 12.4944 10.0313 12.758 9.33736C13.0097 8.67533 12.7871 7.8671 12.229 7.41847C11.9294 7.17818 11.5818 7.03704 11.1932 7.00511C10.8354 6.97655 10.4588 7.06896 10.1523 7.25044C9.50172 7.63858 9.17986 8.38968 9.32709 9.11893C9.48974 9.92211 10.2499 10.4984 11.0734 10.5052C11.2531 10.5069 11.4243 10.3489 11.4158 10.1691C11.4089 9.98764 11.2668 9.83641 11.0751 9.83473Z" fill="#777B7C"/>
<path d="M19.1902 15.0082C19.8613 15.0082 20.5324 15.0082 21.2018 15.0082C21.296 15.0082 21.3901 15.0082 21.4843 15.0082C21.7531 15.0082 22.0099 14.7763 21.9979 14.5041C21.9859 14.2302 21.7719 14 21.4843 14C20.8132 14 20.1421 14 19.4726 14C19.3785 14 19.2843 14 19.1902 14C18.9214 14 18.6646 14.2319 18.6766 14.5041C18.6885 14.778 18.9025 15.0082 19.1902 15.0082Z" fill="#777B7C"/>
<path d="M7.51402 15.0082C7.80677 15.0082 8.10125 15.0082 8.39401 15.0082C9.09252 15.0082 9.79103 15.0082 10.4895 15.0082C11.337 15.0082 12.1845 15.0082 13.0319 15.0082C13.7647 15.0082 14.4974 15.0082 15.2302 15.0082C15.5863 15.0082 15.9424 15.015 16.2985 15.0082C16.3036 15.0082 16.3088 15.0082 16.3139 15.0082C16.5827 15.0082 16.8395 14.7764 16.8275 14.5041C16.8155 14.2303 16.6015 14.0001 16.3139 14.0001C16.0211 14.0001 15.7267 14.0001 15.4339 14.0001C14.7354 14.0001 14.0369 14.0001 13.3384 14.0001C12.4909 14.0001 11.6435 14.0001 10.796 14.0001C10.0632 14.0001 9.33049 14.0001 8.59774 14.0001C8.24163 14.0001 7.88553 13.9933 7.52942 14.0001C7.52429 14.0001 7.51915 14.0001 7.51402 14.0001C7.24523 14.0001 6.98842 14.2319 7.0004 14.5041C7.01239 14.778 7.22639 15.0082 7.51402 15.0082Z" fill="#777B7C"/>
<path d="M17.752 15.9175C18.5491 15.9175 19.1952 15.2833 19.1952 14.501C19.1952 13.7187 18.5491 13.0845 17.752 13.0845C16.9549 13.0845 16.3087 13.7187 16.3087 14.501C16.3087 15.2833 16.9549 15.9175 17.752 15.9175Z" fill="#777B7C"/>
<path d="M17.752 15.5813C17.716 15.5813 17.6801 15.5796 17.6441 15.578C17.6338 15.578 17.5893 15.5796 17.5859 15.5729C17.5859 15.5729 17.6732 15.588 17.6064 15.5746C17.538 15.5628 17.4712 15.5477 17.4044 15.5275C17.3856 15.5208 17.3085 15.5057 17.2966 15.4889C17.2983 15.4906 17.3736 15.5242 17.3154 15.4956C17.3017 15.4889 17.288 15.4822 17.2743 15.4755C17.211 15.4435 17.151 15.4066 17.0911 15.3679C17.0877 15.3662 17.0843 15.3629 17.0826 15.3612C17.0535 15.3394 17.0586 15.3444 17.098 15.3746C17.0928 15.3746 17.0654 15.3478 17.0637 15.3461C17.0415 15.3276 17.0192 15.3074 16.997 15.2873C16.973 15.2637 16.949 15.2402 16.9268 15.2167C16.9148 15.2032 16.9011 15.1898 16.8891 15.1747C16.8805 15.1646 16.848 15.1125 16.8737 15.1579C16.9011 15.2066 16.8651 15.1461 16.86 15.1394C16.8514 15.1276 16.8429 15.1159 16.8343 15.1024C16.8172 15.0772 16.8018 15.052 16.7881 15.0268C16.7693 14.9949 16.7538 14.9613 16.7367 14.9277C16.7162 14.8874 16.7265 14.9344 16.7436 14.9462C16.7316 14.9378 16.723 14.8958 16.7196 14.884C16.6973 14.8235 16.6802 14.7613 16.6665 14.6992C16.6631 14.684 16.6597 14.6689 16.658 14.6538C16.6477 14.5916 16.6409 14.6504 16.658 14.6639C16.6443 14.6521 16.6494 14.5681 16.6494 14.5479C16.6477 14.4807 16.6528 14.4152 16.6563 14.348C16.6597 14.2976 16.6391 14.4337 16.6545 14.3581C16.658 14.3429 16.6597 14.3278 16.6631 14.3127C16.67 14.2757 16.6802 14.2388 16.6905 14.2018C16.6991 14.1732 16.7076 14.1447 16.7179 14.1161C16.7247 14.0993 16.7316 14.0808 16.7384 14.064C16.7538 14.0186 16.7008 14.1396 16.735 14.0724C16.7658 14.0136 16.7966 13.9548 16.8326 13.8977C16.8412 13.8859 16.8497 13.8725 16.8583 13.8607C16.8634 13.854 16.8977 13.7935 16.872 13.8422C16.8463 13.8893 16.8805 13.8321 16.8874 13.8254C16.8977 13.8136 16.9062 13.8036 16.9165 13.7918C16.961 13.7431 17.0089 13.696 17.0603 13.654C17.0689 13.6473 17.1254 13.6137 17.0774 13.6389C17.0346 13.6624 17.0757 13.6406 17.0877 13.6322C17.1151 13.6137 17.1442 13.5952 17.1716 13.5784C17.1973 13.5633 17.2229 13.5482 17.2503 13.5347C17.2675 13.5263 17.2846 13.5179 17.3017 13.5095C17.312 13.5045 17.3222 13.4994 17.3325 13.4961C17.2897 13.5129 17.2794 13.5179 17.3034 13.5078C17.365 13.4877 17.425 13.4641 17.4883 13.449C17.5226 13.4406 17.5568 13.4339 17.591 13.4272C17.6064 13.4255 17.6544 13.4238 17.603 13.4255C17.5448 13.4255 17.627 13.4238 17.639 13.4238C17.7075 13.4188 17.7742 13.4188 17.8427 13.4221C17.8632 13.4238 17.8821 13.4255 17.9009 13.4272C17.9489 13.4305 17.8324 13.4154 17.8804 13.4238C17.9232 13.4322 17.9643 13.4389 18.0053 13.449C18.0653 13.4641 18.1218 13.4826 18.18 13.5028C18.2519 13.528 18.1303 13.4742 18.1714 13.4994C18.1868 13.5095 18.2057 13.5145 18.2228 13.523C18.257 13.5398 18.2895 13.5582 18.3221 13.5767C18.3478 13.5918 18.3734 13.6086 18.3974 13.6254C18.3974 13.6254 18.4334 13.6473 18.4334 13.6507C18.4316 13.6339 18.3786 13.6053 18.4265 13.6456C18.4796 13.691 18.5327 13.738 18.5789 13.7901C18.5926 13.8052 18.6354 13.8388 18.6371 13.8573C18.6285 13.8456 18.62 13.8355 18.6114 13.8237C18.6183 13.8321 18.6251 13.8422 18.632 13.8506C18.6405 13.8624 18.6491 13.8741 18.6576 13.8876C18.697 13.9464 18.7295 14.0086 18.7621 14.0707C18.7912 14.1279 18.7569 14.0522 18.7552 14.0522C18.7638 14.059 18.7723 14.0926 18.7758 14.1043C18.7878 14.1363 18.798 14.1682 18.8083 14.2001C18.8169 14.2287 18.8237 14.2589 18.8306 14.2875C18.834 14.3026 18.8374 14.3177 18.8391 14.3329C18.8425 14.348 18.8442 14.3631 18.846 14.3782C18.8442 14.3631 18.8425 14.3497 18.8391 14.3345C18.8306 14.4001 18.8494 14.4774 18.8477 14.5446C18.846 14.5765 18.8425 14.6067 18.8408 14.6387C18.8357 14.716 18.8528 14.5799 18.8425 14.6303C18.8391 14.6488 18.8357 14.6672 18.8323 14.6874C18.8169 14.7647 18.7929 14.8403 18.7655 14.9142C18.7604 14.9294 18.7347 14.963 18.7621 14.926C18.7929 14.8823 18.7518 14.9445 18.7467 14.9562C18.7295 14.9899 18.7124 15.0218 18.6919 15.0537C18.6713 15.089 18.6474 15.1209 18.6234 15.1545C18.5977 15.1932 18.6354 15.1562 18.6371 15.1394C18.6371 15.1528 18.6011 15.1814 18.5943 15.1898C18.5446 15.2453 18.4916 15.2973 18.4351 15.3444C18.4282 15.3494 18.406 15.3713 18.4008 15.373C18.4385 15.3461 18.4453 15.3394 18.4248 15.3545C18.4162 15.3612 18.406 15.3679 18.3974 15.373C18.3666 15.3931 18.3358 15.4133 18.3032 15.4318C18.2707 15.4503 18.2382 15.4671 18.2039 15.4839C18.2057 15.4839 18.1663 15.504 18.1629 15.5023C18.2108 15.4839 18.2159 15.4805 18.1817 15.4939C18.1748 15.4973 18.168 15.499 18.1611 15.5023C18.0892 15.5292 18.0156 15.5494 17.9403 15.5645C17.9215 15.5679 17.9026 15.5712 17.8821 15.5746C17.8564 15.578 17.8667 15.578 17.9146 15.5696C17.9026 15.5712 17.8906 15.5729 17.8787 15.5729C17.8393 15.5796 17.7965 15.5813 17.752 15.5813C17.5722 15.583 17.401 15.7342 17.4096 15.9174C17.4181 16.0988 17.5602 16.2551 17.752 16.2534C18.5104 16.2467 19.1712 15.7779 19.4349 15.0839C19.6866 14.4219 19.464 13.6137 18.9059 13.165C18.6063 12.9248 18.2587 12.7836 17.8701 12.7517C17.5123 12.7231 17.1356 12.8155 16.8292 12.997C16.1786 13.3852 15.8567 14.1363 16.004 14.8655C16.1666 15.6687 16.9268 16.245 17.7503 16.2518C17.93 16.2534 18.1012 16.0955 18.0927 15.9157C18.0858 15.7342 17.9437 15.583 17.752 15.5813Z" fill="#777B7C"/>
<path d="M15.2524 20.755C15.4579 20.755 15.665 20.755 15.8705 20.755C16.3652 20.755 16.8617 20.755 17.3565 20.755C17.9557 20.755 18.5567 20.755 19.1559 20.755C19.6746 20.755 20.1934 20.755 20.7121 20.755C20.9655 20.755 21.2189 20.7601 21.4723 20.755C21.4757 20.755 21.4791 20.755 21.4842 20.755C21.753 20.755 22.0098 20.5232 21.9979 20.251C21.9859 19.9771 21.7719 19.7469 21.4842 19.7469C21.2788 19.7469 21.0716 19.7469 20.8662 19.7469C20.3714 19.7469 19.8749 19.7469 19.3801 19.7469C18.7809 19.7469 18.18 19.7469 17.5808 19.7469C17.062 19.7469 16.5433 19.7469 16.0245 19.7469C15.7712 19.7469 15.5178 19.7418 15.2644 19.7469C15.261 19.7469 15.2576 19.7469 15.2524 19.7469C14.9836 19.7469 14.7268 19.9787 14.7388 20.251C14.7508 20.5248 14.9648 20.755 15.2524 20.755Z" fill="#777B7C"/>
<path d="M7.51402 20.7548C8.06016 20.7548 8.6063 20.7548 9.15415 20.7548C10.029 20.7548 10.9021 20.7548 11.777 20.7548C11.9773 20.7548 12.1776 20.7548 12.3762 20.7548C12.645 20.7548 12.9018 20.5229 12.8898 20.2507C12.8778 19.9768 12.6638 19.7466 12.3762 19.7466C11.8301 19.7466 11.2839 19.7466 10.7361 19.7466C9.86123 19.7466 8.98808 19.7466 8.11323 19.7466C7.91292 19.7466 7.71261 19.7466 7.51402 19.7466C7.24523 19.7466 6.98842 19.9785 7.0004 20.2507C7.01239 20.5246 7.22639 20.7548 7.51402 20.7548Z" fill="#777B7C"/>
<path d="M13.8143 21.664C14.6114 21.664 15.2576 21.0299 15.2576 20.2475C15.2576 19.4652 14.6114 18.8311 13.8143 18.8311C13.0173 18.8311 12.3711 19.4652 12.3711 20.2475C12.3711 21.0299 13.0173 21.664 13.8143 21.664Z" fill="#777B7C"/>
<path d="M13.8143 21.3279C13.7784 21.3279 13.7424 21.3262 13.7065 21.3245C13.6962 21.3245 13.6517 21.3262 13.6483 21.3195C13.6483 21.3195 13.7356 21.3346 13.6688 21.3212C13.6003 21.3094 13.5336 21.2943 13.4668 21.2741C13.448 21.2674 13.3709 21.2523 13.3589 21.2355C13.3607 21.2372 13.436 21.2708 13.3778 21.2422C13.3641 21.2355 13.3504 21.2288 13.3367 21.222C13.2733 21.1901 13.2134 21.1531 13.1535 21.1145C13.1501 21.1128 13.1466 21.1095 13.1449 21.1078C13.1158 21.0859 13.121 21.091 13.1603 21.1212C13.1552 21.1212 13.1278 21.0943 13.1261 21.0927C13.1038 21.0742 13.0816 21.054 13.0593 21.0338C13.0354 21.0103 13.0114 20.9868 12.9891 20.9633C12.9772 20.9498 12.9635 20.9364 12.9515 20.9213C12.9429 20.9112 12.9104 20.8591 12.9361 20.9045C12.9635 20.9532 12.9275 20.8927 12.9224 20.886C12.9138 20.8742 12.9053 20.8625 12.8967 20.849C12.8796 20.8238 12.8642 20.7986 12.8505 20.7734C12.8316 20.7415 12.8162 20.7079 12.7991 20.6743C12.7786 20.6339 12.7888 20.681 12.806 20.6927C12.794 20.6843 12.7854 20.6423 12.782 20.6306C12.7597 20.5701 12.7426 20.5079 12.7289 20.4457C12.7255 20.4306 12.7221 20.4155 12.7203 20.4004C12.7101 20.3382 12.7032 20.397 12.7203 20.4105C12.7067 20.3987 12.7118 20.3147 12.7118 20.2945C12.7101 20.2273 12.7152 20.1618 12.7186 20.0946C12.7221 20.0441 12.7015 20.1803 12.7169 20.1046C12.7203 20.0895 12.7221 20.0744 12.7255 20.0593C12.7323 20.0223 12.7426 19.9853 12.7529 19.9484C12.7614 19.9198 12.77 19.8912 12.7803 19.8627C12.7871 19.8459 12.794 19.8274 12.8008 19.8106C12.8162 19.7652 12.7632 19.8862 12.7974 19.819C12.8282 19.7602 12.859 19.7014 12.895 19.6442C12.9035 19.6325 12.9121 19.619 12.9207 19.6073C12.9258 19.6006 12.96 19.5401 12.9344 19.5888C12.9087 19.6358 12.9429 19.5787 12.9498 19.572C12.96 19.5602 12.9686 19.5501 12.9789 19.5384C13.0234 19.4897 13.0713 19.4426 13.1227 19.4006C13.1312 19.3939 13.1877 19.3603 13.1398 19.3855C13.097 19.409 13.1381 19.3872 13.1501 19.3788C13.1775 19.3603 13.2066 19.3418 13.234 19.325C13.2596 19.3099 13.2853 19.2947 13.3127 19.2813C13.3298 19.2729 13.347 19.2645 13.3641 19.2561C13.3743 19.251 13.3846 19.246 13.3949 19.2426C13.3521 19.2595 13.3418 19.2645 13.3658 19.2544C13.4274 19.2342 13.4873 19.2107 13.5507 19.1956C13.5849 19.1872 13.6192 19.1805 13.6534 19.1738C13.6688 19.1721 13.7168 19.1704 13.6654 19.1721C13.6072 19.1721 13.6894 19.1704 13.7013 19.1704C13.7698 19.1654 13.8366 19.1654 13.9051 19.1687C13.9256 19.1704 13.9445 19.1721 13.9633 19.1738C14.0112 19.1771 13.8948 19.162 13.9427 19.1704C13.9855 19.1788 14.0266 19.1855 14.0677 19.1956C14.1276 19.2107 14.1841 19.2292 14.2424 19.2494C14.3143 19.2746 14.1927 19.2208 14.2338 19.246C14.2492 19.2561 14.268 19.2611 14.2852 19.2695C14.3194 19.2863 14.3519 19.3048 14.3845 19.3233C14.4101 19.3384 14.4358 19.3552 14.4598 19.372C14.4598 19.372 14.4957 19.3939 14.4957 19.3972C14.494 19.3804 14.441 19.3519 14.4889 19.3922C14.542 19.4376 14.595 19.4846 14.6413 19.5367C14.655 19.5518 14.6978 19.5854 14.6995 19.6039C14.6909 19.5921 14.6823 19.5821 14.6738 19.5703C14.6806 19.5787 14.6875 19.5888 14.6943 19.5972C14.7029 19.609 14.7115 19.6207 14.72 19.6342C14.7594 19.693 14.7919 19.7551 14.8244 19.8173C14.8536 19.8744 14.8193 19.7988 14.8176 19.7988C14.8262 19.8055 14.8347 19.8392 14.8381 19.8509C14.8501 19.8828 14.8604 19.9148 14.8707 19.9467C14.8792 19.9753 14.8861 20.0055 14.8929 20.0341C14.8964 20.0492 14.8998 20.0643 14.9015 20.0794C14.9049 20.0946 14.9066 20.1097 14.9083 20.1248C14.9066 20.1097 14.9049 20.0962 14.9015 20.0811C14.8929 20.1466 14.9118 20.2239 14.9101 20.2912C14.9083 20.3231 14.9049 20.3533 14.9032 20.3852C14.8981 20.4625 14.9152 20.3264 14.9049 20.3768C14.9015 20.3953 14.8981 20.4138 14.8946 20.434C14.8792 20.5113 14.8553 20.5869 14.8279 20.6608C14.8227 20.6759 14.7971 20.7095 14.8244 20.6726C14.8553 20.6289 14.8142 20.6911 14.809 20.7028C14.7919 20.7364 14.7748 20.7684 14.7543 20.8003C14.7337 20.8356 14.7097 20.8675 14.6858 20.9011C14.6601 20.9397 14.6978 20.9028 14.6995 20.886C14.6995 20.8994 14.6635 20.928 14.6567 20.9364C14.607 20.9918 14.5539 21.0439 14.4974 21.091C14.4906 21.096 14.4683 21.1179 14.4632 21.1195C14.5009 21.0927 14.5077 21.0859 14.4872 21.1011C14.4786 21.1078 14.4683 21.1145 14.4598 21.1195C14.429 21.1397 14.3981 21.1599 14.3656 21.1783C14.3331 21.1968 14.3006 21.2136 14.2663 21.2304C14.268 21.2304 14.2287 21.2506 14.2252 21.2489C14.2732 21.2304 14.2783 21.2271 14.2441 21.2405C14.2372 21.2439 14.2304 21.2456 14.2235 21.2489C14.1516 21.2758 14.078 21.296 14.0027 21.3111C13.9838 21.3145 13.965 21.3178 13.9445 21.3212C13.9188 21.3245 13.9291 21.3245 13.977 21.3161C13.965 21.3178 13.953 21.3195 13.941 21.3195C13.9017 21.3262 13.8589 21.3279 13.8143 21.3279C13.6346 21.3296 13.4634 21.4808 13.4719 21.664C13.4805 21.8454 13.6226 22.0017 13.8143 22C14.5728 21.9933 15.2336 21.5245 15.4973 20.8305C15.749 20.1685 15.5264 19.3603 14.9683 18.9116C14.6687 18.6713 14.3211 18.5302 13.9325 18.4983C13.5747 18.4697 13.198 18.5621 12.8916 18.7436C12.241 19.1317 11.9191 19.8828 12.0664 20.6121C12.229 21.4153 12.9891 21.9916 13.8126 21.9983C13.9924 22 14.1636 21.8421 14.155 21.6623C14.1482 21.4808 14.0061 21.3296 13.8143 21.3279Z" fill="#777B7C"/>
</svg>
