<svg width="105" height="32" viewBox="0 0 105 32" fill="none" xmlns="http://www.w3.org/2000/svg">
<g clip-path="url(#clip0)">
<path d="M100.831 31.0249H3.87795C3.36727 31.03 2.86071 30.9332 2.38791 30.7401C1.91512 30.547 1.48559 30.2615 1.12447 29.9004C0.763344 29.5393 0.477884 29.1098 0.284795 28.637C0.0917058 28.1642 -0.00513331 27.6576 -5.42153e-05 27.1469V3.87795C-0.00513331 3.36727 0.0917058 2.86071 0.284795 2.38791C0.477884 1.91512 0.763344 1.48559 1.12447 1.12447C1.48559 0.763344 1.91512 0.477884 2.38791 0.284795C2.86071 0.0917058 3.36727 -0.00513331 3.87795 -5.42153e-05H100.831C101.342 -0.00513331 101.848 0.0917058 102.321 0.284795C102.794 0.477884 103.223 0.763344 103.584 1.12447C103.946 1.48559 104.231 1.91512 104.424 2.38791C104.617 2.86071 104.714 3.36727 104.709 3.87795V27.1469C104.714 27.6576 104.617 28.1642 104.424 28.637C104.231 29.1098 103.946 29.5393 103.584 29.9004C103.223 30.2615 102.794 30.547 102.321 30.7401C101.848 30.9332 101.342 31.03 100.831 31.0249Z" fill="black"/>
<path d="M100.831 0.62C101.693 0.624987 102.519 0.96984 103.129 1.57976C103.739 2.18967 104.084 3.01546 104.089 3.878V27.147C104.084 28.0095 103.739 28.8353 103.129 29.4452C102.519 30.0552 101.693 30.4 100.831 30.405H3.87795C3.01541 30.4 2.18962 30.0552 1.5797 29.4452C0.969786 28.8353 0.624932 28.0095 0.619946 27.147V3.878C0.624932 3.01546 0.969786 2.18967 1.5797 1.57976C2.18962 0.96984 3.01541 0.624987 3.87795 0.62H100.831ZM100.831 0H3.87795C2.85033 0.00290252 1.86563 0.412408 1.13899 1.13905C0.412354 1.86568 0.0028483 2.85038 -5.42153e-05 3.878V27.147C-0.00513331 27.6577 0.0917058 28.1642 0.284795 28.637C0.477884 29.1098 0.763344 29.5394 1.12447 29.9005C1.48559 30.2616 1.91512 30.5471 2.38791 30.7402C2.86071 30.9332 3.36727 31.0301 3.87795 31.025H100.831C101.342 31.0301 101.848 30.9332 102.321 30.7402C102.794 30.5471 103.223 30.2616 103.584 29.9005C103.946 29.5394 104.231 29.1098 104.424 28.637C104.617 28.1642 104.714 27.6577 104.709 27.147V3.878C104.706 2.85038 104.297 1.86568 103.57 1.13905C102.843 0.412408 101.859 0.00290252 100.831 0V0Z" fill="#A6A6A6"/>
<path d="M36.765 7.91197C36.7827 8.19366 36.7437 8.47603 36.6505 8.74242C36.5572 9.00881 36.4115 9.25381 36.222 9.46297C35.8863 9.80434 35.4562 10.0375 34.9869 10.1325C34.5176 10.2274 34.0307 10.1799 33.5886 9.9959C33.1466 9.81192 32.7697 9.49995 32.5064 9.10008C32.2431 8.70021 32.1054 8.23072 32.111 7.75197C32.1089 7.43621 32.1695 7.12316 32.2894 6.83102C32.4092 6.53888 32.5859 6.27346 32.8092 6.05018C33.0325 5.82689 33.2979 5.65019 33.5901 5.53033C33.8822 5.41047 34.1952 5.34985 34.511 5.35197C34.8353 5.35545 35.1543 5.43527 35.442 5.58497C35.7195 5.70046 35.9611 5.88791 36.142 6.12797L35.754 6.51597C35.6071 6.33054 35.417 6.18397 35.2003 6.08913C34.9836 5.99428 34.7469 5.95406 34.511 5.97197C34.2765 5.96212 34.0428 6.00591 33.8277 6.10001C33.6127 6.19411 33.4219 6.33603 33.27 6.51497C33.0836 6.67785 32.9376 6.88174 32.8434 7.11061C32.7492 7.33949 32.7093 7.5871 32.727 7.83397C32.7093 8.08085 32.7492 8.32846 32.8434 8.55733C32.9376 8.7862 33.0836 8.9901 33.27 9.15297C33.6079 9.47282 34.0468 9.66484 34.511 9.69597C34.7571 9.70641 35.0025 9.66326 35.2302 9.5695C35.458 9.47575 35.6626 9.33362 35.83 9.15297C35.9542 9.03202 36.0526 8.88717 36.1192 8.72717C36.1859 8.56716 36.2195 8.39531 36.218 8.22197H34.511V7.60197H36.76V7.91197H36.765ZM40.333 5.97197H38.238V7.44597H40.177V7.98897H38.238V9.46297H40.332V10.083H37.618V5.42997H40.333V5.97197ZM42.893 10.083H42.273V5.97197H40.953V5.42997H44.211V5.97197H42.892L42.893 10.083ZM46.461 10.083V5.42997H47.081V10.084L46.461 10.083ZM49.719 10.083H49.098V5.97197H47.779V5.42997H50.959V5.97197H49.64V10.083H49.719ZM57.087 9.46297C56.7514 9.80469 56.3211 10.0382 55.8517 10.1333C55.3822 10.2285 54.8951 10.181 54.4528 9.997C54.0106 9.81299 53.6335 9.50086 53.3702 9.10077C53.1068 8.70068 52.9692 8.23093 52.975 7.75197C52.975 7.11426 53.2283 6.50267 53.6793 6.05173C54.1302 5.6008 54.7418 5.34747 55.3795 5.34747C56.0172 5.34747 56.6288 5.6008 57.0797 6.05173C57.5307 6.50267 57.784 7.11426 57.784 7.75197C57.7935 8.07009 57.7363 8.38667 57.6161 8.68136C57.4959 8.97604 57.3153 9.24229 57.086 9.46297H57.087ZM54.14 9.07497C54.469 9.40805 54.9131 9.60237 55.381 9.61797C55.6155 9.62782 55.8492 9.58403 56.0643 9.48994C56.2793 9.39584 56.4701 9.25392 56.622 9.07497C56.9707 8.72311 57.1656 8.24733 57.164 7.75197C57.1817 7.5051 57.1418 7.25749 57.0476 7.02861C56.9534 6.79974 56.8074 6.59585 56.621 6.43297C56.292 6.0999 55.8479 5.90557 55.38 5.88997C55.1455 5.88012 54.9118 5.92391 54.6967 6.01801C54.4817 6.11211 54.2909 6.25403 54.139 6.43297C53.7909 6.78369 53.5957 7.25785 53.596 7.75197C53.5777 7.9995 53.6172 8.2479 53.7115 8.47752C53.8057 8.70713 53.9521 8.91168 54.139 9.07497H54.14ZM58.64 10.083V5.42997H59.34L61.589 9.07497V5.42997H62.21V10.084H61.589L59.189 6.28397V10.084H58.646L58.64 10.083Z" fill="white" stroke="white" stroke-width="0.2" stroke-miterlimit="10"/>
<path d="M52.82 16.908C52.3793 16.8981 51.9413 16.9777 51.5322 17.1418C51.1231 17.3059 50.7516 17.5512 50.4399 17.8629C50.1282 18.1745 49.8829 18.5461 49.7188 18.9552C49.5547 19.3643 49.4752 19.8023 49.485 20.243C49.4817 20.6819 49.5657 21.117 49.7321 21.5232C49.8985 21.9293 50.144 22.2983 50.4544 22.6086C50.7647 22.9189 51.1337 23.1645 51.5398 23.3309C51.9459 23.4973 52.3811 23.5813 52.82 23.578C53.2607 23.5878 53.6987 23.5083 54.1078 23.3442C54.5169 23.18 54.8884 22.9347 55.2001 22.6231C55.5118 22.3114 55.7571 21.9398 55.9212 21.5308C56.0853 21.1217 56.1648 20.6836 56.155 20.243C56.1714 19.8006 56.0964 19.3596 55.9346 18.9476C55.7728 18.5355 55.5277 18.1613 55.2147 17.8483C54.9017 17.5353 54.5274 17.2902 54.1154 17.1284C53.7034 16.9666 53.2624 16.8916 52.82 16.908ZM52.82 22.182C52.3132 22.1413 51.8402 21.9111 51.4954 21.5375C51.1505 21.1638 50.959 20.674 50.959 20.1655C50.959 19.657 51.1505 19.1672 51.4954 18.7935C51.8402 18.4198 52.3132 18.1897 52.82 18.149C53.0768 18.1512 53.3304 18.206 53.5651 18.31C53.7999 18.4141 54.0108 18.5651 54.1849 18.7538C54.359 18.9426 54.4926 19.165 54.5774 19.4073C54.6622 19.6497 54.6965 19.9069 54.678 20.163C54.6908 20.4181 54.6526 20.6732 54.5658 20.9135C54.4789 21.1537 54.3451 21.3742 54.1722 21.5622C53.9993 21.7503 53.7907 21.902 53.5585 22.0085C53.3263 22.1151 53.0753 22.1744 52.82 22.183V22.182ZM45.607 16.908C45.1663 16.8981 44.7283 16.9777 44.3192 17.1418C43.9101 17.3059 43.5386 17.5512 43.2269 17.8629C42.9152 18.1745 42.6699 18.5461 42.5058 18.9552C42.3417 19.3643 42.2622 19.8023 42.272 20.243C42.2687 20.6819 42.3527 21.117 42.5191 21.5232C42.6855 21.9293 42.931 22.2983 43.2414 22.6086C43.5517 22.9189 43.9207 23.1645 44.3268 23.3309C44.7329 23.4973 45.1681 23.5813 45.607 23.578C46.0476 23.5878 46.4857 23.5083 46.8948 23.3442C47.3039 23.18 47.6754 22.9347 47.9871 22.6231C48.2988 22.3114 48.5441 21.9398 48.7082 21.5308C48.8723 21.1217 48.9518 20.6836 48.942 20.243C48.9584 19.8006 48.8834 19.3596 48.7216 18.9476C48.5598 18.5355 48.3147 18.1613 48.0017 17.8483C47.6887 17.5353 47.3144 17.2902 46.9024 17.1284C46.4904 16.9666 46.0494 16.8916 45.607 16.908ZM45.607 22.182C45.1001 22.1413 44.6272 21.9111 44.2824 21.5375C43.9375 21.1638 43.746 20.674 43.746 20.1655C43.746 19.657 43.9375 19.1672 44.2824 18.7935C44.6272 18.4198 45.1001 18.1897 45.607 18.149C45.864 18.1508 46.1179 18.2053 46.353 18.3091C46.5882 18.413 46.7995 18.564 46.9739 18.7527C47.1483 18.9415 47.2822 19.1641 47.3672 19.4066C47.4522 19.6492 47.4865 19.9066 47.468 20.163C47.4807 20.4184 47.4425 20.6737 47.3555 20.9141C47.2684 21.1546 47.1344 21.3752 46.9612 21.5633C46.7879 21.7513 46.5789 21.903 46.3464 22.0094C46.1139 22.1158 45.8626 22.1748 45.607 22.183V22.182ZM36.998 17.916V19.316H40.333C40.2848 19.9816 40.0111 20.6109 39.557 21.1C39.2229 21.4355 38.823 21.6982 38.3824 21.8717C37.9418 22.0451 37.4702 22.1256 36.997 22.108C36.5104 22.1128 36.0278 22.0192 35.5782 21.8328C35.1287 21.6464 34.7215 21.3711 34.381 21.0233C34.0406 20.6756 33.7739 20.2626 33.5971 19.8092C33.4202 19.3559 33.3369 18.8714 33.352 18.385C33.3437 17.9004 33.4317 17.4189 33.6109 16.9686C33.7902 16.5183 34.0571 16.1081 34.3963 15.7618C34.7354 15.4156 35.1399 15.1401 35.5864 14.9515C36.0328 14.7628 36.5123 14.6648 36.997 14.663C37.9454 14.6718 38.8572 15.0308 39.557 15.671L40.565 14.663C39.6299 13.7572 38.3768 13.2546 37.075 13.263C35.7123 13.271 34.4065 13.8104 33.4354 14.7664C32.4642 15.7224 31.9044 17.0196 31.875 18.382C31.9044 19.7444 32.4642 21.0416 33.4354 21.9976C34.4065 22.9536 35.7123 23.493 37.075 23.501C37.7421 23.538 38.409 23.4247 39.0266 23.1696C39.6441 22.9145 40.1965 22.524 40.643 22.027C41.4618 21.142 41.9065 19.9745 41.884 18.769C41.9002 18.4824 41.874 18.1949 41.806 17.916H36.997H36.998ZM72.21 19.003C72.0193 18.4074 71.6482 17.8859 71.1479 17.5108C70.6477 17.1356 70.0431 16.9253 69.418 16.909C68.9914 16.9113 68.5698 17.0009 68.1792 17.1724C67.7885 17.3439 67.4372 17.5936 67.1467 17.906C66.8563 18.2185 66.6329 18.5871 66.4904 18.9892C66.3478 19.3913 66.2892 19.8183 66.318 20.244C66.3061 20.6789 66.3817 21.1117 66.5403 21.5168C66.699 21.9219 66.9374 22.2909 67.2416 22.602C67.5457 22.9131 67.9092 23.1599 68.3106 23.3278C68.7119 23.4956 69.143 23.581 69.578 23.579C70.1185 23.5841 70.6514 23.4515 71.1264 23.1936C71.6014 22.9357 72.0029 22.561 72.293 22.105L71.207 21.329C71.0403 21.613 70.8023 21.8486 70.5166 22.0125C70.2309 22.1763 69.9074 22.2626 69.578 22.263C69.2362 22.2805 68.8971 22.1935 68.6061 22.0134C68.315 21.8333 68.0858 21.5687 67.949 21.255L72.37 19.394L72.215 19.006L72.21 19.003ZM67.71 20.089C67.6939 19.6093 67.8614 19.1415 68.1785 18.7812C68.4955 18.4208 68.9382 18.1951 69.416 18.15C69.6671 18.1418 69.9157 18.2028 70.1345 18.3263C70.3533 18.4497 70.5341 18.6309 70.657 18.85L67.71 20.089ZM64.065 23.269H65.539V13.569H64.066L64.065 23.269ZM61.738 17.607C61.269 17.1231 60.6278 16.8442 59.954 16.831C59.0977 16.8714 58.2899 17.2401 57.6984 17.8607C57.1069 18.4812 56.7773 19.3057 56.778 20.163C56.7719 20.586 56.8495 21.006 57.0061 21.3989C57.1628 21.7918 57.3956 22.15 57.6911 22.4527C57.9866 22.7554 58.3389 22.9968 58.728 23.163C59.117 23.3291 59.535 23.4168 59.958 23.421C60.2817 23.4234 60.602 23.3552 60.8966 23.2212C61.1912 23.0872 61.4531 22.8905 61.664 22.645H61.742V23.11C61.786 23.5384 61.6716 23.968 61.4206 24.3179C61.1695 24.6678 60.799 24.9137 60.3791 25.0091C59.9592 25.1046 59.5188 25.0431 59.1411 24.8362C58.7635 24.6293 58.4746 24.2913 58.329 23.886L57.088 24.429C57.3351 25.0054 57.7462 25.4965 58.2702 25.8412C58.7941 26.186 59.4078 26.3691 60.035 26.368C61.741 26.368 63.135 25.36 63.135 22.955V17.063H61.735V17.606L61.738 17.607ZM60.033 22.183C59.5261 22.1423 59.0532 21.9121 58.7084 21.5385C58.3635 21.1648 58.172 20.675 58.172 20.1665C58.172 19.658 58.3635 19.1682 58.7084 18.7945C59.0532 18.4208 59.5261 18.1907 60.033 18.15C60.2839 18.1602 60.5303 18.221 60.7571 18.3287C60.984 18.4364 61.1868 18.5888 61.3534 18.7768C61.52 18.9648 61.6469 19.1844 61.7266 19.4226C61.8062 19.6608 61.837 19.9126 61.817 20.163C61.838 20.4139 61.808 20.6665 61.7288 20.9055C61.6496 21.1445 61.5228 21.365 61.3561 21.5537C61.1894 21.7425 60.9863 21.8955 60.7589 22.0036C60.5315 22.1118 60.2846 22.1728 60.033 22.183ZM78.958 13.573H75.468V23.273H76.942V19.623H78.958C79.3683 19.6441 79.7787 19.5815 80.1641 19.439C80.5494 19.2965 80.9018 19.0771 81.1997 18.7941C81.4976 18.5112 81.7348 18.1705 81.8969 17.793C82.059 17.4154 82.1426 17.0089 82.1426 16.598C82.1426 16.1871 82.059 15.7805 81.8969 15.403C81.7348 15.0254 81.4976 14.6848 81.1997 14.4018C80.9018 14.1189 80.5494 13.8994 80.1641 13.757C79.7787 13.6145 79.3683 13.5519 78.958 13.573ZM79.036 18.227H76.942V14.892H79.036C79.4759 14.89 79.8994 15.0587 80.2175 15.3625C80.5356 15.6662 80.7236 16.0815 80.742 16.521C80.7249 16.968 80.5397 17.3921 80.2234 17.7084C79.9071 18.0247 79.483 18.2099 79.036 18.227ZM87.956 16.827C87.4303 16.7849 86.9041 16.9032 86.4471 17.1664C85.99 17.4296 85.6235 17.8252 85.396 18.301L86.715 18.844C86.8436 18.6122 87.0366 18.4227 87.2708 18.2985C87.5049 18.1742 87.77 18.1206 88.034 18.144C88.4015 18.1165 88.7658 18.2293 89.0535 18.4595C89.3413 18.6897 89.5312 19.0204 89.585 19.385V19.463C89.134 19.2121 88.6271 19.0787 88.111 19.075C86.711 19.075 85.319 19.851 85.319 21.247C85.3318 21.5479 85.4042 21.8433 85.5322 22.116C85.6602 22.3887 85.8411 22.6332 86.0644 22.8353C86.2878 23.0374 86.549 23.1931 86.8331 23.2933C87.1171 23.3935 87.4183 23.4362 87.719 23.419C88.0823 23.4311 88.443 23.3523 88.7681 23.1897C89.0933 23.0272 89.3727 22.7859 89.581 22.488H89.659V23.264H91.059V19.545C91.0025 18.7759 90.6457 18.06 90.0656 17.552C89.4855 17.0439 88.7288 16.7846 87.959 16.83L87.956 16.827ZM87.801 22.179C87.336 22.179 86.638 21.946 86.638 21.326C86.638 20.55 87.491 20.318 88.189 20.318C88.6466 20.3194 89.0977 20.4254 89.508 20.628C89.4498 21.0459 89.2471 21.4302 88.9351 21.7142C88.6231 21.9983 88.2215 22.1641 87.8 22.183L87.801 22.179ZM95.945 17.06L94.316 21.248H94.238L92.532 17.063H90.978L93.538 22.958L92.064 26.216H93.538L97.494 17.064H95.943L95.945 17.06ZM82.915 23.26H84.388V13.56H82.914L82.915 23.26Z" fill="white"/>
<path d="M8.06594 5.81702C7.82659 6.12558 7.71554 6.5146 7.75594 6.90302V24.044C7.7391 24.4427 7.87828 24.8323 8.14394 25.13L8.22194 25.208L17.8399 15.59V15.435L8.06594 5.81702Z" fill="url(#paint0_linear)"/>
<path d="M20.942 18.847L17.762 15.667V15.434L20.942 12.254L21.02 12.332L24.82 14.504C25.0566 14.582 25.2626 14.7326 25.4087 14.9345C25.5547 15.1365 25.6333 15.3793 25.6333 15.6285C25.6333 15.8777 25.5547 16.1205 25.4087 16.3224C25.2626 16.5243 25.0566 16.675 24.82 16.753L20.942 18.847Z" fill="url(#paint1_linear)"/>
<path d="M21.0189 18.77L17.7659 15.512L8.06592 25.212C8.45392 25.6 8.99692 25.6 9.69492 25.29L21.0189 18.775" fill="url(#paint2_linear)"/>
<path d="M21.0189 12.254L9.69492 5.81599C9.45891 5.63267 9.16532 5.53943 8.86679 5.55299C8.56826 5.56655 8.28433 5.68603 8.06592 5.88999L17.7659 15.508L21.0189 12.254Z" fill="url(#paint3_linear)"/>
<path opacity="0.2" d="M20.9409 18.692L9.69492 25.052C9.47285 25.2237 9.2001 25.3168 8.91942 25.3168C8.63874 25.3168 8.36599 25.2237 8.14392 25.052L8.06592 25.13L8.14392 25.208C8.36599 25.3797 8.63874 25.4728 8.91942 25.4728C9.2001 25.4728 9.47285 25.3797 9.69492 25.208L20.9409 18.692Z" fill="black"/>
<path opacity="0.12" d="M8.06594 25.052C7.82659 24.7434 7.71554 24.3544 7.75594 23.966V24.044C7.7391 24.4426 7.87828 24.8322 8.14394 25.13V25.052H8.06594ZM24.8189 16.52L20.9419 18.692L21.0199 18.77L24.8199 16.598C25.0359 16.5049 25.2223 16.3545 25.3589 16.163C25.4955 15.9716 25.5771 15.7465 25.5949 15.512C25.5949 15.9 25.2849 16.212 24.8199 16.52H24.8189Z" fill="black"/>
<path opacity="0.25" d="M9.69486 5.89599L24.8199 14.505C25.2849 14.815 25.5959 15.125 25.5959 15.513C25.5779 15.2784 25.4962 15.0532 25.3594 14.8617C25.2226 14.6703 25.036 14.5199 24.8199 14.427L9.69486 5.81699C8.60886 5.19599 7.75586 5.66199 7.75586 6.90299V6.98099C7.75586 5.81699 8.60886 5.27399 9.69486 5.89599Z" fill="white"/>
</g>
<defs>
<linearGradient id="paint0_linear" x1="16.9115" y1="25.8285" x2="1.48456" y2="21.6492" gradientUnits="userSpaceOnUse">
<stop stop-color="#00A0FF"/>
<stop offset="0.007" stop-color="#00A1FF"/>
<stop offset="0.26" stop-color="#00BEFF"/>
<stop offset="0.512" stop-color="#00D2FF"/>
<stop offset="0.76" stop-color="#00DFFF"/>
<stop offset="1" stop-color="#00E3FF"/>
</linearGradient>
<linearGradient id="paint1_linear" x1="26.2394" y1="17.0603" x2="7.47406" y2="17.0603" gradientUnits="userSpaceOnUse">
<stop stop-color="#FFE000"/>
<stop offset="0.409" stop-color="#FFBD00"/>
<stop offset="0.775" stop-color="#FFA500"/>
<stop offset="1" stop-color="#FF9C00"/>
</linearGradient>
<linearGradient id="paint2_linear" x1="19.2573" y1="15.2819" x2="6.86305" y2="-5.51589" gradientUnits="userSpaceOnUse">
<stop stop-color="#FF3A44"/>
<stop offset="1" stop-color="#C31162"/>
</linearGradient>
<linearGradient id="paint3_linear" x1="5.65666" y1="32.4436" x2="11.1529" y2="23.1444" gradientUnits="userSpaceOnUse">
<stop stop-color="#32A071"/>
<stop offset="0.069" stop-color="#2DA771"/>
<stop offset="0.476" stop-color="#15CF74"/>
<stop offset="0.801" stop-color="#06E775"/>
<stop offset="1" stop-color="#00F076"/>
</linearGradient>
<clipPath id="clip0">
<rect width="104.709" height="31.025" fill="white"/>
</clipPath>
</defs>
</svg>
