<svg width="105" height="32" viewBox="0 0 105 32" fill="none" xmlns="http://www.w3.org/2000/svg">
<g clip-path="url(#clip0)">
<path d="M101.026 31.025H3.67C3.18806 31.0253 2.71079 30.9305 2.26547 30.7463C1.82015 30.562 1.41552 30.2918 1.07469 29.951C0.733855 29.6103 0.463515 29.2057 0.279114 28.7605C0.0947136 28.3152 -0.000131326 27.8379 1.36475e-07 27.356V3.669C-0.000131326 3.18706 0.0947136 2.70982 0.279114 2.26455C0.463515 1.81928 0.733855 1.41472 1.07469 1.07398C1.41552 0.733242 1.82015 0.463011 2.26547 0.278732C2.71079 0.0944526 3.18806 -0.000262254 3.67 5.45381e-07H101.026C101.508 -0.000262254 101.985 0.0944526 102.431 0.278732C102.876 0.463011 103.28 0.733242 103.621 1.07398C103.962 1.41472 104.232 1.81928 104.417 2.26455C104.601 2.70982 104.696 3.18706 104.696 3.669V27.356C104.696 27.8379 104.601 28.3152 104.417 28.7605C104.232 29.2057 103.962 29.6103 103.621 29.951C103.28 30.2918 102.876 30.562 102.431 30.7463C101.985 30.9305 101.508 31.0253 101.026 31.025Z" fill="#A6A6A6"/>
<path d="M104.009 27.356C104.01 27.7457 103.933 28.1316 103.785 28.4917C103.636 28.8518 103.417 29.1789 103.142 29.4544C102.866 29.7299 102.539 29.9482 102.179 30.0969C101.819 30.2457 101.433 30.3218 101.043 30.321H3.6871C2.89843 30.3231 2.14118 30.012 1.58182 29.456C1.02245 28.9 0.70675 28.1447 0.704102 27.356V3.66801C0.704894 2.87684 1.01933 2.11825 1.5785 1.55853C2.13766 0.9988 2.89593 0.683599 3.6871 0.682011H101.043C101.435 0.681353 101.823 0.758029 102.185 0.907643C102.547 1.05726 102.876 1.27687 103.154 1.55389C103.431 1.83091 103.65 2.1599 103.8 2.522C103.95 2.88409 104.027 3.27218 104.026 3.66401L104.009 27.356Z" fill="black"/>
<path d="M23.3749 15.345C23.3843 14.5866 23.5861 13.843 23.9612 13.1838C24.3364 12.5246 24.8727 11.9714 25.5199 11.576C25.1089 10.9881 24.566 10.5047 23.9346 10.1643C23.3032 9.82395 22.6009 9.63618 21.8839 9.61601C20.3589 9.44801 18.8839 10.537 18.0969 10.537C17.3099 10.537 16.1029 9.63701 14.8129 9.66601C13.9785 9.69517 13.1657 9.93854 12.4525 10.3727C11.7394 10.8068 11.1499 11.4172 10.7409 12.145C8.9819 15.194 10.2889 19.667 11.9809 22.112C12.8189 23.318 13.8069 24.658 15.0979 24.612C16.3549 24.562 16.8239 23.812 18.3489 23.812C19.8569 23.812 20.2929 24.612 21.6169 24.583C22.9739 24.566 23.8289 23.377 24.6329 22.154C25.2377 21.2951 25.7015 20.3451 26.0069 19.34C25.2264 19.0032 24.5615 18.4457 24.0938 17.7358C23.6262 17.026 23.3763 16.195 23.3749 15.345ZM20.8949 7.99101C21.6284 7.10628 21.9888 5.97082 21.8999 4.82501C20.7742 4.94776 19.7347 5.48537 18.9839 6.33301C18.619 6.74809 18.3394 7.231 18.1611 7.75416C17.9828 8.27731 17.9094 8.83046 17.9449 9.38201C18.5099 9.39007 19.0692 9.26915 19.5804 9.02845C20.0916 8.78775 20.5412 8.43363 20.8949 7.99301V7.99101Z" fill="white"/>
<path d="M101.026 1.36364e-07H48.8792L69.3051 31.025H101.025C101.507 31.0253 101.984 30.9305 102.43 30.7463C102.875 30.562 103.28 30.2918 103.62 29.951C103.961 29.6103 104.232 29.2057 104.416 28.7605C104.6 28.3152 104.695 27.8379 104.695 27.356V3.669C104.695 3.18714 104.6 2.70998 104.416 2.26478C104.232 1.81958 103.961 1.41506 103.621 1.07433C103.28 0.733608 102.875 0.463357 102.43 0.279019C101.985 0.0946806 101.508 -0.000131249 101.026 1.36364e-07Z" fill="url(#paint0_linear)"/>
<path d="M41.64 24.443H39.881L38.909 21.411H35.558L34.636 24.443H32.927L36.245 14.124H38.302L41.64 24.443ZM38.624 20.138L37.753 17.438C37.653 17.17 37.485 16.517 37.234 15.495H37.202C37.102 15.931 36.934 16.584 36.716 17.438L35.861 20.138H38.624ZM50.169 20.624C50.2276 21.7213 49.8547 22.798 49.13 23.624C48.8392 23.9431 48.4835 24.1963 48.0869 24.3667C47.6902 24.5371 47.2617 24.6207 46.83 24.612C46.413 24.6458 45.9946 24.5655 45.6197 24.3797C45.2448 24.1938 44.9276 23.9094 44.702 23.557V27.457H43.06V19.433C43.06 18.646 43.043 17.825 42.993 16.987H44.451L44.551 18.16H44.584C44.8335 17.7753 45.1696 17.4542 45.5653 17.2226C45.961 16.991 46.4055 16.8551 46.8631 16.826C47.3207 16.7968 47.7788 16.8751 48.2007 17.0547C48.6227 17.2342 48.9967 17.51 49.293 17.86C49.9009 18.6489 50.2111 19.6269 50.169 20.622V20.624ZM48.493 20.691C48.5154 20.0583 48.346 19.4337 48.007 18.899C47.847 18.666 47.6314 18.4767 47.3798 18.348C47.1282 18.2193 46.8486 18.1554 46.566 18.162C46.162 18.1622 45.7707 18.3037 45.46 18.562C45.1223 18.8309 44.8907 19.2107 44.806 19.634C44.7621 19.7976 44.7339 19.965 44.722 20.134V21.374C44.7078 21.8789 44.8866 22.3703 45.222 22.748C45.3841 22.9281 45.5835 23.0708 45.8062 23.1663C46.0289 23.2618 46.2698 23.3077 46.512 23.301C46.7959 23.3129 47.0783 23.2532 47.3331 23.1274C47.5879 23.0015 47.8069 22.8137 47.97 22.581C48.3452 22.0238 48.5288 21.3597 48.493 20.689V20.691ZM58.748 20.624C58.8065 21.7213 58.4336 22.798 57.709 23.624C57.4182 23.9431 57.0625 24.1963 56.6658 24.3667C56.2692 24.5371 55.8406 24.6207 55.409 24.612C54.9919 24.6458 54.5736 24.5655 54.1987 24.3797C53.8238 24.1938 53.5065 23.9094 53.281 23.557V27.457H51.622V19.433C51.622 18.646 51.605 17.825 51.555 16.987H53.013L53.113 18.16H53.147C53.3965 17.7753 53.7326 17.4542 54.1283 17.2226C54.524 16.991 54.9685 16.8551 55.4261 16.826C55.8837 16.7968 56.3418 16.8751 56.7637 17.0547C57.1857 17.2342 57.5597 17.51 57.856 17.86C58.469 18.647 58.7848 19.6251 58.748 20.622V20.624ZM57.056 20.691C57.0784 20.0583 56.9089 19.4337 56.57 18.899C56.41 18.666 56.1945 18.4767 55.9429 18.348C55.6913 18.2193 55.4116 18.1554 55.129 18.162C54.725 18.1622 54.3337 18.3037 54.023 18.562C53.6853 18.8309 53.4537 19.2107 53.369 19.634C53.3221 19.7969 53.294 19.9647 53.285 20.134V21.374C53.2708 21.8789 53.4496 22.3703 53.785 22.748C53.9472 22.928 54.1465 23.0707 54.3693 23.1662C54.592 23.2617 54.8328 23.3077 55.075 23.301C55.3589 23.3129 55.6413 23.2532 55.8961 23.1274C56.1508 23.0015 56.3699 22.8137 56.533 22.581C56.9081 22.0238 57.0917 21.3597 57.056 20.689V20.691ZM68.316 21.545C68.3296 21.9482 68.254 22.3494 68.0946 22.72C67.9352 23.0906 67.696 23.4215 67.394 23.689C66.6021 24.3319 65.5971 24.6532 64.579 24.589C63.6437 24.6278 62.7159 24.4073 61.898 23.952L62.283 22.578C63.0083 23.0091 63.8394 23.2296 64.683 23.215C65.2029 23.248 65.718 23.0999 66.141 22.796C66.31 22.6633 66.4452 22.4924 66.5355 22.2974C66.6257 22.1024 66.6684 21.8887 66.66 21.674C66.6631 21.4777 66.6259 21.2829 66.551 21.1015C66.476 20.9201 66.3647 20.7559 66.224 20.619C65.8088 20.258 65.3242 19.9858 64.8 19.819C62.99 19.149 62.085 18.1607 62.085 16.854C62.0741 16.4577 62.1545 16.0642 62.3201 15.704C62.4857 15.3439 62.7321 15.0266 63.04 14.777C63.7606 14.2165 64.6582 13.9327 65.57 13.977C66.3794 13.9514 67.1834 14.1179 67.916 14.463L67.497 15.803C66.8885 15.4815 66.2081 15.3201 65.52 15.334C65.0243 15.3079 64.536 15.4629 64.146 15.77C64.0141 15.8881 63.9086 16.0326 63.8364 16.1943C63.7642 16.3559 63.7269 16.531 63.727 16.708C63.7211 16.9005 63.7605 17.0917 63.8419 17.2663C63.9234 17.4408 64.0446 17.5938 64.196 17.713C64.6526 18.0586 65.1618 18.3287 65.704 18.513C66.4482 18.7699 67.1204 19.2005 67.665 19.769C67.8868 20.0061 68.0587 20.2852 68.1707 20.5899C68.2827 20.8946 68.3325 21.2187 68.317 21.543L68.316 21.545ZM73.795 18.245H71.968V21.863C71.968 22.784 72.287 23.237 72.94 23.237C73.1886 23.2482 73.4373 23.2198 73.677 23.153L73.727 24.409C73.3106 24.5435 72.8744 24.6057 72.437 24.593C72.1546 24.6091 71.872 24.5638 71.6087 24.4602C71.3454 24.3566 71.1077 24.1972 70.912 23.993C70.4887 23.4129 70.292 22.698 70.359 21.983V18.231H69.272V16.991H70.361V15.634L71.987 15.148V17.007H73.813L73.795 18.245ZM82.006 20.657C82.0424 21.686 81.6892 22.6909 81.017 23.471C80.6719 23.8479 80.2488 24.1451 79.7772 24.3418C79.3055 24.5385 78.7966 24.63 78.286 24.61C77.7973 24.6294 77.3103 24.542 76.8588 24.3539C76.4074 24.1659 76.0024 23.8816 75.672 23.521C75.0085 22.7634 74.6607 21.7803 74.7 20.774C74.6575 19.7366 75.0164 18.7227 75.702 17.943C76.045 17.574 76.4642 17.2839 76.9304 17.093C77.3966 16.902 77.8987 16.8147 78.402 16.837C78.8932 16.8175 79.3828 16.9048 79.837 17.0928C80.2913 17.2808 80.6993 17.5651 81.033 17.926C81.6976 18.676 82.045 19.6548 82.002 20.656L82.006 20.657ZM80.297 20.69C80.3124 20.0751 80.1618 19.4675 79.861 18.931C79.7196 18.659 79.5051 18.4318 79.2418 18.275C78.9784 18.1181 78.6765 18.0378 78.37 18.043C78.0585 18.0351 77.7509 18.114 77.4816 18.2708C77.2123 18.4276 76.9919 18.6562 76.845 18.931C76.5348 19.4757 76.3837 20.0966 76.409 20.723C76.3936 21.3379 76.5443 21.9455 76.845 22.482C76.9916 22.753 77.209 22.9792 77.4741 23.1362C77.7392 23.2932 78.042 23.3753 78.3501 23.3735C78.6582 23.3718 78.9601 23.2863 79.2234 23.1263C79.4867 22.9663 79.7016 22.7377 79.845 22.465C80.1572 21.9262 80.314 21.3115 80.298 20.689L80.297 20.69ZM87.385 18.445C87.214 18.4118 87.0402 18.3951 86.866 18.395C86.6055 18.3806 86.3457 18.4331 86.1111 18.5474C85.8766 18.6617 85.6752 18.834 85.526 19.048C85.2363 19.4837 85.0899 19.999 85.107 20.522V24.422H83.448V19.329C83.448 18.542 83.431 17.771 83.398 16.984H84.839L84.906 18.408H84.956C85.109 17.9451 85.3945 17.5372 85.777 17.235C86.1229 16.9819 86.5386 16.8422 86.967 16.835C87.1073 16.837 87.2472 16.848 87.386 16.868L87.385 18.445ZM94.791 20.371C94.7937 20.6239 94.7712 20.8765 94.724 21.125H89.764C89.7503 21.4429 89.8079 21.76 89.9327 22.0527C90.0574 22.3455 90.2461 22.6067 90.485 22.817C90.946 23.1809 91.5234 23.3653 92.11 23.336C92.7964 23.345 93.4785 23.2256 94.121 22.984L94.372 24.123C93.5778 24.4411 92.7273 24.5949 91.872 24.575C91.3731 24.6046 90.8735 24.5289 90.4058 24.3528C89.938 24.1767 89.5126 23.9042 89.157 23.553C88.8209 23.1851 88.5604 22.7545 88.3907 22.2859C88.2211 21.8173 88.1454 21.3199 88.168 20.822C88.127 19.8079 88.4545 18.8133 89.09 18.022C89.3978 17.6316 89.7942 17.32 90.2463 17.1133C90.6985 16.9065 91.1933 16.8104 91.69 16.833C92.163 16.806 92.635 16.9012 93.0606 17.1095C93.4862 17.3177 93.851 17.632 94.12 18.022C94.5872 18.7124 94.8219 19.5339 94.79 20.367L94.791 20.371ZM93.216 19.935C93.2387 19.4885 93.128 19.0453 92.898 18.662C92.7627 18.436 92.5672 18.2521 92.3334 18.1308C92.0996 18.0095 91.8367 17.9555 91.574 17.975C91.3153 17.9695 91.0592 18.0277 90.8283 18.1445C90.5974 18.2614 90.3988 18.4333 90.25 18.645C89.9707 19.0212 89.8024 19.468 89.764 19.935H93.216ZM35.087 10.47C34.6893 10.4762 34.2916 10.4538 33.897 10.403V5.41099C34.3634 5.34435 34.8339 5.31094 35.305 5.31099C37.198 5.31099 38.07 6.24899 38.07 7.77399C38.071 9.51599 37.032 10.47 35.088 10.47H35.087ZM35.355 5.94698C35.136 5.94428 34.9171 5.96102 34.701 5.99699V9.78299C34.8848 9.80013 35.0695 9.80581 35.254 9.79999C35.523 9.82559 35.7942 9.79002 36.0474 9.69594C36.3007 9.60186 36.5293 9.4517 36.7163 9.25673C36.9033 9.06175 37.0438 8.82701 37.1272 8.57006C37.2106 8.31311 37.2348 8.04062 37.198 7.77299C37.2274 7.52454 37.1999 7.27265 37.1175 7.03642C37.0351 6.80018 36.9001 6.58577 36.7227 6.40945C36.5452 6.23312 36.3299 6.09948 36.0931 6.01867C35.8563 5.93785 35.6043 5.91197 35.356 5.94299L35.355 5.94698ZM40.784 10.504C40.5419 10.5077 40.3017 10.4607 40.0787 10.3662C39.8558 10.2717 39.6551 10.1316 39.4894 9.95501C39.3237 9.77841 39.1967 9.56915 39.1166 9.34064C39.0364 9.11212 39.0049 8.86939 39.024 8.62799C39.003 8.37818 39.0351 8.12675 39.1182 7.89021C39.2012 7.65367 39.3333 7.43736 39.5058 7.25549C39.6783 7.07361 39.8874 6.93027 40.1192 6.83488C40.351 6.73949 40.6004 6.6942 40.851 6.70199C41.0938 6.69579 41.3351 6.74102 41.5592 6.83471C41.7833 6.9284 41.985 7.06842 42.1511 7.24559C42.3172 7.42276 42.444 7.63307 42.5231 7.8627C42.6022 8.09233 42.6318 8.3361 42.61 8.57799C42.6275 8.82687 42.5931 9.07667 42.5089 9.31153C42.4247 9.5464 42.2926 9.7612 42.121 9.9423C41.9494 10.1234 41.742 10.2669 41.512 10.3635C41.282 10.4602 41.0345 10.5081 40.785 10.504H40.784ZM40.818 7.28799C40.232 7.28799 39.846 7.84098 39.846 8.61098C39.846 9.36498 40.231 9.91798 40.801 9.91798C41.371 9.91798 41.756 9.33199 41.756 8.59499C41.774 7.84299 41.389 7.28799 40.819 7.28799H40.818ZM48.71 6.76899L47.571 10.421H46.817L46.348 8.82999C46.231 8.44499 46.13 8.04298 46.048 7.64098H46.031C45.9647 8.04506 45.8643 8.44281 45.731 8.82999L45.231 10.421H44.477L43.405 6.76899H44.243L44.662 8.51099C44.762 8.92999 44.846 9.31099 44.913 9.68399H44.93C44.997 9.38399 45.081 8.99699 45.23 8.51099L45.749 6.76899H46.419L46.919 8.47799C47.0363 8.89666 47.1363 9.29866 47.219 9.68399H47.236C47.2941 9.27709 47.3779 8.87428 47.487 8.47799L47.939 6.76899H48.71ZM52.916 10.421H52.116V8.32699C52.116 7.67399 51.865 7.35499 51.379 7.35499C51.2666 7.35858 51.1559 7.38449 51.0535 7.43122C50.9512 7.47795 50.8591 7.54457 50.7827 7.6272C50.7063 7.70983 50.6471 7.80682 50.6085 7.91254C50.5699 8.01825 50.5528 8.13058 50.558 8.24299V10.421H49.737V7.80798C49.737 7.48998 49.737 7.13799 49.703 6.76899H50.423L50.457 7.33899H50.474C50.5947 7.14146 50.7647 6.97881 50.9675 6.8671C51.1702 6.75539 51.3986 6.69848 51.63 6.70199C52.401 6.70199 52.903 7.28799 52.903 8.24299L52.916 10.421ZM55.161 10.421H54.34V5.07699H55.161V10.421ZM58.127 10.505C57.885 10.5085 57.6449 10.4615 57.4221 10.3669C57.1992 10.2723 56.9986 10.1322 56.833 9.95564C56.6674 9.77905 56.5406 9.56984 56.4605 9.34139C56.3804 9.11295 56.3489 8.87031 56.368 8.62899C56.3471 8.37927 56.3791 8.12793 56.462 7.89146C56.545 7.65499 56.6771 7.43873 56.8495 7.25687C57.0219 7.075 57.2308 6.93164 57.4625 6.83619C57.6942 6.74073 57.9435 6.69534 58.194 6.70299C58.4368 6.69679 58.6782 6.74202 58.9022 6.83571C59.1263 6.9294 59.328 7.06942 59.4941 7.24659C59.6603 7.42376 59.787 7.63407 59.8661 7.8637C59.9452 8.09333 59.9748 8.3371 59.953 8.57899C59.9703 8.8277 59.9359 9.07731 59.8517 9.31198C59.7675 9.54666 59.6355 9.76128 59.464 9.94226C59.2925 10.1232 59.0853 10.2666 58.8555 10.3633C58.6257 10.46 58.3783 10.5079 58.129 10.504L58.127 10.505ZM58.16 7.28899C57.574 7.28899 57.188 7.84198 57.188 8.61198C57.188 9.36598 57.573 9.91898 58.143 9.91898C58.713 9.91898 59.098 9.33299 59.098 8.59599C59.102 7.84299 58.732 7.28799 58.162 7.28799L58.16 7.28899ZM63.153 10.422L63.086 10.003H63.069C62.9453 10.1681 62.7826 10.3001 62.5956 10.3873C62.4086 10.4745 62.203 10.5143 61.997 10.503C61.8516 10.5115 61.7061 10.49 61.5693 10.4398C61.4326 10.3896 61.3077 10.3118 61.2023 10.2113C61.097 10.1107 61.0135 9.98953 60.957 9.85529C60.9005 9.72105 60.8723 9.57661 60.874 9.43098C60.874 8.53098 61.662 8.05698 63.019 8.05698V7.98999C63.019 7.50399 62.768 7.26999 62.265 7.26999C61.9269 7.26098 61.594 7.3544 61.31 7.53799L61.142 7.00198C61.521 6.77549 61.9579 6.66494 62.399 6.68399C63.354 6.68399 63.84 7.18399 63.84 8.19199V9.53199C63.8353 9.82316 63.852 10.1143 63.89 10.403L63.153 10.422ZM63.036 8.59599C62.136 8.59599 61.679 8.81398 61.679 9.33298C61.6707 9.40841 61.6791 9.48474 61.7037 9.55653C61.7283 9.62831 61.7685 9.69378 61.8213 9.74824C61.8741 9.8027 61.9383 9.84481 62.0093 9.87157C62.0803 9.89832 62.1564 9.90904 62.232 9.90298C62.435 9.90824 62.6321 9.83424 62.7814 9.69666C62.9308 9.55907 63.0207 9.36873 63.032 9.16599L63.036 8.59599ZM67.778 10.422L67.744 9.83598H67.727C67.6178 10.0496 67.4487 10.2268 67.2404 10.3457C67.032 10.4647 66.7935 10.5204 66.554 10.506C66.3284 10.4913 66.1081 10.4308 65.9067 10.328C65.7053 10.2253 65.527 10.0826 65.3827 9.90856C65.2383 9.73455 65.131 9.53291 65.0673 9.31599C65.0035 9.09907 64.9847 8.87143 65.012 8.64699C64.9823 8.41242 65.001 8.17425 65.067 7.9472C65.133 7.72016 65.2448 7.50906 65.3956 7.32696C65.5464 7.14485 65.733 6.99561 65.9437 6.88846C66.1545 6.78131 66.385 6.71852 66.621 6.70399C66.8233 6.68507 67.0269 6.72161 67.21 6.80971C67.393 6.8978 67.5486 7.03411 67.66 7.20399H67.677V5.07599H68.502V9.43198C68.502 9.78398 68.519 10.119 68.536 10.42L67.778 10.422ZM67.661 8.27798C67.6707 8.15847 67.656 8.03824 67.6177 7.9246C67.5795 7.81096 67.5185 7.70628 67.4385 7.61695C67.3586 7.52762 67.2612 7.45549 67.1525 7.40495C67.0437 7.35442 66.9259 7.32653 66.806 7.32299C66.206 7.32299 65.834 7.85898 65.834 8.61298C65.834 9.34998 66.219 9.85299 66.789 9.85299C66.9105 9.84793 67.0299 9.81857 67.1399 9.76666C67.2499 9.71475 67.3484 9.64133 67.4296 9.55074C67.5107 9.46014 67.573 9.3542 67.6125 9.23917C67.6521 9.12415 67.6683 9.00236 67.66 8.88099L67.661 8.27798ZM73.643 10.506C73.401 10.5095 73.1609 10.4625 72.938 10.3679C72.7152 10.2733 72.5146 10.1332 72.349 9.95663C72.1834 9.78005 72.0566 9.57084 71.9765 9.34239C71.8964 9.11395 71.8649 8.87131 71.884 8.62999C71.8631 8.38026 71.8951 8.12892 71.9781 7.89246C72.0611 7.65599 72.1931 7.43973 72.3655 7.25787C72.5379 7.076 72.7468 6.93264 72.9785 6.83719C73.2102 6.74173 73.4595 6.69634 73.71 6.70399C73.9529 6.69764 74.1943 6.74277 74.4185 6.8364C74.6427 6.93002 74.8446 7.07002 75.0108 7.24721C75.177 7.42439 75.3039 7.63475 75.3831 7.86446C75.4622 8.09416 75.4918 8.33801 75.47 8.57999C75.4872 8.82871 75.4526 9.07829 75.3683 9.31291C75.284 9.54754 75.1518 9.76209 74.9802 9.94298C74.8086 10.1239 74.6014 10.2671 74.3715 10.3637C74.1417 10.4603 73.8943 10.508 73.645 10.504L73.643 10.506ZM73.677 7.28999C73.091 7.28999 72.722 7.84298 72.722 8.61298C72.722 9.36698 73.107 9.91999 73.677 9.91999C74.247 9.91999 74.632 9.33398 74.632 8.59698C74.617 7.84298 74.248 7.28799 73.679 7.28799L73.677 7.28999ZM79.843 10.423H79.022V8.32899C79.022 7.67599 78.771 7.35699 78.285 7.35699C78.1738 7.36143 78.0644 7.38808 77.9636 7.43539C77.8628 7.48269 77.7725 7.54969 77.6979 7.63243C77.6234 7.71518 77.5661 7.812 77.5295 7.9172C77.493 8.0224 77.4778 8.13385 77.485 8.24499V10.423H76.664V7.80999C76.664 7.49199 76.664 7.13999 76.63 6.77099H77.351L77.384 7.34099H77.401C77.5217 7.14346 77.6917 6.98081 77.8945 6.8691C78.0972 6.75739 78.3256 6.70048 78.557 6.70399C79.328 6.70399 79.831 7.28999 79.831 8.24499V10.423H79.843ZM85.306 7.37399H84.418V9.14299C84.418 9.59499 84.569 9.81299 84.887 9.81299C85.0107 9.81271 85.1342 9.80166 85.256 9.77998L85.273 10.4C85.0681 10.4689 84.8518 10.4975 84.636 10.484C83.999 10.484 83.614 10.132 83.614 9.21098V7.36799H83.078V6.76799H83.614V6.09798L84.414 5.86298V6.76299H85.302L85.306 7.37399ZM89.613 10.423H88.813V8.34299C88.813 7.68999 88.562 7.35499 88.076 7.35499C87.9629 7.35157 87.8504 7.37216 87.7459 7.41541C87.6414 7.45866 87.5472 7.52358 87.4697 7.60589C87.3921 7.6882 87.3328 7.78603 87.2958 7.89291C87.2588 7.9998 87.2449 8.11333 87.255 8.22599V10.437H86.455V5.07599H87.255V7.27099H87.272C87.3848 7.08023 87.5472 6.92366 87.742 6.81799C87.9368 6.71232 88.1566 6.66151 88.378 6.67099C89.149 6.67099 89.618 7.27099 89.618 8.22899L89.613 10.423ZM94.02 8.79799H91.574C91.5687 8.94824 91.5954 9.09791 91.6525 9.23699C91.7096 9.37607 91.7958 9.50135 91.9052 9.60445C92.0147 9.70754 92.1449 9.78607 92.2871 9.8348C92.4293 9.88353 92.5804 9.90132 92.73 9.88699C93.0667 9.88588 93.4008 9.82912 93.719 9.71899L93.853 10.289C93.4645 10.4443 93.0483 10.5185 92.63 10.507C92.3838 10.5262 92.1365 10.4916 91.905 10.4056C91.6736 10.3195 91.4637 10.1841 91.2899 10.0087C91.1161 9.83325 90.9827 9.6221 90.8987 9.38988C90.8148 9.15767 90.7825 8.90996 90.804 8.66399C90.7788 8.41999 90.8044 8.17342 90.8792 7.93979C90.9539 7.70616 91.0762 7.49051 91.2383 7.30642C91.4004 7.12233 91.5988 6.97377 91.8211 6.87009C92.0434 6.76642 92.2848 6.70987 92.53 6.70399C92.7494 6.70341 92.9664 6.74988 93.1663 6.84026C93.3662 6.93063 93.5444 7.06281 93.689 7.2279C93.8335 7.39298 93.941 7.58713 94.0041 7.79725C94.0672 8.00737 94.0846 8.22858 94.055 8.44598C94.0586 8.56329 94.0472 8.68059 94.021 8.79499L94.02 8.79799ZM93.283 8.21199C93.283 7.64199 92.998 7.23999 92.483 7.23999C92.2389 7.25808 92.011 7.36882 91.8459 7.54953C91.6808 7.73024 91.591 7.96725 91.595 8.21199H93.283Z" fill="white"/>
</g>
<defs>
<linearGradient id="paint0_linear" x1="22.4224" y1="27.5192" x2="22.4224" y2="33.569" gradientUnits="userSpaceOnUse">
<stop stop-color="#1A1A1A" stop-opacity="0.102"/>
<stop offset="0.123" stop-color="#212121" stop-opacity="0.153"/>
<stop offset="0.308" stop-color="#353535" stop-opacity="0.227"/>
<stop offset="0.532" stop-color="#575757" stop-opacity="0.318"/>
<stop offset="0.783" stop-color="#858585" stop-opacity="0.42"/>
<stop offset="1" stop-color="#B3B3B3" stop-opacity="0.51"/>
</linearGradient>
<clipPath id="clip0">
<rect width="104.696" height="31.025" fill="white"/>
</clipPath>
</defs>
</svg>
