<svg width="10" height="10" viewBox="0 0 10 10" fill="none" xmlns="http://www.w3.org/2000/svg">
<path d="M2.80072 2.30242C2.80072 2.60181 2.56185 2.84444 2.26753 2.84444H0.533612C0.238867 2.84444 0 2.60181 0 2.30242V0.541593C0 0.243067 0.238867 0 0.533612 0H2.26711C2.56142 0 2.80029 0.243067 2.80029 0.541593V2.30242H2.80072Z" fill="#788995"/>
<path d="M6.40036 2.30242C6.40036 2.60181 6.16106 2.84444 5.86675 2.84444H4.13325C3.83851 2.84444 3.60007 2.60181 3.60007 2.30242V0.541593C3.60007 0.243067 3.83851 0 4.13325 0H5.86675C6.16106 0 6.40036 0.243067 6.40036 0.541593V2.30242Z" fill="#788995"/>
<path d="M10 2.30242C10 2.60181 9.7607 2.84444 9.46639 2.84444H7.73289C7.43857 2.84444 7.19971 2.60181 7.19971 2.30242V0.541593C7.19971 0.243067 7.43857 0 7.73289 0H9.46639C9.7607 0 10 0.243067 10 0.541593V2.30242Z" fill="#788995"/>
<path d="M2.80072 5.88042C2.80072 6.17981 2.56185 6.42245 2.26753 6.42245H0.533612C0.238867 6.42245 0 6.17981 0 5.88042V4.12003C0 3.82107 0.238867 3.578 0.533612 3.578H2.26711C2.56142 3.578 2.80029 3.82107 2.80029 4.12003V5.88042H2.80072Z" fill="#788995"/>
<path d="M6.40036 5.88042C6.40036 6.17981 6.16106 6.42245 5.86675 6.42245H4.13325C3.83851 6.42245 3.60007 6.17981 3.60007 5.88042V4.12003C3.60007 3.82107 3.83851 3.578 4.13325 3.578H5.86675C6.16106 3.578 6.40036 3.82107 6.40036 4.12003V5.88042Z" fill="#788995"/>
<path d="M10 5.88042C10 6.17981 9.7607 6.42245 9.46639 6.42245H7.73289C7.43857 6.42245 7.19971 6.17981 7.19971 5.88042V4.12003C7.19971 3.82107 7.43857 3.578 7.73289 3.578H9.46639C9.7607 3.578 10 3.82107 10 4.12003V5.88042Z" fill="#788995"/>
<path d="M2.80072 9.45843C2.80072 9.75782 2.56185 10 2.26753 10H0.533612C0.238867 10 0 9.75782 0 9.45843V7.69803C0 7.39907 0.238867 7.15601 0.533612 7.15601H2.26711C2.56142 7.15601 2.80029 7.39907 2.80029 7.69803V9.45843H2.80072Z" fill="#788995"/>
<path d="M6.40036 9.45843C6.40036 9.75782 6.16106 10 5.86675 10H4.13325C3.83851 10 3.60007 9.75782 3.60007 9.45843V7.69803C3.60007 7.39907 3.83851 7.15601 4.13325 7.15601H5.86675C6.16106 7.15601 6.40036 7.39907 6.40036 7.69803V9.45843Z" fill="#788995"/>
<path d="M10 9.45843C10 9.75782 9.7607 10 9.46639 10H7.73289C7.43857 10 7.19971 9.75782 7.19971 9.45843V7.69803C7.19971 7.39907 7.43857 7.15601 7.73289 7.15601H9.46639C9.7607 7.15601 10 7.39907 10 7.69803V9.45843Z" fill="#788995"/>
</svg>
