<svg width="24" height="24" viewBox="0 0 24 24" fill="none" xmlns="http://www.w3.org/2000/svg">
<g style="mix-blend-mode:luminosity">
<path d="M14.4062 19.0234C14.5859 19.1953 14.8047 19.2891 15.0547 19.2891C15.5781 19.2891 15.9844 18.8828 15.9844 18.3672C15.9844 18.1094 15.8828 17.875 15.7031 17.6953L10.2344 12.3516L15.7031 7.02344C15.8828 6.84375 15.9844 6.60156 15.9844 6.35156C15.9844 5.83594 15.5781 5.42969 15.0547 5.42969C14.8047 5.42969 14.5859 5.52344 14.4141 5.69531L8.33594 11.6328C8.11719 11.8359 8.00781 12.0859 8.00781 12.3594C8.00781 12.6328 8.11719 12.8672 8.32812 13.0781L14.4062 19.0234Z" fill="#797979"/>
</g>
</svg>
