<svg width="16" height="11" viewBox="0 0 16 11" fill="none" xmlns="http://www.w3.org/2000/svg">
<path d="M8.00112 2.98889C7.58351 2.98889 7.17528 3.11273 6.82805 3.34474C6.48082 3.57675 6.21019 3.90651 6.05038 4.29233C5.89056 4.67815 5.84875 5.1027 5.93022 5.51229C6.01169 5.92187 6.21279 6.2981 6.50808 6.59339C6.80338 6.88868 7.17961 7.08978 7.58919 7.17125C7.99877 7.25273 8.42332 7.21091 8.80914 7.0511C9.19496 6.89129 9.52473 6.62066 9.75674 6.27343C9.98875 5.9262 10.1126 5.51797 10.1126 5.10036C10.1113 4.54075 9.88847 4.00442 9.49276 3.60871C9.09706 3.21301 8.56073 2.99015 8.00112 2.98889Z" fill="#404950"/>
<path d="M15.894 4.78247C15.2212 3.91468 14.4605 3.11867 13.6242 2.40707C11.7624 0.826111 9.81089 0 7.99978 0C3.65702 0 0.245947 4.58875 0.105534 4.78247C0.0371332 4.87048 0 4.97876 0 5.09022C0 5.20168 0.0371332 5.30996 0.105534 5.39796C0.770217 6.27736 1.5316 7.0793 2.37536 7.78867C4.23926 9.37227 6.19078 10.1973 8.00136 10.1973C12.3441 10.1973 15.7552 5.60858 15.8956 5.41486C15.9637 5.32341 16.0003 5.21239 16 5.0984C15.9997 4.98441 15.9625 4.87358 15.894 4.78247ZM7.99978 8.26375C7.37337 8.26375 6.76102 8.078 6.24018 7.72998C5.71934 7.38197 5.31339 6.88732 5.07367 6.30859C4.83395 5.72986 4.77123 5.09304 4.89344 4.47866C5.01564 3.86429 5.31729 3.29995 5.76023 2.857C6.20317 2.41406 6.76751 2.11242 7.38189 1.99021C7.99627 1.868 8.63309 1.93072 9.21182 2.17044C9.79055 2.41016 10.2852 2.81611 10.6332 3.33695C10.9812 3.85779 11.167 4.47014 11.167 5.09655C11.1652 5.93599 10.8309 6.74053 10.2373 7.3341C9.64375 7.92767 8.83922 8.26194 7.99978 8.26375Z" fill="#404950"/>
</svg>
