<svg width="30" height="30" viewBox="0 0 30 30" fill="none" xmlns="http://www.w3.org/2000/svg">
<path d="M18.8205 17.3667C19.6503 16.2833 20.1583 14.9333 20.1583 13.4667C20.1583 9.9 17.1947 7 13.5707 7C9.94666 7 7 9.9 7 13.4667C7 17.0333 9.94666 19.9333 13.5707 19.9333C14.9255 19.9333 16.1956 19.5167 17.2456 18.8167C17.2625 18.8333 17.2625 18.8333 17.2794 18.85L20.1583 21.6833C20.3616 21.8833 20.6494 22 20.9204 22C21.1914 22 21.4793 21.9 21.6825 21.6833C22.1058 21.2667 22.1058 20.6 21.6825 20.1833L18.8205 17.3667ZM13.5707 17.8167C11.1321 17.8167 9.15072 15.8667 9.15072 13.4667C9.15072 11.0667 11.1321 9.11667 13.5707 9.11667C16.0093 9.11667 17.9907 11.0667 17.9907 13.4667C17.9907 15.8667 16.0093 17.8167 13.5707 17.8167Z" fill="#777B7C"/>
</svg>
