<svg width="52" height="21" viewBox="0 0 52 21" fill="none" xmlns="http://www.w3.org/2000/svg">
<path d="M5.391 15.0771C5.391 18.9541 7.583 20.2641 10.723 20.2641H13.078V16.3871H11.427C10.398 16.3871 10.02 16.0131 10.02 15.1301V9.14105H13.051V5.34105H10.02V1.70705H5.391V5.34305V9.14305L0 9.11605L5.391 15.0771ZM20.954 8.79405C21.3125 8.76053 21.674 8.80182 22.0156 8.9153C22.3573 9.02878 22.6717 9.21198 22.9388 9.4533C23.206 9.69462 23.4202 9.98879 23.5677 10.3172C23.7153 10.6456 23.793 11.001 23.796 11.3611H18.004C18.0756 10.6376 18.4209 9.96878 18.9692 9.49144C19.5176 9.0141 20.2276 8.76427 20.954 8.79305V8.79405ZM28.181 15.3181H23.26C23.0534 15.7755 22.712 16.159 22.2815 16.4171C21.851 16.6752 21.3518 16.7955 20.851 16.7621C20.4717 16.7738 20.0941 16.7079 19.7412 16.5683C19.3884 16.4288 19.0677 16.2186 18.7991 15.9507C18.5304 15.6828 18.3193 15.3628 18.1788 15.0103C18.0383 14.6578 17.9713 14.2803 17.982 13.9011H28.452C28.5051 13.4574 28.5322 13.0109 28.533 12.5641C28.533 8.01905 25.42 5.13105 21.009 5.13105C16.516 5.13105 13.376 8.07205 13.376 12.8051C13.3129 13.8256 13.4668 14.848 13.8275 15.8048C14.1883 16.7616 14.7477 17.6311 15.4689 18.3559C16.19 19.0808 17.0567 19.6446 18.0116 20.0102C18.9665 20.3759 19.9881 20.535 21.009 20.4771C22.6136 20.5636 24.1996 20.0991 25.5041 19.1606C26.8085 18.2221 27.753 16.866 28.181 15.3171V15.3181ZM28.695 12.7781C28.695 17.4841 31.645 20.4781 35.326 20.4781C36.2401 20.5224 37.1503 20.3319 37.9699 19.9247C38.7895 19.5175 39.4911 18.9073 40.008 18.1521V20.2641H44.636V5.34405H40.009V7.45605C39.5004 6.699 38.8041 6.08676 37.9883 5.67909C37.1724 5.27142 36.2648 5.08225 35.354 5.13005C31.646 5.12905 28.695 8.07105 28.695 12.7771V12.7781ZM40.009 12.8051C40.009 15.1851 38.466 16.4951 36.709 16.4951C36.2424 16.4853 35.7828 16.3792 35.3592 16.1834C34.9355 15.9877 34.5568 15.7065 34.247 15.3575C33.9371 15.0085 33.7027 14.5992 33.5585 14.1553C33.4143 13.7114 33.3634 13.2425 33.409 12.7781C33.364 12.3164 33.4156 11.8504 33.5607 11.4098C33.7057 10.9692 33.941 10.5637 34.2515 10.2191C34.562 9.87444 34.9408 9.59828 35.364 9.4082C35.7871 9.21812 36.2452 9.11828 36.709 9.11505C38.466 9.11305 40.009 10.4241 40.009 12.8031V12.8051ZM46.64 20.2651H51.268V0.477051H46.64V20.2651Z" fill="#19E2E2"/>
</svg>
