<svg width="35" height="35" viewBox="0 0 35 35" fill="none" xmlns="http://www.w3.org/2000/svg">
<circle cx="17.5" cy="17.5" r="17.5" fill="#F6F8F9"/>
<path d="M25.5351 22.9386C25.7495 22.9213 25.8139 22.7164 25.9041 22.5202C26.2411 21.7952 25.8026 20.2929 25.4387 19.2731C25.1161 18.3231 24.7056 17.4035 24.2127 16.5269C24.1808 16.4732 24.1379 16.4269 24.0869 16.3912C24.0359 16.3556 23.9782 16.3314 23.9178 16.3206C23.8574 16.3097 23.7958 16.3124 23.7373 16.3284C23.6789 16.3444 23.6251 16.3733 23.5797 16.4132L19.965 19.5723C19.8885 19.6391 19.84 19.733 19.8289 19.836C19.8179 19.9389 19.845 20.0436 19.905 20.1298C19.9907 20.2533 20.0975 20.4073 20.2227 20.5877C21.1165 21.8934 21.4064 22.2225 21.6598 22.5934C21.784 22.7724 21.8908 22.9264 21.9808 23.0304C22.0248 23.0848 22.0811 23.1277 22.1447 23.1554C22.2082 23.183 22.277 23.1946 22.3449 23.1889L23.6288 23.0875L25.5351 22.9386Z" fill="#404950"/>
<path d="M15.3633 8.85817C15.4046 8.77002 15.4637 8.69204 15.537 8.6291C15.6102 8.56616 15.6959 8.51962 15.7889 8.49238C15.8818 8.46514 15.9799 8.45779 16.077 8.4708C16.1742 8.4838 16.2683 8.51688 16.3534 8.56796C16.7799 8.82495 17.3803 9.18945 18.0589 9.62093C18.76 10.0901 19.4252 10.6134 20.0482 11.1861C20.1249 11.2548 20.1867 11.3388 20.2297 11.4324C20.2727 11.5261 20.2958 11.6273 20.2975 11.7293C20.2992 11.8314 20.2794 11.9319 20.2395 12.0243C20.1996 12.1166 20.1404 12.1987 20.066 12.2651L17.175 14.8358C17.1015 14.9016 17.0147 14.9504 16.9201 14.9791C16.8255 15.0079 16.7254 15.0159 16.6262 15.0026C16.527 14.9893 16.4311 14.9551 16.3446 14.9022C16.2581 14.8492 16.1831 14.7787 16.1244 14.6953L14.2674 12.0786C14.1918 11.9718 14.1454 11.8472 14.133 11.7181C14.1206 11.5889 14.1427 11.4598 14.1969 11.3444L15.3633 8.85817Z" fill="#404950"/>
<path d="M23.4908 15.1675C22.9048 14.1024 22.1124 13.2464 21.3604 12.463C21.2359 12.3331 21.0684 12.2551 20.8925 12.2451C20.7166 12.2351 20.5459 12.2939 20.4157 12.4093L17.23 15.2194C17.105 15.3294 17.0259 15.4835 17.0078 15.6522C16.9897 15.821 17.0339 15.9926 17.1319 16.1342C17.4813 16.6379 17.9867 17.3663 18.159 17.6147C18.3678 17.9158 18.7144 18.4153 18.9954 18.8204C19.0518 18.9015 19.124 18.9702 19.2075 19.022C19.2909 19.0738 19.3836 19.1076 19.4795 19.1211C19.5755 19.1346 19.6725 19.1276 19.7643 19.1005C19.8561 19.0734 19.9406 19.0268 20.0123 18.9638L23.3467 16.0217C23.4642 15.9207 23.5427 15.7807 23.5689 15.6253C23.5951 15.4698 23.5675 15.3082 23.4908 15.1675Z" fill="#404950"/>
<path d="M15.995 23.6954C17.7055 23.559 19.4226 23.4324 21.1308 23.2956C21.1749 23.2924 21.2171 23.2775 21.2531 23.2523C21.289 23.2271 21.3175 23.1925 21.3355 23.152C21.3536 23.1116 21.3606 23.0667 21.3559 23.0218C21.3512 22.977 21.335 22.9338 21.3088 22.8967L19.5329 20.3368C19.512 20.3067 19.4853 20.2813 19.4544 20.2621C19.4235 20.2429 19.3892 20.2304 19.3537 20.2253C19.3181 20.2203 19.2822 20.2229 19.2482 20.2329C19.2142 20.2429 19.1829 20.2602 19.1563 20.2835L15.7998 23.2451C15.7601 23.2799 15.7328 23.3268 15.7217 23.3792C15.7106 23.4317 15.7163 23.4868 15.7379 23.5368C15.7596 23.5868 15.7962 23.6291 15.8423 23.6576C15.8885 23.6861 15.942 23.6993 15.995 23.6954Z" fill="#404950"/>
<path d="M11.2887 17.5675C11.9797 16.0934 12.6656 14.6146 13.3556 13.1391C13.4035 13.0377 13.4769 12.9513 13.5687 12.8886C13.6606 12.8259 13.7677 12.7889 13.8796 12.7812C13.9916 12.7736 14.1045 12.7955 14.2074 12.8449C14.3102 12.8943 14.3996 12.9695 14.4666 13.0631L15.9359 15.1267C16.0332 15.2609 16.0787 15.4255 16.0634 15.5882C16.048 15.7509 15.973 15.9 15.853 16.0062L12.6425 18.8377C12.5751 18.8972 12.4956 18.9412 12.4092 18.9669C12.3228 18.9926 12.2315 18.9994 12.1411 18.9869C12.0507 18.9743 11.9634 18.9427 11.8847 18.8942C11.806 18.8456 11.7378 18.7811 11.6846 18.7049L11.3534 18.2276C11.2859 18.1314 11.2443 18.0196 11.2329 17.9035C11.2215 17.7875 11.2408 17.6716 11.2887 17.5675Z" fill="#404950"/>
<path d="M8.83052 24.2918L14.0351 23.871C14.1091 23.8663 14.18 23.8417 14.2404 23.7997C14.3008 23.7577 14.3485 23.6998 14.3787 23.632C14.4089 23.5642 14.4204 23.4889 14.4122 23.4139C14.4039 23.3388 14.376 23.2667 14.3316 23.2049L11.3534 18.912C11.311 18.8506 11.2537 18.801 11.1874 18.7681C11.121 18.7353 11.0479 18.7204 10.9752 18.7248C10.9026 18.7292 10.833 18.7529 10.7733 18.7935C10.7137 18.834 10.6661 18.8901 10.6353 18.956L8.41253 23.6692C8.37899 23.736 8.36412 23.8112 8.36948 23.887C8.37484 23.9628 8.40023 24.0364 8.44299 24.1001C8.48575 24.1638 8.54429 24.2152 8.61248 24.2489C8.68067 24.2826 8.75598 24.2975 8.83052 24.2918Z" fill="#404950"/>
<path d="M18.7416 20.0859L15.4752 22.9685C15.4119 23.0242 15.3374 23.0654 15.2563 23.0895C15.1753 23.1135 15.0896 23.1199 15.0048 23.1081C14.9201 23.0964 14.8381 23.0668 14.7644 23.0212C14.6906 22.9757 14.6266 22.9152 14.5765 22.8438L12.6078 20.0374C12.5198 19.9122 12.4797 19.7599 12.4951 19.6099C12.5106 19.4599 12.5806 19.3228 12.6916 19.225L15.97 16.3341C16.0334 16.278 16.1081 16.2364 16.1894 16.2122C16.2707 16.1879 16.3567 16.1815 16.4417 16.1933C16.5268 16.2051 16.609 16.2349 16.683 16.2807C16.7569 16.3266 16.821 16.3874 16.871 16.4592L18.826 19.2772C18.9121 19.4024 18.9511 19.5537 18.9356 19.7026C18.9201 19.8516 18.8511 19.9879 18.7416 20.0859Z" fill="#404950"/>
</svg>
