<svg width="22" height="15" viewBox="0 0 22 15" fill="none" xmlns="http://www.w3.org/2000/svg">
<path d="M17.2223 5.37646C17.7228 4.46643 18.6328 3.48815 20.1798 2.55537C20.6121 2.30512 20.8851 1.8501 20.8851 1.37234C20.8851 0.394058 19.8841 -0.288462 18.9741 0.12105C16.335 1.28134 11.9441 4.17067 11.9441 10.1541C11.9441 12.8387 14.1054 15 16.79 15C19.4746 15 21.6131 12.8387 21.6131 10.1769C21.6131 7.65153 19.6793 5.60397 17.2223 5.37646Z" fill="#404950"/>
<path d="M5.25541 5.37646C5.75592 4.46643 6.66595 3.48815 8.213 2.55537C8.64526 2.30512 8.91827 1.8501 8.91827 1.37234C8.91827 0.394058 7.91724 -0.288462 7.00721 0.12105C4.39088 1.28134 0 4.17067 0 10.1541C0 12.8387 2.16132 15 4.82315 15C7.48498 15 9.66904 12.8387 9.66904 10.1541C9.66904 7.65153 7.73523 5.60397 5.25541 5.37646Z" fill="#404950"/>
</svg>
