<svg width="13" height="15" viewBox="0 0 13 15" fill="none" xmlns="http://www.w3.org/2000/svg">
<path d="M11.5753 3.59546H1.3247C1.13545 3.59546 0.977753 3.75316 0.977753 3.9424V13.6253C0.977753 14.3823 1.59279 14.9973 2.34976 14.9973H10.5502C11.3072 14.9973 11.9222 14.3823 11.9222 13.6253V3.9424C11.9222 3.75316 11.7645 3.59546 11.5753 3.59546ZM4.24218 12.1902C4.24218 12.4425 4.03716 12.6475 3.78484 12.6475C3.53252 12.6475 3.32751 12.4425 3.32751 12.1902V6.37101C3.32751 6.11869 3.53252 5.91367 3.78484 5.91367C4.03716 5.91367 4.24218 6.11869 4.24218 6.37101V12.1902ZM6.90733 12.1902C6.90733 12.4425 6.70232 12.6475 6.45 12.6475C6.19768 12.6475 5.99266 12.4425 5.99266 12.1902V6.37101C5.99266 6.11869 6.19768 5.91367 6.45 5.91367C6.70232 5.91367 6.90733 6.11869 6.90733 6.37101V12.1902ZM9.57249 12.1902C9.57249 12.4425 9.36748 12.6475 9.11516 12.6475C8.86283 12.6475 8.65782 12.4425 8.65782 12.1902V6.37101C8.65782 6.11869 8.86283 5.91367 9.11516 5.91367C9.36748 5.91367 9.57249 6.11869 9.57249 6.37101V12.1902Z" fill="#777B7C"/>
<path d="M12.2219 1.30892H9.17824L8.45281 0.299633C8.32665 0.110391 8.10586 0 7.86931 0H5.03068C4.79413 0 4.58912 0.110391 4.44719 0.299633L3.72176 1.30892H0.678117C0.299633 1.30892 0 1.60856 0 1.98704C0 2.36552 0.299633 2.66516 0.678117 2.66516H12.2219C12.6004 2.66516 12.9 2.36552 12.9 1.98704C12.9 1.60856 12.6004 1.30892 12.2219 1.30892Z" fill="#777B7C"/>
</svg>
