<svg width="15" height="15" viewBox="0 0 15 15" fill="none" xmlns="http://www.w3.org/2000/svg">
<path d="M14.6248 1.87504L13.4582 0.458005C13.2501 0.166839 12.8756 0 12.4999 0H2.50006C2.12448 0 1.75002 0.166839 1.54179 0.458005L0.375288 1.87504C0.125048 2.12463 0 2.50006 0 2.91656V13.3333C0 14.25 0.75 15 1.66677 15H13.3333C14.2501 15 15 14.25 15 13.3332V2.91653C15 2.50006 14.8751 2.12463 14.6248 1.87504ZM7.5 12.0833L2.91671 7.5H5.83341V5.83327H9.16669V7.5H12.0834L7.5 12.0833ZM1.75002 1.66662L2.41659 0.833293H12.4165L13.2085 1.66662H1.75002Z" fill="#777B7C"/>
</svg>
