<svg width="18" height="15" viewBox="0 0 18 15" fill="none" xmlns="http://www.w3.org/2000/svg">
<path d="M7.15505 8.65213C8.28348 11.2182 11.3709 11.4867 13.3072 9.68577C14.4943 8.57991 15.6363 7.39506 16.7625 6.22826C17.134 5.85033 17.4163 5.39406 17.5886 4.89288C17.7609 4.39171 17.8189 3.85833 17.7583 3.33184C17.6977 2.80534 17.52 2.29908 17.2384 1.85015C16.9568 1.40121 16.5782 1.02099 16.1306 0.737331C15.0766 0.0602741 13.648 -0.257943 12.4609 0.24985C11.2738 0.757643 10.3462 2.05534 9.47284 2.92422C8.71002 3.69381 9.89713 4.89897 10.6712 4.12036C11.9622 2.83169 13.2937 0.777954 15.2888 2.2088C15.4954 2.3486 15.6718 2.52849 15.8075 2.7378C15.9433 2.94711 16.0356 3.18156 16.0789 3.42723C16.1223 3.6729 16.1159 3.92478 16.06 4.16791C16.0041 4.41104 15.8999 4.64046 15.7537 4.84255C15.5318 5.0934 15.2952 5.33079 15.045 5.55346C14.1671 6.43138 13.296 7.31832 12.409 8.18947C11.17 9.41269 9.43222 9.63837 8.61749 7.79903C8.16612 6.80376 6.71722 7.66362 7.15505 8.65213Z" fill="#404950"/>
<path d="M10.6238 6.34787C9.49538 3.78183 6.41026 3.51326 4.47387 5.31423C3.29354 6.42009 2.1448 7.6072 1.01863 8.77174C0.647384 9.14971 0.365327 9.60589 0.193088 10.1069C0.0208494 10.6079 -0.0372145 11.1411 0.0231435 11.6675C0.0835016 12.1938 0.260755 12.7 0.541938 13.149C0.823121 13.5981 1.20112 13.9785 1.64829 14.2627C2.70224 14.9397 4.13083 15.2579 5.32019 14.7501C6.50956 14.2424 7.43487 12.9447 8.30602 12.078C9.07786 11.3062 7.88173 10.1101 7.10988 10.8796C5.81896 12.1683 4.48516 14.222 2.49235 12.798C2.28452 12.6584 2.10701 12.4782 1.97047 12.2684C1.83393 12.0585 1.74117 11.8233 1.69776 11.5767C1.65435 11.3301 1.66117 11.0773 1.71782 10.8334C1.77447 10.5896 1.87978 10.3596 2.02744 10.1574C2.24874 9.90606 2.48541 9.66863 2.73609 9.44654C3.61401 8.56862 4.48516 7.68167 5.36985 6.81278C6.61112 5.59408 8.3489 5.36163 9.16362 7.20322C9.61499 8.19624 11.0616 7.33637 10.6238 6.34787Z" fill="#404950"/>
</svg>
