<svg width="15" height="15" viewBox="0 0 15 15" fill="none" xmlns="http://www.w3.org/2000/svg">
<path d="M5.51316 2.26165C5.81277 2.26165 6.11238 2.26165 6.41198 2.26165C7.12419 2.26165 7.83811 2.26165 8.55032 2.26165C9.41148 2.26165 10.2743 2.26165 11.1355 2.26165C11.8854 2.26165 12.6353 2.26165 13.3851 2.26165C13.7464 2.26165 14.1093 2.26837 14.4706 2.26165C14.4757 2.26165 14.4808 2.26165 14.486 2.26165C14.7548 2.26165 15.0116 2.02977 14.9996 1.75756C14.9876 1.48368 14.7736 1.25348 14.486 1.25348C14.1864 1.25348 13.8868 1.25348 13.5871 1.25348C12.8749 1.25348 12.161 1.25348 11.4488 1.25348C10.5877 1.25348 9.72478 1.25348 8.86363 1.25348C8.11375 1.25348 7.36388 1.25348 6.614 1.25348C6.25276 1.25348 5.88981 1.24675 5.52857 1.25348C5.52343 1.25348 5.5183 1.25348 5.51316 1.25348C5.24437 1.25348 4.98756 1.48536 4.99955 1.75756C5.01153 2.03145 5.22554 2.26165 5.51316 2.26165Z" fill="#777B7C"/>
<path d="M0.514016 2.26184C1.13378 2.26184 1.75353 2.26184 2.37329 2.26184C2.46061 2.26184 2.54963 2.26184 2.63695 2.26184C2.90574 2.26184 3.16254 2.02996 3.15056 1.75775C3.13858 1.48386 2.92457 1.25366 2.63695 1.25366C2.01719 1.25366 1.39743 1.25366 0.777671 1.25366C0.690357 1.25366 0.60133 1.25366 0.514016 1.25366C0.245226 1.25366 -0.0115807 1.48554 0.00040364 1.75775C0.0123879 2.03164 0.226393 2.26184 0.514016 2.26184Z" fill="#777B7C"/>
<path d="M4.07509 3.17087C4.87217 3.17087 5.51834 2.53669 5.51834 1.75438C5.51834 0.972075 4.87217 0.337891 4.07509 0.337891C3.278 0.337891 2.63184 0.972075 2.63184 1.75438C2.63184 2.53669 3.278 3.17087 4.07509 3.17087Z" fill="#777B7C"/>
<path d="M4.07509 2.83473C4.03913 2.83473 4.00318 2.83305 3.96723 2.83137C3.95695 2.83137 3.91244 2.83305 3.90902 2.82633C3.90902 2.82633 3.99633 2.84145 3.92956 2.82801C3.86108 2.81625 3.79431 2.80113 3.72754 2.78096C3.70871 2.77424 3.63167 2.75912 3.61968 2.74232C3.62139 2.744 3.69672 2.7776 3.63852 2.74904C3.62482 2.74232 3.61112 2.73559 3.59743 2.72887C3.53408 2.69695 3.47416 2.65998 3.41424 2.62133C3.41081 2.61965 3.40739 2.61629 3.40568 2.61461C3.37657 2.59277 3.38171 2.59781 3.42109 2.62806C3.41595 2.62806 3.38856 2.60117 3.38685 2.59949C3.36459 2.58101 3.34233 2.56084 3.32008 2.54068C3.29611 2.51716 3.27214 2.49363 3.24988 2.47011C3.2379 2.45667 3.2242 2.44322 3.21222 2.4281C3.20366 2.41802 3.17113 2.36593 3.19681 2.4113C3.2242 2.46003 3.18825 2.39954 3.18311 2.39281C3.17455 2.38105 3.16599 2.36929 3.15743 2.35585C3.14031 2.33064 3.1249 2.30544 3.11121 2.28023C3.09237 2.24831 3.07697 2.2147 3.05985 2.1811C3.0393 2.14077 3.04957 2.18782 3.06669 2.19958C3.05471 2.19118 3.04615 2.14917 3.04272 2.13741C3.02047 2.07692 3.00335 2.01475 2.98965 1.95258C2.98623 1.93745 2.9828 1.92233 2.98109 1.90721C2.97082 1.84504 2.96397 1.90385 2.98109 1.91729C2.9674 1.90553 2.97253 1.82151 2.97253 1.80135C2.97082 1.73414 2.97596 1.66861 2.97938 1.60139C2.9828 1.55099 2.96226 1.68709 2.97767 1.61148C2.98109 1.59635 2.9828 1.58123 2.98623 1.56611C2.99308 1.52914 3.00335 1.49217 3.01362 1.45521C3.02218 1.42664 3.03074 1.39808 3.04101 1.36951C3.04786 1.35271 3.05471 1.33423 3.06156 1.31742C3.07697 1.27206 3.02389 1.39304 3.05813 1.32583C3.08895 1.26702 3.11977 1.2082 3.15572 1.15107C3.16428 1.13931 3.17284 1.12587 3.1814 1.11411C3.18654 1.10739 3.22078 1.0469 3.1951 1.09562C3.16942 1.14267 3.20366 1.08554 3.21051 1.07882C3.22078 1.06706 3.22934 1.05698 3.23961 1.04522C3.28412 0.996487 3.33206 0.949439 3.38342 0.907432C3.39198 0.90071 3.44848 0.867104 3.40054 0.892309C3.35774 0.915833 3.39883 0.893989 3.41081 0.885588C3.43821 0.867105 3.46731 0.848621 3.4947 0.831818C3.52038 0.816696 3.54606 0.801573 3.57346 0.788131C3.59058 0.779729 3.6077 0.771328 3.62482 0.762926C3.63509 0.757885 3.64536 0.752844 3.65564 0.749484C3.61283 0.766287 3.60256 0.771328 3.62653 0.761246C3.68816 0.741082 3.74809 0.717558 3.81143 0.702435C3.84567 0.694034 3.87991 0.687313 3.91415 0.680592C3.92956 0.678911 3.9775 0.677231 3.92614 0.678911C3.86793 0.678911 3.95011 0.677231 3.96209 0.677231C4.03057 0.67219 4.09734 0.67219 4.16582 0.675551C4.18637 0.677231 4.2052 0.678911 4.22403 0.680592C4.27197 0.683952 4.15555 0.66883 4.20349 0.677231C4.24629 0.685632 4.28738 0.692354 4.32847 0.702435C4.38839 0.717558 4.44489 0.736041 4.5031 0.756205C4.575 0.781409 4.45345 0.72764 4.49454 0.752844C4.50994 0.762926 4.52878 0.767967 4.5459 0.776368C4.58014 0.793171 4.61267 0.811655 4.64519 0.830138C4.67088 0.845261 4.69656 0.862064 4.72052 0.878867C4.72052 0.878867 4.75648 0.90071 4.75648 0.904071C4.75477 0.887268 4.70169 0.858703 4.74963 0.89903C4.8027 0.944398 4.85578 0.991446 4.902 1.04354C4.9157 1.05866 4.9585 1.09226 4.96021 1.11075C4.95165 1.09899 4.94309 1.0889 4.93453 1.07714C4.94138 1.08554 4.94823 1.09562 4.95507 1.10403C4.96363 1.11579 4.97219 1.12755 4.98075 1.14099C5.02013 1.1998 5.05266 1.26197 5.08519 1.32415C5.11429 1.38128 5.08005 1.30566 5.07834 1.30566C5.0869 1.31238 5.09546 1.34599 5.09889 1.35775C5.11087 1.38968 5.12114 1.4216 5.13141 1.45353C5.13997 1.48209 5.14682 1.51234 5.15367 1.5409C5.15709 1.55603 5.16052 1.57115 5.16223 1.58627C5.16565 1.60139 5.16737 1.61652 5.16908 1.63164C5.16737 1.61652 5.16565 1.60307 5.16223 1.58795C5.15367 1.65348 5.1725 1.73078 5.17079 1.79799C5.16908 1.82991 5.16565 1.86016 5.16394 1.89209C5.15881 1.96938 5.17593 1.83328 5.16565 1.88368C5.16223 1.90217 5.15881 1.92065 5.15538 1.94081C5.13997 2.01811 5.11601 2.09372 5.08861 2.16765C5.08348 2.18278 5.0578 2.21638 5.08519 2.17942C5.11601 2.13573 5.07492 2.1979 5.06978 2.20966C5.05266 2.24327 5.03554 2.27519 5.015 2.30712C4.99445 2.3424 4.97048 2.37433 4.94651 2.40794C4.92083 2.44658 4.9585 2.40962 4.96021 2.39281C4.96021 2.40626 4.92426 2.43482 4.91741 2.44322C4.86776 2.49867 4.81469 2.55076 4.75819 2.59781C4.75134 2.60285 4.72908 2.62469 4.72395 2.62637C4.76161 2.59949 4.76846 2.59277 4.74792 2.60789C4.73936 2.61461 4.72908 2.62133 4.72052 2.62637C4.68971 2.64654 4.65889 2.6667 4.62636 2.68519C4.59383 2.70367 4.5613 2.72047 4.52706 2.73727C4.52878 2.73727 4.4894 2.75744 4.48598 2.75576C4.53391 2.73727 4.53905 2.73391 4.50481 2.74736C4.49796 2.75072 4.49111 2.7524 4.48426 2.75576C4.41236 2.78264 4.33874 2.80281 4.26341 2.81793C4.24458 2.82129 4.22574 2.82465 4.2052 2.82801C4.17952 2.83137 4.18979 2.83137 4.23773 2.82297C4.22574 2.82465 4.21376 2.82633 4.20178 2.82633C4.1624 2.83305 4.1196 2.83473 4.07509 2.83473C3.89532 2.83641 3.72412 2.98764 3.73268 3.17079C3.74124 3.35226 3.88334 3.50853 4.07509 3.50685C4.83352 3.50013 5.49437 3.03133 5.75802 2.33736C6.00969 1.67533 5.78713 0.867104 5.229 0.418465C4.92939 0.178183 4.58185 0.0370378 4.19322 0.00511219C3.8354 -0.0234529 3.45875 0.0689634 3.1523 0.250436C2.50172 0.638584 2.17986 1.38968 2.32709 2.11893C2.48974 2.92211 3.24988 3.49845 4.07337 3.50517C4.25314 3.50685 4.42434 3.3489 4.41578 3.16911C4.40893 2.98764 4.26683 2.83641 4.07509 2.83473Z" fill="#777B7C"/>
<path d="M12.1902 8.00818C12.8613 8.00818 13.5324 8.00818 14.2018 8.00818C14.296 8.00818 14.3901 8.00818 14.4843 8.00818C14.7531 8.00818 15.0099 7.7763 14.9979 7.50409C14.9859 7.2302 14.7719 7 14.4843 7C13.8132 7 13.1421 7 12.4726 7C12.3785 7 12.2843 7 12.1902 7C11.9214 7 11.6646 7.23188 11.6766 7.50409C11.6885 7.77798 11.9025 8.00818 12.1902 8.00818Z" fill="#777B7C"/>
<path d="M0.514016 8.00823C0.806775 8.00823 1.10125 8.00823 1.39401 8.00823C2.09252 8.00823 2.79103 8.00823 3.48954 8.00823C4.337 8.00823 5.18446 8.00823 6.03192 8.00823C6.76468 8.00823 7.49743 8.00823 8.23019 8.00823C8.58629 8.00823 8.94239 8.01495 9.2985 8.00823C9.30363 8.00823 9.30877 8.00823 9.31391 8.00823C9.5827 8.00823 9.8395 7.77635 9.82752 7.50414C9.81554 7.23026 9.60153 7.00006 9.31391 7.00006C9.02115 7.00006 8.72668 7.00006 8.43392 7.00006C7.7354 7.00006 7.03689 7.00006 6.33838 7.00006C5.49092 7.00006 4.64346 7.00006 3.796 7.00006C3.06324 7.00006 2.33049 7.00006 1.59774 7.00006C1.24163 7.00006 0.885529 6.99334 0.529424 7.00006C0.524288 7.00006 0.519152 7.00006 0.514016 7.00006C0.245226 7.00006 -0.0115806 7.23194 0.00040364 7.50414C0.0123879 7.77803 0.226393 8.00823 0.514016 8.00823Z" fill="#777B7C"/>
<path d="M10.752 8.91746C11.5491 8.91746 12.1952 8.28327 12.1952 7.50096C12.1952 6.71866 11.5491 6.08447 10.752 6.08447C9.95488 6.08447 9.30872 6.71866 9.30872 7.50096C9.30872 8.28327 9.95488 8.91746 10.752 8.91746Z" fill="#777B7C"/>
<path d="M10.752 8.58132C10.716 8.58132 10.6801 8.57964 10.6441 8.57796C10.6338 8.57796 10.5893 8.57964 10.5859 8.57291C10.5859 8.57291 10.6732 8.58804 10.6064 8.5746C10.538 8.56283 10.4712 8.54771 10.4044 8.52755C10.3856 8.52083 10.3085 8.5057 10.2966 8.4889C10.2983 8.49058 10.3736 8.52419 10.3154 8.49562C10.3017 8.4889 10.288 8.48218 10.2743 8.47546C10.211 8.44353 10.151 8.40656 10.0911 8.36792C10.0877 8.36624 10.0843 8.36288 10.0826 8.3612C10.0535 8.33935 10.0586 8.34439 10.098 8.37464C10.0928 8.37464 10.0654 8.34775 10.0637 8.34607C10.0415 8.32759 10.0192 8.30743 9.99696 8.28726C9.97299 8.26374 9.94902 8.24022 9.92676 8.21669C9.91478 8.20325 9.90108 8.18981 9.8891 8.17468C9.88054 8.1646 9.84801 8.11251 9.87369 8.15788C9.90108 8.20661 9.86513 8.14612 9.85999 8.1394C9.85143 8.12764 9.84287 8.11587 9.83431 8.10243C9.81719 8.07723 9.80178 8.05202 9.78809 8.02682C9.76926 7.99489 9.75385 7.96129 9.73673 7.92768C9.71618 7.88735 9.72645 7.9344 9.74357 7.94616C9.73159 7.93776 9.72303 7.89575 9.71961 7.88399C9.69735 7.8235 9.68023 7.76133 9.66653 7.69916C9.66311 7.68404 9.65968 7.66891 9.65797 7.65379C9.6477 7.59162 9.64085 7.65043 9.65797 7.66387C9.64428 7.65211 9.64941 7.5681 9.64941 7.54793C9.6477 7.48072 9.65284 7.41519 9.65626 7.34798C9.65968 7.29757 9.63914 7.43367 9.65455 7.35806C9.65797 7.34294 9.65968 7.32781 9.66311 7.31269C9.66996 7.27572 9.68023 7.23876 9.6905 7.20179C9.69906 7.17323 9.70762 7.14466 9.71789 7.1161C9.72474 7.09929 9.73159 7.08081 9.73844 7.06401C9.75385 7.01864 9.70077 7.13962 9.73501 7.07241C9.76583 7.0136 9.79665 6.95479 9.8326 6.89766C9.84116 6.8859 9.84972 6.87245 9.85828 6.86069C9.86342 6.85397 9.89766 6.79348 9.87198 6.84221C9.8463 6.88926 9.88054 6.83213 9.88739 6.8254C9.89766 6.81364 9.90622 6.80356 9.91649 6.7918C9.961 6.74307 10.0089 6.69602 10.0603 6.65401C10.0689 6.64729 10.1254 6.61369 10.0774 6.63889C10.0346 6.66242 10.0757 6.64057 10.0877 6.63217C10.1151 6.61369 10.1442 6.5952 10.1716 6.5784C10.1973 6.56328 10.2229 6.54816 10.2503 6.53471C10.2675 6.52631 10.2846 6.51791 10.3017 6.50951C10.312 6.50447 10.3222 6.49943 10.3325 6.49607C10.2897 6.51287 10.2794 6.51791 10.3034 6.50783C10.365 6.48766 10.425 6.46414 10.4883 6.44902C10.5226 6.44062 10.5568 6.4339 10.591 6.42717C10.6064 6.42549 10.6544 6.42381 10.603 6.42549C10.5448 6.42549 10.627 6.42381 10.639 6.42381C10.7075 6.41877 10.7742 6.41877 10.8427 6.42213C10.8632 6.42381 10.8821 6.42549 10.9009 6.42717C10.9489 6.43053 10.8324 6.41541 10.8804 6.42381C10.9232 6.43221 10.9643 6.43894 11.0053 6.44902C11.0653 6.46414 11.1218 6.48262 11.18 6.50279C11.2519 6.52799 11.1303 6.47422 11.1714 6.49943C11.1868 6.50951 11.2057 6.51455 11.2228 6.52295C11.257 6.53975 11.2895 6.55824 11.3221 6.57672C11.3478 6.59184 11.3734 6.60865 11.3974 6.62545C11.3974 6.62545 11.4334 6.64729 11.4334 6.65065C11.4316 6.63385 11.3786 6.60529 11.4265 6.64561C11.4796 6.69098 11.5327 6.73803 11.5789 6.79012C11.5926 6.80524 11.6354 6.83885 11.6371 6.85733C11.6285 6.84557 11.62 6.83549 11.6114 6.82372C11.6183 6.83213 11.6251 6.84221 11.632 6.85061C11.6405 6.86237 11.6491 6.87413 11.6576 6.88758C11.697 6.94639 11.7295 7.00856 11.7621 7.07073C11.7912 7.12786 11.7569 7.05224 11.7552 7.05224C11.7638 7.05897 11.7723 7.09257 11.7758 7.10433C11.7878 7.13626 11.798 7.16819 11.8083 7.20011C11.8169 7.22868 11.8237 7.25892 11.8306 7.28749C11.834 7.30261 11.8374 7.31773 11.8391 7.33285C11.8425 7.34798 11.8442 7.3631 11.846 7.37822C11.8442 7.3631 11.8425 7.34966 11.8391 7.33454C11.8306 7.40007 11.8494 7.47736 11.8477 7.54457C11.846 7.5765 11.8425 7.60674 11.8408 7.63867C11.8357 7.71596 11.8528 7.57986 11.8425 7.63027C11.8391 7.64875 11.8357 7.66723 11.8323 7.6874C11.8169 7.76469 11.7929 7.8403 11.7655 7.91424C11.7604 7.92936 11.7347 7.96297 11.7621 7.926C11.7929 7.88231 11.7518 7.94448 11.7467 7.95625C11.7295 7.98985 11.7124 8.02178 11.6919 8.0537C11.6713 8.08899 11.6474 8.12092 11.6234 8.15452C11.5977 8.19317 11.6354 8.1562 11.6371 8.1394C11.6371 8.15284 11.6011 8.18141 11.5943 8.18981C11.5446 8.24526 11.4916 8.29735 11.4351 8.34439C11.4282 8.34944 11.406 8.37128 11.4008 8.37296C11.4385 8.34608 11.4453 8.33935 11.4248 8.35448C11.4162 8.3612 11.406 8.36792 11.3974 8.37296C11.3666 8.39312 11.3358 8.41329 11.3032 8.43177C11.2707 8.45025 11.2382 8.46706 11.2039 8.48386C11.2057 8.48386 11.1663 8.50402 11.1629 8.50234C11.2108 8.48386 11.2159 8.4805 11.1817 8.49394C11.1748 8.4973 11.168 8.49898 11.1611 8.50234C11.0892 8.52923 11.0156 8.54939 10.9403 8.56451C10.9215 8.56787 10.9026 8.57124 10.8821 8.5746C10.8564 8.57796 10.8667 8.57796 10.9146 8.56955C10.9026 8.57123 10.8906 8.57291 10.8787 8.57291C10.8393 8.57964 10.7965 8.58132 10.752 8.58132C10.5722 8.583 10.401 8.73422 10.4096 8.91738C10.4181 9.09885 10.5602 9.25512 10.752 9.25344C11.5104 9.24671 12.1712 8.77791 12.4349 8.08395C12.6866 7.42191 12.464 6.61369 11.9059 6.16505C11.6063 5.92477 11.2587 5.78362 10.8701 5.75169C10.5123 5.72313 10.1356 5.81555 9.82918 5.99702C9.1786 6.38517 8.85674 7.13626 9.00397 7.86551C9.16662 8.66869 9.92676 9.24503 10.7503 9.25176C10.93 9.25344 11.1012 9.09549 11.0927 8.9157C11.0858 8.73422 10.9437 8.583 10.752 8.58132Z" fill="#777B7C"/>
<path d="M8.25248 13.755C8.45792 13.755 8.66508 13.755 8.87053 13.755C9.36531 13.755 9.8618 13.755 10.3566 13.755C10.9558 13.755 11.5567 13.755 12.1559 13.755C12.6747 13.755 13.1934 13.755 13.7122 13.755C13.9656 13.755 14.2189 13.7601 14.4723 13.755C14.4757 13.755 14.4792 13.755 14.4843 13.755C14.7531 13.755 15.0099 13.5232 14.9979 13.251C14.9859 12.9771 14.7719 12.7469 14.4843 12.7469C14.2789 12.7469 14.0717 12.7469 13.8663 12.7469C13.3715 12.7469 12.875 12.7469 12.3802 12.7469C11.781 12.7469 11.1801 12.7469 10.5809 12.7469C10.0621 12.7469 9.54336 12.7469 9.02461 12.7469C8.77123 12.7469 8.51785 12.7418 8.26446 12.7469C8.26104 12.7469 8.25762 12.7469 8.25248 12.7469C7.98369 12.7469 7.72688 12.9787 7.73887 13.251C7.75085 13.5248 7.96486 13.755 8.25248 13.755Z" fill="#777B7C"/>
<path d="M0.514016 13.755C1.06016 13.755 1.6063 13.755 2.15415 13.755C3.02901 13.755 3.90215 13.755 4.777 13.755C4.97731 13.755 5.17762 13.755 5.37622 13.755C5.64501 13.755 5.90181 13.5231 5.88983 13.2509C5.87784 12.977 5.66384 12.7468 5.37622 12.7468C4.83007 12.7468 4.28393 12.7468 3.73608 12.7468C2.86123 12.7468 1.98808 12.7468 1.11323 12.7468C0.912922 12.7468 0.712613 12.7468 0.514016 12.7468C0.245226 12.7468 -0.0115807 12.9787 0.00040364 13.2509C0.0123879 13.5248 0.226393 13.755 0.514016 13.755Z" fill="#777B7C"/>
<path d="M6.81435 14.664C7.61143 14.664 8.2576 14.0299 8.2576 13.2475C8.2576 12.4652 7.61143 11.8311 6.81435 11.8311C6.01726 11.8311 5.37109 12.4652 5.37109 13.2475C5.37109 14.0299 6.01726 14.664 6.81435 14.664Z" fill="#777B7C"/>
<path d="M6.81434 14.3279C6.77839 14.3279 6.74244 14.3262 6.70649 14.3245C6.69621 14.3245 6.6517 14.3262 6.64828 14.3195C6.64828 14.3195 6.73559 14.3346 6.66882 14.3212C6.60034 14.3094 6.53357 14.2943 6.4668 14.2741C6.44797 14.2674 6.37093 14.2523 6.35894 14.2355C6.36065 14.2372 6.43598 14.2708 6.37777 14.2422C6.36408 14.2355 6.35038 14.2288 6.33668 14.222C6.27334 14.1901 6.21342 14.1531 6.1535 14.1145C6.15007 14.1128 6.14665 14.1095 6.14494 14.1078C6.11583 14.0859 6.12097 14.091 6.16034 14.1212C6.15521 14.1212 6.12782 14.0943 6.1261 14.0927C6.10385 14.0742 6.08159 14.054 6.05933 14.0338C6.03537 14.0103 6.0114 13.9868 5.98914 13.9633C5.97716 13.9498 5.96346 13.9364 5.95148 13.9213C5.94291 13.9112 5.91039 13.8591 5.93607 13.9045C5.96346 13.9532 5.92751 13.8927 5.92237 13.886C5.91381 13.8742 5.90525 13.8625 5.89669 13.849C5.87957 13.8238 5.86416 13.7986 5.85046 13.7734C5.83163 13.7415 5.81622 13.7079 5.7991 13.6743C5.77856 13.6339 5.78883 13.681 5.80595 13.6927C5.79397 13.6843 5.78541 13.6423 5.78198 13.6306C5.75973 13.5701 5.74261 13.5079 5.72891 13.4457C5.72549 13.4306 5.72206 13.4155 5.72035 13.4004C5.71008 13.3382 5.70323 13.397 5.72035 13.4105C5.70665 13.3987 5.71179 13.3147 5.71179 13.2945C5.71008 13.2273 5.71521 13.1618 5.71864 13.0946C5.72206 13.0441 5.70152 13.1803 5.71693 13.1046C5.72035 13.0895 5.72206 13.0744 5.72549 13.0593C5.73233 13.0223 5.74261 12.9853 5.75288 12.9484C5.76144 12.9198 5.77 12.8912 5.78027 12.8627C5.78712 12.8459 5.79397 12.8274 5.80082 12.8106C5.81622 12.7652 5.76315 12.8862 5.79739 12.819C5.82821 12.7602 5.85903 12.7014 5.89498 12.6442C5.90354 12.6325 5.9121 12.619 5.92066 12.6073C5.92579 12.6006 5.96004 12.5401 5.93435 12.5888C5.90867 12.6358 5.94292 12.5787 5.94976 12.572C5.96004 12.5602 5.9686 12.5501 5.97887 12.5384C6.02338 12.4897 6.07132 12.4426 6.12268 12.4006C6.13124 12.3939 6.18774 12.3603 6.1398 12.3855C6.097 12.409 6.13809 12.3872 6.15007 12.3788C6.17746 12.3603 6.20657 12.3418 6.23396 12.325C6.25964 12.3099 6.28532 12.2947 6.31272 12.2813C6.32984 12.2729 6.34696 12.2645 6.36408 12.2561C6.37435 12.251 6.38462 12.246 6.39489 12.2426C6.35209 12.2595 6.34182 12.2645 6.36579 12.2544C6.42742 12.2342 6.48734 12.2107 6.55069 12.1956C6.58493 12.1872 6.61917 12.1805 6.65341 12.1738C6.66882 12.1721 6.71676 12.1704 6.6654 12.1721C6.60719 12.1721 6.68937 12.1704 6.70135 12.1704C6.76983 12.1654 6.8366 12.1654 6.90508 12.1687C6.92563 12.1704 6.94446 12.1721 6.96329 12.1738C7.01123 12.1771 6.89481 12.162 6.94275 12.1704C6.98555 12.1788 7.02664 12.1855 7.06773 12.1956C7.12765 12.2107 7.18415 12.2292 7.24235 12.2494C7.31426 12.2746 7.19271 12.2208 7.23379 12.246C7.2492 12.2561 7.26804 12.2611 7.28516 12.2695C7.3194 12.2863 7.35193 12.3048 7.38445 12.3233C7.41013 12.3384 7.43582 12.3552 7.45978 12.372C7.45978 12.372 7.49574 12.3939 7.49574 12.3972C7.49402 12.3804 7.44095 12.3519 7.48889 12.3922C7.54196 12.4376 7.59503 12.4846 7.64126 12.5367C7.65496 12.5518 7.69776 12.5854 7.69947 12.6039C7.69091 12.5921 7.68235 12.5821 7.67379 12.5703C7.68064 12.5787 7.68748 12.5888 7.69433 12.5972C7.70289 12.609 7.71145 12.6207 7.72001 12.6342C7.75939 12.693 7.79192 12.7551 7.82445 12.8173C7.85355 12.8744 7.81931 12.7988 7.8176 12.7988C7.82616 12.8055 7.83472 12.8392 7.83814 12.8509C7.85013 12.8828 7.8604 12.9148 7.87067 12.9467C7.87923 12.9753 7.88608 13.0055 7.89293 13.0341C7.89635 13.0492 7.89978 13.0643 7.90149 13.0794C7.90491 13.0946 7.90663 13.1097 7.90834 13.1248C7.90663 13.1097 7.90491 13.0962 7.90149 13.0811C7.89293 13.1466 7.91176 13.2239 7.91005 13.2912C7.90834 13.3231 7.90491 13.3533 7.9032 13.3852C7.89807 13.4625 7.91519 13.3264 7.90491 13.3768C7.90149 13.3953 7.89807 13.4138 7.89464 13.434C7.87923 13.5113 7.85527 13.5869 7.82787 13.6608C7.82274 13.6759 7.79706 13.7095 7.82445 13.6726C7.85527 13.6289 7.81418 13.6911 7.80904 13.7028C7.79192 13.7364 7.7748 13.7684 7.75425 13.8003C7.73371 13.8356 7.70974 13.8675 7.68577 13.9011C7.66009 13.9397 7.69776 13.9028 7.69947 13.886C7.69947 13.8994 7.66352 13.928 7.65667 13.9364C7.60702 13.9918 7.55395 14.0439 7.49745 14.091C7.4906 14.096 7.46834 14.1179 7.46321 14.1195C7.50087 14.0927 7.50772 14.0859 7.48718 14.1011C7.47862 14.1078 7.46834 14.1145 7.45978 14.1195C7.42897 14.1397 7.39815 14.1599 7.36562 14.1783C7.33309 14.1968 7.30056 14.2136 7.26632 14.2304C7.26804 14.2304 7.22866 14.2506 7.22523 14.2489C7.27317 14.2304 7.27831 14.2271 7.24407 14.2405C7.23722 14.2439 7.23037 14.2456 7.22352 14.2489C7.15162 14.2758 7.078 14.296 7.00267 14.3111C6.98384 14.3145 6.965 14.3178 6.94446 14.3212C6.91878 14.3245 6.92905 14.3245 6.97699 14.3161C6.965 14.3178 6.95302 14.3195 6.94104 14.3195C6.90166 14.3262 6.85886 14.3279 6.81434 14.3279C6.63458 14.3296 6.46338 14.4808 6.47194 14.664C6.4805 14.8454 6.6226 15.0017 6.81434 15C7.57278 14.9933 8.23363 14.5245 8.49728 13.8305C8.74895 13.1685 8.52639 12.3603 7.96826 11.9116C7.66865 11.6713 7.32111 11.5302 6.93248 11.4983C6.57466 11.4697 6.19801 11.5621 5.89155 11.7436C5.24098 12.1317 4.91911 12.8828 5.06635 13.6121C5.22899 14.4153 5.98914 14.9916 6.81263 14.9983C6.9924 15 7.1636 14.8421 7.15504 14.6623C7.14819 14.4808 7.00609 14.3296 6.81434 14.3279Z" fill="#777B7C"/>
</svg>
