<svg width="15" height="15" viewBox="0 0 15 15" fill="none" xmlns="http://www.w3.org/2000/svg">
<path d="M13.6378 7.05354L12.3917 5.80662C12.1383 5.55301 11.737 5.55301 11.5047 5.80662C11.2513 6.06023 11.2513 6.46178 11.5047 6.69425L12.7508 7.94117C14.0602 9.25149 14.0602 11.4072 12.7508 12.7598C11.4414 14.0701 9.28719 14.0701 7.93555 12.7598L6.68951 11.5129C6.43608 11.2592 6.03481 11.2592 5.8025 11.5129C5.54907 11.7665 5.54907 12.168 5.8025 12.4005L7.04854 13.6474C7.95667 14.5562 9.16047 15 10.3432 15C11.547 15 12.7296 14.5562 13.6378 13.6474C15.454 11.8087 15.454 8.84994 13.6378 7.05354Z" fill="#404950"/>
<path d="M7.04858 2.23494L8.29462 3.48186C8.54805 3.73547 8.94932 3.73547 9.18163 3.48186C9.43506 3.22825 9.43506 2.8267 9.18163 2.59422L7.93559 1.34731C6.09821 -0.449102 3.1415 -0.449102 1.34636 1.34731C-0.448786 3.18598 -0.448786 6.14477 1.34636 7.94118L2.5924 9.18809C2.71911 9.3149 2.88807 9.3783 3.0359 9.3783C3.20486 9.3783 3.35269 9.3149 3.47941 9.18809C3.73284 8.93448 3.73284 8.53293 3.47941 8.30046L2.23337 7.05354C0.923971 5.74322 0.923971 3.58753 2.23337 2.23494C3.56389 0.924621 5.71806 0.924621 7.04858 2.23494Z" fill="#404950"/>
<path d="M9.09714 9.73758C9.26609 9.73758 9.41393 9.67417 9.54064 9.54737C9.79408 9.29376 9.79408 8.89221 9.54064 8.65973L6.3305 5.44733C6.07707 5.19372 5.6758 5.19372 5.44349 5.44733C5.19006 5.70094 5.19006 6.10249 5.44349 6.33497L8.65363 9.54737C8.78035 9.67417 8.92818 9.73758 9.09714 9.73758Z" fill="#404950"/>
</svg>
