<svg width="10" height="15" viewBox="0 0 10 15" fill="none" xmlns="http://www.w3.org/2000/svg">
<path d="M1.80673 3.47703C2.71982 3.47703 3.46003 2.73408 3.46003 1.8176C3.46003 0.901125 2.71982 0.158173 1.80673 0.158173C0.893647 0.158173 0.153442 0.901125 0.153442 1.8176C0.153442 2.73408 0.893647 3.47703 1.80673 3.47703Z" fill="#404950"/>
<path d="M3.30116 1.81819C3.29639 2.43828 2.90729 3.01693 2.31966 3.22735C1.7241 3.44095 1.05865 3.25604 0.652078 2.76985C0.248681 2.28684 0.2058 1.5711 0.531376 1.03709C0.8506 0.509452 1.48746 0.222518 2.09255 0.345262C2.78976 0.487135 3.29639 1.10563 3.30116 1.81819C3.30275 2.02382 3.62038 2.02382 3.61879 1.81819C3.61403 1.05622 3.13599 0.373955 2.42448 0.107745C1.72092 -0.153683 0.890304 0.0726756 0.415439 0.656106C-0.0673667 1.2491 -0.142011 2.10034 0.25821 2.76028C0.655254 3.41545 1.43187 3.74861 2.17832 3.59877C3.01211 3.42979 3.61403 2.66464 3.62038 1.81819C3.62038 1.61255 3.30275 1.61255 3.30116 1.81819Z" fill="#404950"/>
<path d="M1.80673 9.15989C2.71982 9.15989 3.46003 8.41694 3.46003 7.50046C3.46003 6.58399 2.71982 5.84103 1.80673 5.84103C0.893647 5.84103 0.153442 6.58399 0.153442 7.50046C0.153442 8.41694 0.893647 9.15989 1.80673 9.15989Z" fill="#404950"/>
<path d="M3.30116 7.50105C3.29639 8.12114 2.90729 8.69979 2.31966 8.91021C1.7241 9.12381 1.05865 8.9389 0.652078 8.45271C0.248681 7.9697 0.2058 7.25397 0.531376 6.71995C0.8506 6.19231 1.48746 5.90538 2.09255 6.02812C2.78976 6.17 3.29639 6.7885 3.30116 7.50105C3.30275 7.70668 3.62038 7.70668 3.61879 7.50105C3.61403 6.73908 3.13599 6.05682 2.42448 5.79061C1.72092 5.52918 0.890304 5.75554 0.415439 6.33897C-0.0673667 6.93196 -0.142011 7.7832 0.25821 8.44314C0.655254 9.09831 1.43187 9.43147 2.17832 9.28163C3.01211 9.11265 3.61403 8.3475 3.62038 7.50105C3.62038 7.29541 3.30275 7.29541 3.30116 7.50105Z" fill="#404950"/>
<path d="M1.80673 14.8428C2.71982 14.8428 3.46003 14.0998 3.46003 13.1834C3.46003 12.2669 2.71982 11.5239 1.80673 11.5239C0.893647 11.5239 0.153442 12.2669 0.153442 13.1834C0.153442 14.0998 0.893647 14.8428 1.80673 14.8428Z" fill="#404950"/>
<path d="M3.30116 13.1839C3.29639 13.804 2.90729 14.3827 2.31966 14.5931C1.7241 14.8067 1.05865 14.6218 0.652078 14.1356C0.248681 13.6526 0.2058 12.9369 0.531376 12.4028C0.8506 11.8752 1.48746 11.5883 2.09255 11.711C2.78976 11.8529 3.29639 12.4714 3.30116 13.1839C3.30275 13.3896 3.62038 13.3896 3.61879 13.1839C3.61403 12.422 3.13599 11.7397 2.42448 11.4735C1.72092 11.2121 0.890304 11.4384 0.415439 12.0219C-0.0673667 12.6149 -0.142011 13.4661 0.25821 14.126C0.655254 14.7812 1.43187 15.1144 2.17832 14.9645C3.01211 14.7955 3.61403 14.0304 3.62038 13.1839C3.62038 12.9783 3.30275 12.9783 3.30116 13.1839Z" fill="#404950"/>
<path d="M7.92111 3.47703C8.8342 3.47703 9.57441 2.73408 9.57441 1.8176C9.57441 0.901125 8.8342 0.158173 7.92111 0.158173C7.00803 0.158173 6.26782 0.901125 6.26782 1.8176C6.26782 2.73408 7.00803 3.47703 7.92111 3.47703Z" fill="#404950"/>
<path d="M9.41566 1.81819C9.41089 2.43828 9.02179 3.01693 8.43417 3.22735C7.8386 3.44095 7.17315 3.25604 6.76658 2.76985C6.36318 2.28684 6.3203 1.5711 6.64588 1.03709C6.9651 0.509452 7.60196 0.222518 8.20706 0.345262C8.90427 0.487135 9.41089 1.10563 9.41566 1.81819C9.41725 2.02382 9.73488 2.02382 9.73329 1.81819C9.72853 1.05622 9.25049 0.373955 8.53899 0.107745C7.83542 -0.153683 7.00481 0.0726756 6.52994 0.656106C6.04714 1.2491 5.97249 2.10034 6.37271 2.76028C6.76976 3.41545 7.54637 3.74861 8.29282 3.59877C9.12661 3.42979 9.72853 2.66464 9.73488 1.81819C9.73488 1.61255 9.41725 1.61255 9.41566 1.81819Z" fill="#404950"/>
<path d="M7.92111 9.15989C8.8342 9.15989 9.57441 8.41694 9.57441 7.50046C9.57441 6.58399 8.8342 5.84103 7.92111 5.84103C7.00803 5.84103 6.26782 6.58399 6.26782 7.50046C6.26782 8.41694 7.00803 9.15989 7.92111 9.15989Z" fill="#404950"/>
<path d="M9.41566 7.50105C9.41089 8.12114 9.02179 8.69979 8.43417 8.91021C7.8386 9.12381 7.17315 8.9389 6.76658 8.45271C6.36318 7.9697 6.3203 7.25397 6.64588 6.71995C6.9651 6.19231 7.60196 5.90538 8.20706 6.02812C8.90427 6.17 9.41089 6.7885 9.41566 7.50105C9.41725 7.70668 9.73488 7.70668 9.73329 7.50105C9.72853 6.73908 9.25049 6.05682 8.53899 5.79061C7.83542 5.52918 7.00481 5.75554 6.52994 6.33897C6.04714 6.93196 5.97249 7.7832 6.37271 8.44314C6.76976 9.09831 7.54637 9.43147 8.29282 9.28163C9.12661 9.11265 9.72853 8.3475 9.73488 7.50105C9.73488 7.29541 9.41725 7.29541 9.41566 7.50105Z" fill="#404950"/>
<path d="M7.92111 14.8428C8.8342 14.8428 9.57441 14.0998 9.57441 13.1834C9.57441 12.2669 8.8342 11.5239 7.92111 11.5239C7.00803 11.5239 6.26782 12.2669 6.26782 13.1834C6.26782 14.0998 7.00803 14.8428 7.92111 14.8428Z" fill="#404950"/>
<path d="M9.41566 13.1839C9.41089 13.804 9.02179 14.3827 8.43417 14.5931C7.8386 14.8067 7.17315 14.6218 6.76658 14.1356C6.36318 13.6526 6.3203 12.9369 6.64588 12.4028C6.9651 11.8752 7.60196 11.5883 8.20706 11.711C8.90427 11.8529 9.41089 12.4714 9.41566 13.1839C9.41725 13.3896 9.73488 13.3896 9.73329 13.1839C9.72853 12.422 9.25049 11.7397 8.53899 11.4735C7.83542 11.2121 7.00481 11.4384 6.52994 12.0219C6.04714 12.6149 5.97249 13.4661 6.37271 14.126C6.76976 14.7812 7.54637 15.1144 8.29282 14.9645C9.12661 14.7955 9.72853 14.0304 9.73488 13.1839C9.73488 12.9783 9.41725 12.9783 9.41566 13.1839Z" fill="#404950"/>
</svg>
