<svg width="15" height="15" viewBox="0 0 15 15" fill="none" xmlns="http://www.w3.org/2000/svg">
<path d="M6.07262 12.2343C6.08839 12.2343 6.10417 12.2343 6.11994 12.2343C6.49849 12.2018 6.79817 11.8601 6.76663 11.4696L6.32499 4.92952C6.29344 4.53906 5.96221 4.24622 5.58366 4.26249C5.20511 4.29502 4.90543 4.63667 4.93697 5.02713L5.37861 11.5673C5.41016 11.9414 5.70984 12.2343 6.07262 12.2343Z" fill="#E44E51"/>
<path d="M8.86429 12.218C8.88006 12.218 8.89584 12.218 8.91161 12.218C9.27438 12.218 9.57407 11.9252 9.60562 11.551L10.0473 5.01083C10.0788 4.62038 9.77912 4.27873 9.40057 4.24619C9.02202 4.22992 8.69079 4.52276 8.65924 4.91322L8.2176 11.4534C8.18606 11.8601 8.46997 12.2017 8.86429 12.218Z" fill="#E44E51"/>
<path d="M14.2902 1.38286H10.2681L9.52681 0.309111C9.38486 0.113883 9.16404 0 8.94322 0H6.04101C5.80442 0 5.5836 0.113883 5.45741 0.309111L4.71609 1.38286H0.694006C0.315457 1.38286 0 1.70824 0 2.0987C0 2.48915 0.315457 2.81453 0.694006 2.81453H1.29338L2.49211 13.1453C2.6183 14.2028 3.4858 15 4.52681 15H10.4732C11.5142 15 12.3817 14.2028 12.5079 13.1453L13.7066 2.81453H14.306C14.6845 2.81453 15 2.48915 15 2.0987C14.9842 1.70824 14.6688 1.38286 14.2902 1.38286ZM11.1199 12.9664C11.0883 13.308 10.8044 13.5683 10.4732 13.5683H4.52681C4.19558 13.5683 3.91167 13.308 3.88013 12.9664L2.69716 2.81453H12.3028L11.1199 12.9664Z" fill="#E44E51"/>
</svg>
