<svg width="15" height="15" viewBox="0 0 15 15" fill="none" xmlns="http://www.w3.org/2000/svg">
<path d="M11.8205 10.3667C12.6503 9.28333 13.1583 7.93333 13.1583 6.46667C13.1583 2.9 10.1947 0 6.5707 0C2.94666 0 0 2.9 0 6.46667C0 10.0333 2.94666 12.9333 6.5707 12.9333C7.92549 12.9333 9.1956 12.5167 10.2456 11.8167C10.2625 11.8333 10.2625 11.8333 10.2794 11.85L13.1583 14.6833C13.3616 14.8833 13.6494 15 13.9204 15C14.1914 15 14.4793 14.9 14.6825 14.6833C15.1058 14.2667 15.1058 13.6 14.6825 13.1833L11.8205 10.3667ZM6.5707 10.8167C4.13209 10.8167 2.15072 8.86667 2.15072 6.46667C2.15072 4.06667 4.13209 2.11667 6.5707 2.11667C9.00931 2.11667 10.9907 4.06667 10.9907 6.46667C10.9907 8.86667 9.00931 10.8167 6.5707 10.8167Z" fill="#777B7C"/>
</svg>
