<svg width="100" height="102" viewBox="0 0 100 102" fill="none" xmlns="http://www.w3.org/2000/svg">
<circle cx="50" cy="50" r="49" fill="white" stroke="#404950" stroke-width="2" stroke-dasharray="5 5"/>
<rect x="70" y="72" width="30" height="30" rx="5" fill="#F6F8F9"/>
<path d="M89.9333 86.0667H85.9333V82.0667C85.9333 81.48 85.5133 81 85 81C84.4867 81 84.0667 81.48 84.0667 82.0667V86.0667H80.0667C79.48 86.0667 79 86.4867 79 87C79 87.5133 79.48 87.9333 80.0667 87.9333H84.0667V91.9333C84.0667 92.52 84.4867 93 85 93C85.5133 93 85.9333 92.52 85.9333 91.9333V87.9333H89.9333C90.52 87.9333 91 87.5133 91 87C91 86.4867 90.52 86.0667 89.9333 86.0667Z" fill="#404950"/>
<path d="M60.0583 42.7966H56.9083L55.9417 40.0415C55.6961 39.4137 55.2834 38.8827 54.7582 38.5187C54.233 38.1547 53.6199 37.9748 53 38.0028H48C47.3871 37.9782 46.7816 38.1567 46.2617 38.5152C45.7417 38.8737 45.3313 39.3958 45.0834 40.014L44.1167 42.769H40.9417C40.5536 42.7702 40.1695 42.8558 39.8115 43.0209C39.4535 43.1859 39.1285 43.4272 38.8552 43.7309C38.582 44.0346 38.3658 44.3948 38.219 44.7907C38.0723 45.1866 37.9979 45.6106 38 46.0383V59.7583C38 60.184 38.0761 60.6055 38.224 60.9988C38.3718 61.3921 38.5885 61.7495 38.8616 62.0505C39.1348 62.3515 39.4591 62.5903 39.816 62.7532C40.1729 62.9162 40.5554 63 40.9417 63H60.0583C60.4446 63 60.8272 62.9162 61.1841 62.7532C61.541 62.5903 61.8652 62.3515 62.1384 62.0505C62.4116 61.7495 62.6282 61.3921 62.7761 60.9988C62.9239 60.6055 63 60.184 63 59.7583V46.0383C62.9978 45.1793 62.6872 44.3561 62.136 43.7487C61.5848 43.1413 60.8378 42.799 60.0583 42.7966ZM46.3334 52.3381C46.3334 51.4299 46.5777 50.5422 47.0356 49.7871C47.4934 49.032 48.1442 48.4435 48.9055 48.0959C49.6669 47.7484 50.5046 47.6575 51.3129 47.8346C52.1212 48.0118 52.8636 48.4491 53.4463 49.0913C54.029 49.7334 54.4258 50.5516 54.5866 51.4423C54.7474 52.333 54.6649 53.2562 54.3495 54.0953C54.0342 54.9343 53.5001 55.6514 52.8149 56.1559C52.1297 56.6605 51.3241 56.9298 50.5 56.9298C49.395 56.9298 48.3352 56.446 47.5538 55.5849C46.7724 54.7238 46.3334 53.5559 46.3334 52.3381Z" fill="#404950"/>
</svg>
