<svg width="280" height="210" viewBox="0 0 280 210" fill="none" xmlns="http://www.w3.org/2000/svg">
<path d="M139.265 178.416C179.386 178.416 211.911 176.332 211.911 173.761C211.911 171.19 179.386 169.106 139.265 169.106C99.1436 169.106 66.6189 171.19 66.6189 173.761C66.6189 176.332 99.1436 178.416 139.265 178.416Z" fill="#D1D3D4"/>
<path d="M150.927 100.464C152.368 99.6024 153.756 98.6557 155.085 97.629C157.934 95.424 158.781 93.527 159.607 90.104C160.16 87.794 158.417 85.617 156.702 83.972C154.987 82.327 153.034 80.507 153.006 78.134C153.006 76.307 154.147 74.711 154.84 73.017C158.501 64.099 148.323 60.165 146.286 52.717C144.249 45.269 141.848 39.144 132.727 41.517C130.515 42.084 128.324 42.84 126.049 42.917C123.949 43.022 121.891 42.581 119.805 42.553C116.889 42.5543 114.026 43.3417 111.52 44.8322C109.013 46.3227 106.954 48.4613 105.56 51.023C104.447 53.123 105.105 55.923 104.062 57.582C101.325 61.936 94.794 60.872 96.18 67.991C96.677 70.525 97.762 73.192 96.796 75.593C95.564 78.652 91.763 79.569 89.096 81.529C84.749 84.735 83.615 91.189 85.694 96.18C87.773 101.171 92.463 104.72 97.559 106.533C102.655 108.346 108.15 108.633 113.561 108.633C126.469 108.682 140 107.023 150.927 100.464Z" fill="white"/>
<path d="M113.764 108.983H113.575C108.269 108.983 102.655 108.717 97.4749 106.883C91.7489 104.846 87.3529 101.01 85.4209 96.383C83.1599 90.951 84.6649 84.483 88.9209 81.347C89.815 80.722 90.7505 80.1584 91.7209 79.66C93.7579 78.561 95.6899 77.56 96.4809 75.551C97.1809 73.773 96.7119 71.764 96.2359 69.825C96.1029 69.258 95.9629 68.691 95.8579 68.131C94.9409 63.441 97.3209 62.111 99.8409 60.697C101.297 59.885 102.795 59.045 103.782 57.484C104.218 56.5652 104.445 55.5611 104.447 54.544C104.477 53.305 104.753 52.0844 105.259 50.953C106.666 48.3679 108.737 46.2044 111.258 44.685C113.779 43.1656 116.659 42.3451 119.602 42.308H119.791C120.708 42.308 121.625 42.406 122.514 42.497C123.675 42.6367 124.845 42.6928 126.014 42.665C127.757 42.5139 129.477 42.1712 131.145 41.643L132.636 41.237C141.953 38.843 144.459 45.01 146.58 52.696C147.336 55.447 149.282 57.757 151.165 59.99C154.259 63.665 157.465 67.466 155.12 73.178C154.924 73.661 154.679 74.151 154.42 74.62C153.768 75.6946 153.379 76.9084 153.286 78.162C153.286 80.36 155.162 82.131 156.786 83.699L156.877 83.776C159.362 86.156 160.335 88.256 159.866 90.216C159.026 93.716 158.158 95.648 155.232 97.916C153.89 98.9504 152.487 99.904 151.032 100.772C141.841 106.288 129.633 108.983 113.764 108.983ZM119.616 42.91C116.79 42.9445 114.024 43.7312 111.603 45.1891C109.182 46.6469 107.192 48.7234 105.84 51.205C105.375 52.2656 105.123 53.4072 105.098 54.565C105.094 55.6826 104.833 56.7844 104.335 57.785C103.264 59.479 101.689 60.361 100.135 61.215C97.7199 62.566 95.6339 63.735 96.4599 67.963C96.5719 68.516 96.7049 69.069 96.8379 69.629C97.3349 71.666 97.8459 73.78 97.0549 75.747C96.1729 77.938 94.0519 79.079 92.0009 80.185C91.0528 80.6662 90.1383 81.2111 89.2639 81.816C85.2319 84.791 83.8179 90.916 85.9669 96.096C87.8359 100.583 92.0919 104.293 97.6429 106.267C102.739 108.08 108.297 108.367 113.54 108.367H113.729C129.479 108.367 141.582 105.7 150.731 100.212C152.159 99.3597 153.535 98.4248 154.854 97.412C157.654 95.263 158.459 93.408 159.257 90.062C159.67 88.347 158.753 86.443 156.457 84.238L156.366 84.161C154.644 82.509 152.684 80.661 152.663 78.169C152.753 76.8136 153.163 75.499 153.86 74.333C154.091 73.871 154.322 73.402 154.518 72.933C156.709 67.585 153.769 64.099 150.661 60.403C148.736 58.121 146.741 55.755 145.95 52.864C143.85 45.248 141.547 39.606 132.783 41.86C132.286 41.986 131.796 42.119 131.306 42.259C129.592 42.7991 127.825 43.1512 126.035 43.309C124.833 43.3354 123.631 43.2769 122.437 43.134C121.562 43.043 120.659 42.959 119.77 42.945L119.616 42.91Z" fill="#231F20"/>
<path d="M87.8779 121.541C87.8779 121.541 93.5899 90.7409 99.3019 85.5259C105.014 80.3109 120.169 80.3109 128.114 80.0589C136.059 79.8069 147.714 82.5439 152.957 87.7589C158.2 92.9739 163.632 126 163.632 126L152.705 124.754L159.663 143.136C159.663 143.136 135.569 156.1 124.39 155.323C113.211 154.546 95.5779 139.426 95.5779 139.426L96.5719 119.056L87.8779 121.541Z" fill="#68E1FD"/>
<path d="M149.723 119.623C149.681 119.621 149.64 119.611 149.602 119.593C149.564 119.575 149.53 119.55 149.502 119.518C149.474 119.487 149.452 119.451 149.438 119.411C149.425 119.371 149.419 119.329 149.422 119.287C149.912 109.753 146.482 91.231 146.447 91.049C146.439 91.0081 146.44 90.966 146.448 90.9253C146.456 90.8845 146.473 90.8458 146.496 90.8113C146.52 90.7769 146.55 90.7473 146.584 90.7245C146.619 90.7016 146.658 90.6858 146.699 90.678C146.74 90.6702 146.782 90.6705 146.823 90.6789C146.864 90.6874 146.902 90.7038 146.937 90.7272C146.971 90.7506 147.001 90.7805 147.024 90.8153C147.046 90.8501 147.062 90.8891 147.07 90.93C147.07 91.119 150.57 109.711 150.059 119.322C150.057 119.364 150.047 119.405 150.029 119.443C150.011 119.481 149.986 119.515 149.954 119.543C149.923 119.571 149.887 119.593 149.847 119.607C149.807 119.62 149.765 119.626 149.723 119.623Z" fill="#231F20"/>
<path d="M107.254 113.169C107.17 113.169 107.089 113.136 107.029 113.077C106.968 113.018 106.934 112.938 106.932 112.854C106.932 112.714 106.715 99.043 109.179 90.16C109.203 90.0797 109.258 90.0117 109.33 89.9701C109.403 89.9285 109.489 89.9162 109.571 89.936C109.612 89.9465 109.65 89.9651 109.683 89.9906C109.717 90.0161 109.745 90.0481 109.766 90.0847C109.787 90.1212 109.8 90.1616 109.805 90.2034C109.81 90.2451 109.807 90.2875 109.795 90.328C107.352 99.127 107.569 112.728 107.569 112.84C107.571 112.924 107.54 113.006 107.482 113.067C107.424 113.129 107.345 113.165 107.261 113.169H107.254Z" fill="#231F20"/>
<path d="M132.615 83.9999L133.784 95.6339C133.784 95.6339 133.217 102.256 125.944 100.94C123.797 100.532 121.768 99.6503 120.005 98.3595C118.242 97.0687 116.789 95.401 115.752 93.4779C115.409 92.7779 115.633 91.2519 115.591 90.4819L115.22 83.6569C115.038 80.2339 114.555 76.6569 114.66 73.2479C114.765 69.8389 114.66 66.2059 114.793 62.6499C114.775 62.4421 114.835 62.235 114.961 62.0689C115.086 61.9539 115.246 61.8848 115.416 61.8729C116.4 61.6955 117.41 61.7217 118.384 61.9499C118.433 59.5349 118.145 57.1247 117.53 54.7889C119.583 56.3208 121.175 58.3893 122.129 60.7669C124.543 60.6475 126.962 60.7671 129.353 61.1239C129.661 59.4622 129.431 57.7454 128.695 56.2239C129.716 57.4805 130.651 58.8041 131.495 60.1859C131.495 60.3889 134.736 60.8439 134.96 60.6409C135.52 60.1439 135.338 56.7909 135.408 55.9929C137.065 58.0732 138.19 60.5265 138.684 63.1399C139.244 65.5269 139.181 75.4039 139.195 77.8959C139.188 81.5709 136.584 84.5179 132.615 83.9999Z" fill="white"/>
<path d="M127.764 101.409C127.134 101.404 126.507 101.343 125.888 101.227C123.694 100.812 121.622 99.9099 119.824 98.5869C118.026 97.2638 116.548 95.5537 115.5 93.5829C115.27 92.8504 115.198 92.0773 115.29 91.3149C115.29 90.9929 115.29 90.6989 115.29 90.4679L114.926 83.6499C114.863 82.5159 114.765 81.3469 114.674 80.2129C114.44 77.8872 114.334 75.5503 114.359 73.2129C114.408 71.5469 114.415 69.8319 114.422 68.1799C114.422 66.3599 114.422 64.4769 114.492 62.5799C114.475 62.292 114.565 62.0081 114.744 61.7819C114.921 61.6224 115.144 61.5221 115.381 61.4949C116.277 61.334 117.194 61.334 118.09 61.4949C118.103 59.2368 117.818 56.9868 117.243 54.8029C117.227 54.7386 117.231 54.671 117.255 54.6093C117.279 54.5476 117.322 54.4947 117.377 54.458C117.432 54.4213 117.497 54.4024 117.563 54.404C117.63 54.4056 117.694 54.4276 117.747 54.4669C119.786 55.9879 121.379 58.0282 122.36 60.3749C124.617 60.279 126.878 60.3868 129.115 60.6969C129.319 59.1947 129.076 57.6654 128.415 56.3009C128.382 56.2301 128.375 56.1494 128.397 56.0741C128.419 55.9988 128.467 55.9341 128.533 55.892C128.599 55.8499 128.679 55.8334 128.756 55.8455C128.834 55.8577 128.904 55.8976 128.954 55.958C129.961 57.2107 130.882 58.5297 131.712 59.9059C132.709 60.1516 133.73 60.2854 134.757 60.3049C135.03 59.9059 135.044 57.799 135.044 56.987C135.044 56.504 135.044 56.1189 135.044 55.8949C135.049 55.8331 135.073 55.7742 135.111 55.7257C135.15 55.6771 135.202 55.641 135.261 55.6219C135.321 55.6044 135.385 55.6036 135.445 55.6196C135.506 55.6357 135.561 55.6679 135.604 55.7129C137.13 57.4629 138.187 59.7799 138.943 63.0069C139.447 65.1069 139.454 72.8909 139.461 76.6219V77.8329C139.497 78.7843 139.328 79.7324 138.966 80.6128C138.604 81.4933 138.056 82.2855 137.361 82.9359C136.763 83.4531 136.064 83.8407 135.309 84.0744C134.553 84.3082 133.758 84.3829 132.972 84.2939L134.099 95.5429C133.92 97.3467 133.04 99.0083 131.649 100.17C130.529 101.006 129.161 101.442 127.764 101.409ZM116.711 62.0479C116.295 62.0464 115.881 62.0839 115.472 62.1599C115.372 62.1681 115.275 62.2019 115.192 62.2579C115.127 62.3728 115.1 62.505 115.115 62.636C115.045 64.4839 115.045 66.3669 115.038 68.1799C115.038 69.8389 115.038 71.5539 114.975 73.2269C114.954 75.5433 115.059 77.859 115.29 80.1639C115.381 81.2979 115.479 82.4739 115.542 83.6149L115.906 90.4329C115.906 90.6779 115.906 90.9929 115.906 91.3359C115.827 91.9969 115.874 92.6668 116.046 93.3099C117.054 95.1923 118.471 96.8244 120.194 98.0856C121.917 99.3469 123.901 100.205 126 100.597C128.191 100.996 129.955 100.688 131.257 99.6939C132.485 98.6527 133.273 97.1843 133.462 95.5849L132.3 83.9999C132.294 83.9521 132.3 83.9036 132.317 83.8585C132.334 83.8134 132.362 83.7731 132.398 83.7409C132.433 83.7075 132.475 83.682 132.521 83.6663C132.567 83.6506 132.616 83.645 132.664 83.6499C133.418 83.7832 134.192 83.7488 134.931 83.5492C135.67 83.3496 136.357 82.9896 136.941 82.4949C137.57 81.9042 138.065 81.1856 138.394 80.3876C138.722 79.5895 138.876 78.7304 138.845 77.8679V76.6569C138.845 73.2409 138.845 65.2469 138.341 63.1889C137.897 60.9133 136.992 58.7526 135.681 56.8399V57.0219C135.681 58.9329 135.625 60.4239 135.149 60.8509C134.673 61.2779 131.866 60.6899 131.46 60.5289C131.398 60.5114 131.341 60.4812 131.291 60.4402C131.242 60.3992 131.202 60.3484 131.173 60.2909C130.69 59.4929 130.172 58.7089 129.626 57.9529C129.85 59.0062 129.864 60.0932 129.668 61.1519C129.654 61.2333 129.609 61.3059 129.542 61.3544C129.476 61.4028 129.393 61.4231 129.311 61.411C126.939 61.0599 124.538 60.9427 122.143 61.061C122.076 61.0673 122.009 61.0507 121.953 61.0138C121.897 60.9768 121.855 60.9219 121.835 60.8579C121.021 58.8258 119.73 57.02 118.069 55.5939C118.53 57.6614 118.743 59.7761 118.706 61.8939C118.704 61.9415 118.692 61.988 118.67 62.0303C118.648 62.0726 118.617 62.1096 118.58 62.1389C118.542 62.1698 118.498 62.1915 118.451 62.2025C118.403 62.2134 118.354 62.2132 118.307 62.2019C117.783 62.0876 117.247 62.0359 116.711 62.0479Z" fill="#231F20"/>
<path d="M133.091 89.6979C133.091 89.6979 128.38 90.349 125.048 87.486C121.716 84.623 121.863 81.403 121.863 81.403C121.863 81.403 127.295 84.35 132.615 83.972L133.091 89.6979Z" fill="#231F20"/>
<path d="M131.859 90.0689C129.322 90.1269 126.846 89.2948 124.859 87.7169C121.45 84.7909 121.562 81.5289 121.569 81.4169C121.571 81.3646 121.586 81.3135 121.613 81.2687C121.641 81.2239 121.679 81.1867 121.724 81.1608C121.77 81.1349 121.821 81.121 121.874 81.1205C121.926 81.12 121.978 81.1329 122.024 81.1579C122.08 81.1579 127.442 84.0629 132.608 83.6919C132.689 83.6861 132.768 83.7122 132.83 83.7646C132.891 83.817 132.93 83.8914 132.937 83.9719L133.413 89.6979C133.417 89.776 133.393 89.8529 133.343 89.9137C133.294 89.9746 133.224 90.0149 133.147 90.0269C132.719 90.0673 132.289 90.0813 131.859 90.0689ZM122.199 81.8999C122.502 83.9974 123.59 85.9015 125.244 87.2269C127.967 89.5649 131.698 89.4739 132.755 89.3969L132.335 84.2729C127.953 84.5179 123.627 82.5999 122.199 81.8999Z" fill="#231F20"/>
<path d="M128.835 74.8999C128.446 74.8981 128.058 74.8701 127.673 74.8159C127.591 74.8022 127.519 74.7571 127.47 74.6903C127.422 74.6236 127.402 74.5405 127.414 74.4589C127.42 74.4182 127.434 74.3792 127.455 74.344C127.476 74.3088 127.504 74.2783 127.538 74.2542C127.571 74.23 127.609 74.2128 127.649 74.2035C127.689 74.1942 127.73 74.1929 127.771 74.1999C128.429 74.3049 130.263 74.4169 130.83 73.6749C131.215 73.1569 129.353 70.1749 127.33 67.7529C127.305 67.7212 127.286 67.6848 127.275 67.6458C127.263 67.6069 127.26 67.5661 127.264 67.5258C127.269 67.4855 127.281 67.4465 127.301 67.411C127.321 67.3755 127.347 67.3442 127.379 67.3189C127.41 67.2936 127.447 67.2749 127.486 67.2636C127.525 67.2524 127.566 67.249 127.606 67.2535C127.646 67.2581 127.685 67.2705 127.721 67.2902C127.756 67.3098 127.788 67.3362 127.813 67.3679C128.849 68.6419 132.174 72.8909 131.313 74.0459C130.795 74.7459 129.689 74.8999 128.835 74.8999Z" fill="#231F20"/>
<path d="M117.985 66.8711C117.406 65.4605 116.541 64.1854 115.444 63.1261C114.275 62.1531 112.511 61.7261 111.244 62.5171C109.844 63.3921 109.494 65.3171 109.655 67.0111C109.879 68.9095 110.399 70.7612 111.195 72.4991C111.571 73.5634 112.215 74.5131 113.064 75.2571C113.496 75.6176 114.034 75.8271 114.597 75.8537C115.159 75.8802 115.715 75.7223 116.179 75.4041" fill="white"/>
<path d="M114.8 76.181C114.085 76.1615 113.394 75.9165 112.826 75.481C111.933 74.7021 111.255 73.7065 110.859 72.59C110.044 70.8178 109.515 68.9277 109.291 66.99C109.193 65.926 109.158 63.336 111.034 62.188C112.553 61.257 114.485 61.866 115.633 62.825C116.766 63.912 117.66 65.2232 118.258 66.675C118.283 66.7132 118.3 66.7563 118.307 66.8016C118.314 66.8468 118.312 66.893 118.3 66.9372C118.288 66.9813 118.266 67.0224 118.237 67.0576C118.208 67.0929 118.171 67.1215 118.13 67.1416C118.089 67.1617 118.044 67.1727 117.998 67.1741C117.953 67.1754 117.907 67.1669 117.865 67.1493C117.823 67.1316 117.785 67.1051 117.753 67.0716C117.722 67.0381 117.698 66.9984 117.684 66.955C117.12 65.5858 116.282 64.3468 115.22 63.315C114.24 62.496 112.616 61.964 111.37 62.734C109.753 63.721 109.858 66.192 109.928 66.934C110.144 68.8 110.657 70.6196 111.447 72.324C111.803 73.338 112.413 74.2441 113.218 74.956C113.594 75.2708 114.061 75.4559 114.55 75.4836C115.04 75.5114 115.525 75.3803 115.934 75.11C115.966 75.0829 116.003 75.0625 116.043 75.0499C116.083 75.0374 116.125 75.0329 116.167 75.0368C116.208 75.0408 116.249 75.053 116.286 75.0727C116.323 75.0925 116.355 75.1194 116.382 75.152C116.436 75.2165 116.462 75.2994 116.455 75.3831C116.449 75.4668 116.41 75.5446 116.347 75.6C115.917 75.9716 115.368 76.1777 114.8 76.181Z" fill="#231F20"/>
<path d="M123.214 68.9429C123.593 68.9429 123.9 68.1657 123.9 67.2069C123.9 66.2482 123.593 65.4709 123.214 65.4709C122.835 65.4709 122.528 66.2482 122.528 67.2069C122.528 68.1657 122.835 68.9429 123.214 68.9429Z" fill="#231F20"/>
<path d="M133.581 68.572C133.96 68.572 134.267 67.7947 134.267 66.836C134.267 65.8772 133.96 65.1 133.581 65.1C133.202 65.1 132.895 65.8772 132.895 66.836C132.895 67.7947 133.202 68.572 133.581 68.572Z" fill="#231F20"/>
<path d="M125.734 95.305C125.734 95.305 128.737 86.849 127.295 84.511C125.853 82.173 121.842 79.954 121.065 77.84C120.288 75.726 121.618 70.609 119.952 70.049C118.286 69.489 117.061 74.249 118.286 78.057C118.286 78.057 116.389 75.726 116.389 73.5C116.389 71.274 117.838 68.495 116.277 67.823C114.716 67.151 112.273 72.275 112.833 76.391C113.393 80.507 118.615 86.289 118.286 87.402C117.957 88.515 89.362 116.249 86.786 120.792C84.392 124.992 85.883 134.463 94.115 133.462C102.347 132.461 120.176 109.655 125.734 95.305Z" fill="white"/>
<path d="M92.8968 133.854C91.7232 133.896 90.5587 133.633 89.5171 133.091C88.4755 132.549 87.5923 131.746 86.9538 130.76C86.0342 129.247 85.5093 127.527 85.4273 125.759C85.3454 123.99 85.709 122.229 86.4848 120.638C88.0948 117.838 99.1618 106.638 108.052 97.615C113.022 92.575 117.719 87.815 117.985 87.29C118.062 86.982 117.082 85.463 116.291 84.238C114.758 81.872 112.847 78.918 112.518 76.433C112.063 73.08 113.561 68.964 115.101 67.795C115.271 67.633 115.483 67.5222 115.714 67.4752C115.944 67.4282 116.183 67.4468 116.403 67.529C117.67 68.075 117.348 69.629 117.033 71.197C116.85 71.9522 116.742 72.7236 116.711 73.5C116.767 74.5189 117.064 75.5098 117.579 76.391C117.215 73.752 117.796 71.071 118.762 70.091C118.918 69.9112 119.122 69.7809 119.351 69.7162C119.58 69.6516 119.823 69.6553 120.05 69.727C121.254 70.126 121.198 72.107 121.142 74.193C121.028 75.3641 121.104 76.5459 121.366 77.693C121.751 78.743 123.102 79.919 124.411 81.053C125.611 81.9842 126.674 83.08 127.568 84.308C129.073 86.744 126.168 95.025 126.035 95.375C123.354 102.284 117.635 111.545 111.16 119.546C104.223 128.093 98.0138 133.266 94.1288 133.735C93.7211 133.801 93.3096 133.841 92.8968 133.854ZM115.997 68.089C115.811 68.1044 115.635 68.1779 115.493 68.299C114.24 69.251 112.693 73.052 113.155 76.349C113.47 78.687 115.416 81.697 116.837 83.895C118.146 85.918 118.769 86.919 118.594 87.493C118.419 88.067 115.717 90.762 108.514 98.063C100.114 106.561 88.6128 118.209 87.0448 120.953C86.3251 122.442 85.9897 124.088 86.0692 125.739C86.1487 127.391 86.6405 128.997 87.4998 130.41C88.4938 131.901 90.4398 133.588 94.0658 133.147C102.179 132.16 119.966 109.347 125.447 95.193C126.273 92.876 128.156 86.485 127.036 84.693C126.174 83.5217 125.154 82.4757 124.005 81.585C122.605 80.346 121.205 79.17 120.778 77.959C120.484 76.7338 120.394 75.4685 120.512 74.214C120.561 72.527 120.617 70.616 119.861 70.371C119.784 70.371 119.546 70.259 119.231 70.581C118.195 71.603 117.684 75.131 118.601 77.973C118.622 78.0436 118.618 78.1193 118.589 78.1873C118.561 78.2554 118.511 78.3117 118.446 78.3469C118.381 78.3821 118.306 78.3941 118.234 78.3808C118.162 78.3675 118.096 78.3298 118.048 78.274C117.971 78.176 116.088 75.824 116.088 73.514C116.118 72.6951 116.231 71.8814 116.424 71.085C116.753 69.461 116.9 68.446 116.172 68.131C116.115 68.1049 116.053 68.0907 115.99 68.089H115.997Z" fill="#231F20"/>
<path d="M132.426 94.808C132.426 94.808 129.423 86.352 130.9 84C132.223 81.9 134.582 80.64 136.192 78.757C137.893 76.762 137.655 73.29 138.621 70.826C138.817 70.322 139.244 69.72 139.755 69.909C139.967 70.0132 140.136 70.1893 140.231 70.406C140.983 71.928 141.484 73.5613 141.715 75.243C142.038 76.6869 142.217 78.1596 142.247 79.639C142.226 80.9733 141.96 82.2925 141.463 83.531C141.155 84.315 139.65 86.023 139.909 86.891C140.245 88.004 142.135 93.681 145.25 97.573C148.365 101.465 164.283 116.746 166.516 126.434C167.699 131.537 166.929 137.676 158.697 136.675C150.465 135.674 137.991 109.158 132.426 94.808Z" fill="white"/>
<path d="M160.356 137.116C159.778 137.114 159.201 137.079 158.627 137.011C150.171 135.982 137.627 109.011 132.132 94.92C132.006 94.57 129.094 86.296 130.606 83.853C131.452 82.6352 132.487 81.56 133.672 80.668C134.481 80.0325 135.235 79.3301 135.926 78.568C136.913 77.413 137.228 75.649 137.522 73.948C137.677 72.8546 137.938 71.7787 138.299 70.735C138.565 70.035 139.125 69.335 139.846 69.629C140.131 69.7597 140.359 69.9882 140.49 70.273C141.259 71.8125 141.77 73.4679 142.002 75.173C142.337 76.6388 142.518 78.1356 142.541 79.639C142.524 81.0114 142.253 82.3689 141.743 83.643C141.566 84.011 141.36 84.3645 141.127 84.7C140.7 85.358 140.063 86.352 140.196 86.8C140.273 87.059 142.135 93.198 145.474 97.37C146.132 98.189 147.357 99.512 148.911 101.192C154.938 107.723 165.011 118.643 166.81 126.357C167.321 128.569 167.839 132.657 165.606 135.142C164.423 136.458 162.666 137.116 160.356 137.116ZM132.727 94.696C139.027 110.95 151.144 135.457 158.704 136.374C161.658 136.731 163.814 136.178 165.123 134.722C167.167 132.454 166.663 128.611 166.18 126.518C164.437 119 154 107.695 148.4 101.647C146.839 99.953 145.6 98.616 144.942 97.783C141.526 93.513 139.622 87.283 139.545 86.996C139.328 86.296 139.979 85.26 140.553 84.371C140.764 84.0737 140.951 83.7601 141.113 83.433C141.592 82.227 141.849 80.9438 141.869 79.646C141.837 78.1879 141.662 76.7365 141.344 75.313C141.121 73.6683 140.634 72.0704 139.902 70.581C139.811 70.427 139.706 70.266 139.587 70.224C139.307 70.119 138.992 70.616 138.887 70.959C138.541 71.9642 138.292 73.0003 138.145 74.053C137.83 75.838 137.508 77.686 136.402 78.953C135.69 79.7426 134.912 80.4709 134.078 81.13C132.941 81.9704 131.95 82.9921 131.145 84.154C130.025 85.988 131.908 92.4 132.727 94.696Z" fill="#231F20"/>
<path d="M121.163 146.132C121.163 146.132 90.608 117.32 77.693 123.032C64.778 128.744 65.03 145.138 71.981 154.574C78.932 164.01 104.769 171.71 126.133 169.729C147.497 167.748 177.044 159.789 182.763 152.341C188.482 144.893 184.247 132.468 174.069 129.241C163.891 126.014 137.802 146.874 121.163 146.132Z" fill="#231F20"/>
<path d="M119.287 170.338C99.9249 170.338 78.1689 163.492 71.7359 154.756C67.4869 148.995 65.8839 140.994 67.6409 134.379C68.2832 131.803 69.5147 129.412 71.2384 127.393C72.962 125.374 75.1308 123.783 77.5739 122.745C90.3139 117.145 119.154 143.829 121.289 145.845C129.689 146.174 140.7 140.896 150.437 136.241C160.006 131.67 169.036 127.337 174.16 128.968C176.688 129.782 178.983 131.193 180.852 133.08C182.72 134.967 184.108 137.275 184.898 139.811C186.354 144.438 185.661 149.079 183.008 152.551C177.324 159.957 147.784 168.042 126.161 170.051C123.9 170.24 121.625 170.338 119.287 170.338ZM81.5849 122.591C80.2945 122.56 79.0118 122.798 77.8189 123.291C75.465 124.291 73.3747 125.822 71.7121 127.766C70.0494 129.709 68.8596 132.011 68.2359 134.491C66.5279 140.938 68.0959 148.736 72.2329 154.35C79.3309 163.989 105.511 171.29 126.098 169.379C147.602 167.377 176.925 159.397 182.518 152.11C185.052 148.806 185.703 144.368 184.31 139.937C183.551 137.494 182.215 135.27 180.416 133.452C178.616 131.635 176.406 130.277 173.971 129.493C169.071 127.946 160.16 132.216 150.703 136.738C140.854 141.442 129.703 146.776 121.149 146.398C121.076 146.394 121.006 146.364 120.953 146.314C120.673 146.09 95.5709 122.591 81.5849 122.591Z" fill="#231F20"/>
<path d="M102.242 166.397L122.003 175.931L130.851 153.58C130.851 153.58 102.536 133.7 95.5779 139.426C88.6199 145.152 100.002 164.661 102.242 166.397Z" fill="#231F20"/>
<path d="M122.003 176.239C121.959 176.249 121.914 176.249 121.87 176.239L102.109 166.705L102.053 166.67C100.268 165.27 93.1559 153.496 93.0509 145.355C93.0089 142.555 93.7999 140.518 95.3819 139.216C102.438 133.42 129.864 152.516 131.026 153.356C131.082 153.396 131.123 153.453 131.143 153.519C131.163 153.585 131.162 153.655 131.138 153.72L122.29 176.05C122.265 176.106 122.225 176.154 122.174 176.187C122.123 176.221 122.064 176.239 122.003 176.239ZM102.403 166.138L121.835 175.511L130.473 153.699C127.932 151.942 102.172 134.407 95.7739 139.699C94.3739 140.875 93.6319 142.779 93.6739 145.355C93.7999 153.083 100.681 164.738 102.403 166.138Z" fill="#231F20"/>
<path d="M129.857 173.95C129.857 173.95 143.36 178.43 155.932 176.554C170.093 174.454 174.314 168.112 167.132 162.4C159.95 156.688 130.62 161.532 130.62 161.532L129.857 173.95Z" fill="#68E1FD"/>
<path d="M149.457 177.331C142.777 177.235 136.143 176.198 129.752 174.251C129.686 174.228 129.629 174.185 129.589 174.126C129.55 174.068 129.531 173.999 129.535 173.929L130.284 161.511C130.288 161.439 130.316 161.37 130.365 161.317C130.413 161.263 130.479 161.228 130.55 161.217C131.747 161.014 160.083 156.415 167.314 162.148C170.163 164.409 171.346 166.831 170.73 169.148C169.75 172.802 164.374 175.623 155.981 176.848C153.821 177.169 151.64 177.33 149.457 177.331ZM130.2 173.719C132.048 174.293 144.438 177.919 155.904 176.239C164.031 175.028 169.204 172.382 170.121 168.98C170.674 166.929 169.568 164.745 166.929 162.68C160.265 157.395 133.798 161.378 130.921 161.833L130.2 173.719Z" fill="#231F20"/>
<path d="M123.158 173.005C123.158 173.005 134.82 176.68 137.06 169.974C139.3 163.268 134.449 162.645 128.366 161.28L123.158 173.005Z" fill="white"/>
<path d="M129.71 174.3H129.262C127.163 174.219 125.082 173.878 123.067 173.285C123.023 173.272 122.983 173.25 122.949 173.219C122.915 173.189 122.889 173.152 122.871 173.11C122.85 173.07 122.839 173.026 122.839 172.98C122.839 172.935 122.85 172.891 122.871 172.851L128.1 161.154C128.129 161.085 128.182 161.03 128.249 160.996C128.315 160.963 128.391 160.954 128.464 160.972L129.514 161.203C133.098 161.994 136.199 162.673 137.417 164.815C138.117 166.103 138.117 167.825 137.417 170.072C136.43 172.9 133.791 174.3 129.71 174.3ZM123.599 172.774C125.524 173.299 134.855 175.574 136.752 169.848C137.452 167.748 137.452 166.222 136.836 165.102C135.758 163.212 132.783 162.554 129.346 161.798L128.548 161.623L123.599 172.774Z" fill="#231F20"/>
<path d="M99.4 165.144C99.341 165.141 99.2835 165.124 99.232 165.095C99.085 164.997 84.063 155.743 75.432 151.886C75.3936 151.869 75.3589 151.845 75.3299 151.815C75.3009 151.785 75.2783 151.749 75.2633 151.71C75.2483 151.671 75.2413 151.629 75.2426 151.587C75.2439 151.545 75.2536 151.504 75.271 151.466C75.2877 151.428 75.3118 151.393 75.3421 151.364C75.3724 151.335 75.4081 151.312 75.4472 151.297C75.4863 151.282 75.528 151.275 75.5699 151.277C75.6117 151.278 75.6529 151.288 75.691 151.305C84.371 155.176 99.421 164.458 99.575 164.549C99.6114 164.571 99.6431 164.599 99.6682 164.633C99.6933 164.667 99.7113 164.706 99.7211 164.747C99.7309 164.788 99.7323 164.831 99.7253 164.873C99.7182 164.915 99.7028 164.954 99.68 164.99C99.6502 165.037 99.6089 165.076 99.5599 165.103C99.5109 165.13 99.4559 165.144 99.4 165.144Z" fill="white"/>
<path d="M91.483 159.789C91.483 159.789 85.183 158.55 83.531 163.289C81.879 168.028 83.531 177.289 87.731 178.934C91.931 180.579 98.413 173.845 100.898 173.222C103.383 172.599 109.767 170.065 109.767 170.065L91.483 159.789Z" fill="#68E1FD"/>
<path d="M89.1869 179.487C88.6589 179.491 88.1346 179.399 87.6399 179.214C83.1249 177.485 81.5919 167.944 83.2299 163.163C84.9169 158.263 91.4759 159.467 91.5389 159.474L91.6369 159.509L109.942 169.764C109.997 169.791 110.042 169.835 110.071 169.889C110.099 169.943 110.111 170.004 110.103 170.065C110.099 170.124 110.079 170.182 110.044 170.23C110.01 170.278 109.962 170.316 109.907 170.338C109.641 170.443 103.474 172.893 100.996 173.516C100.233 173.705 99.0009 174.559 97.5659 175.553C94.9899 177.338 91.8819 179.487 89.1869 179.487ZM89.7049 159.971C87.7939 159.971 84.8049 160.468 83.8319 163.373C83.0689 165.62 83.0409 169.078 83.7689 172.186C84.5599 175.581 86.0579 177.926 87.8709 178.619C90.5449 179.641 94.2339 177.079 97.2019 175.021C98.6859 173.999 99.9669 173.11 100.842 172.921C102.823 172.424 107.373 170.674 109.039 170.016L91.3709 160.125C90.8204 160.031 90.2634 159.979 89.7049 159.971Z" fill="#231F20"/>
<path d="M128.366 161.602H128.261C128.221 161.589 128.184 161.567 128.153 161.54C128.121 161.512 128.096 161.478 128.077 161.44C128.059 161.402 128.049 161.361 128.047 161.319C128.044 161.277 128.051 161.235 128.065 161.196L130.081 155.33C128.625 153.832 115.941 140.805 107.331 134.484C107.263 134.434 107.218 134.359 107.206 134.275C107.193 134.192 107.214 134.107 107.264 134.039C107.315 133.972 107.39 133.927 107.473 133.914C107.556 133.902 107.641 133.923 107.709 133.973C116.851 140.679 130.536 154.882 130.676 155.029C130.717 155.07 130.745 155.123 130.758 155.18C130.77 155.237 130.766 155.296 130.746 155.351L128.646 161.406C128.623 161.462 128.585 161.51 128.535 161.545C128.485 161.58 128.427 161.6 128.366 161.602Z" fill="white"/>
<path d="M128.926 77.959C127.318 77.9523 125.74 77.5251 124.348 76.72C124.313 76.6986 124.283 76.6704 124.259 76.6371C124.236 76.6038 124.219 76.566 124.211 76.526C124.202 76.4861 124.202 76.4448 124.21 76.4047C124.218 76.3647 124.234 76.3266 124.257 76.293C124.279 76.2589 124.307 76.2295 124.341 76.2064C124.374 76.1834 124.412 76.1672 124.452 76.1587C124.491 76.1503 124.532 76.1498 124.572 76.1572C124.612 76.1646 124.65 76.1798 124.684 76.202C125.915 76.9164 127.309 77.3019 128.733 77.3216C130.156 77.3412 131.56 76.9942 132.811 76.314C132.846 76.2942 132.885 76.2816 132.925 76.2769C132.966 76.2722 133.007 76.2754 133.046 76.2865C133.085 76.2975 133.121 76.3162 133.153 76.3413C133.185 76.3664 133.211 76.3976 133.231 76.433C133.251 76.4684 133.263 76.5073 133.268 76.5476C133.273 76.5878 133.269 76.6286 133.258 76.6676C133.247 76.7066 133.229 76.7431 133.204 76.7749C133.178 76.8067 133.147 76.8332 133.112 76.853C131.835 77.5766 130.393 77.9576 128.926 77.959Z" fill="#231F20"/>
<path d="M162.463 33.782C160.997 34.4012 159.712 35.3842 158.732 36.638C154.154 42.469 157.108 49.077 160.741 54.558C164.647 60.452 173.817 59.913 180.068 57.589C183.008 61.446 188.979 63.028 194.173 61.789C196.553 61.1908 198.776 60.0829 200.687 58.542C202.597 57.0011 204.151 55.0638 205.24 52.864C206.444 54.964 209.762 55.755 212.415 55.062C221.676 52.654 223.048 40.978 216.069 35.917C214.151 34.517 210.98 34.132 209.195 35.651C208.747 33.103 206.311 30.317 203.434 29.351C202.601 29.078 194.964 28.819 195.615 29.729C193.445 26.691 189.196 24.962 185.003 24.892C180.865 24.9182 176.822 26.1331 173.355 28.392C171.409 29.5239 169.736 31.0701 168.455 32.921C166.417 32.7238 164.362 33.019 162.463 33.782Z" fill="white"/>
<path d="M190.603 62.545C186.368 62.545 182.259 60.865 179.949 58.009C173.159 60.452 164.234 60.473 160.447 54.754C157.234 49.896 153.524 42.7 158.459 36.4C159.472 35.0982 160.802 34.0786 162.323 33.439C164.216 32.68 166.261 32.3755 168.294 32.55C169.597 30.7353 171.266 29.2139 173.194 28.084C176.729 25.8199 180.833 24.6061 185.031 24.584C189.392 24.661 193.396 26.397 195.608 29.155C195.986 28.973 196.931 28.777 199.444 28.784C200.824 28.7574 202.203 28.8487 203.567 29.057C204.944 29.5351 206.191 30.3265 207.21 31.3687C208.23 32.4109 208.993 33.6756 209.44 35.063C211.449 33.789 214.466 34.314 216.3 35.644C218.007 36.9111 219.321 38.6347 220.092 40.6162C220.862 42.5977 221.057 44.7566 220.654 46.844C220.277 48.9093 219.307 50.8203 217.863 52.3441C216.418 53.8679 214.562 54.9387 212.52 55.426C210.063 56.063 206.843 55.517 205.303 53.571C204.164 55.688 202.595 57.5433 200.696 59.0176C198.797 60.492 196.611 61.5529 194.278 62.132C193.074 62.4168 191.84 62.5554 190.603 62.545ZM180.068 57.239C180.122 57.2395 180.176 57.2524 180.224 57.2767C180.273 57.3009 180.315 57.3359 180.348 57.379C183.106 60.991 188.881 62.699 194.089 61.432C196.42 60.8522 198.597 59.7716 200.468 58.2654C202.34 56.7592 203.86 54.8634 204.925 52.71C204.953 52.6521 204.997 52.6032 205.051 52.5686C205.106 52.5341 205.169 52.5151 205.233 52.514C205.296 52.5126 205.359 52.5281 205.414 52.5588C205.469 52.5896 205.516 52.6345 205.548 52.689C206.71 54.733 209.972 55.335 212.324 54.726C214.238 54.2726 215.977 53.2708 217.33 51.8435C218.683 50.4161 219.59 48.6251 219.94 46.69C220.321 44.7337 220.14 42.7097 219.419 40.8517C218.698 38.9937 217.466 37.3776 215.866 36.19C214.102 34.909 211.092 34.489 209.426 35.91C209.378 35.9502 209.321 35.9771 209.259 35.9882C209.198 35.9992 209.135 35.994 209.076 35.973C209.019 35.952 208.968 35.9164 208.929 35.8698C208.889 35.8231 208.863 35.767 208.852 35.707C208.411 33.208 205.982 30.569 203.329 29.708C202.51 29.435 196.91 29.323 195.965 29.708C195.97 29.7845 195.951 29.8608 195.908 29.9249C195.866 29.9891 195.804 30.0377 195.732 30.0631C195.66 30.0886 195.581 30.0895 195.508 30.0658C195.435 30.0421 195.372 29.9951 195.328 29.932C193.347 27.132 189.294 25.312 184.996 25.242C180.927 25.2817 176.955 26.4813 173.544 28.7C171.649 29.8086 170.019 31.3186 168.77 33.124C168.734 33.1759 168.686 33.218 168.63 33.2462C168.573 33.2743 168.511 33.2877 168.448 33.285C166.46 33.0798 164.451 33.3608 162.596 34.104C161.184 34.6962 159.949 35.644 159.012 36.855C154.406 42.721 157.675 49.294 161.035 54.355C164.654 59.822 173.376 59.689 179.935 57.246C179.979 57.2362 180.024 57.2338 180.068 57.239Z" fill="#D1D3D4"/>
<path d="M175.812 64.554C176.63 64.2716 177.506 64.1971 178.36 64.337C178.872 64.3523 179.374 64.4778 179.833 64.7049C180.292 64.932 180.697 65.2554 181.02 65.653C181.566 66.514 181.104 67.977 180.082 67.991C181.482 67.291 183.393 68.341 183.792 69.881C184.625 73.094 180.481 75.096 177.779 74.893C176.428 74.795 175.119 74.151 173.775 74.34C171.318 74.683 169.575 74.942 167.727 72.737C166.397 71.141 166.859 68.929 167.951 67.333C168.287 66.7949 168.733 66.3344 169.261 65.982C169.788 65.6296 170.384 65.3934 171.01 65.289C171.402 65.233 174.405 65.618 174.188 66.339C174.305 65.9376 174.512 65.5683 174.794 65.2589C175.075 64.9496 175.423 64.7086 175.812 64.554Z" fill="white"/>
<path d="M178.143 75.257C178.012 75.2641 177.881 75.2641 177.751 75.257C177.196 75.1999 176.645 75.0993 176.106 74.956C175.368 74.7278 174.594 74.64 173.824 74.697C171.339 75.047 169.407 75.32 167.461 72.975C165.928 71.134 166.614 68.691 167.664 67.151C168.025 66.5708 168.506 66.0746 169.075 65.6955C169.643 65.3164 170.286 65.0632 170.961 64.953C172.049 64.9612 173.122 65.1998 174.111 65.653C174.456 65.0187 175.01 64.5239 175.679 64.253C176.552 63.9473 177.489 63.8678 178.402 64.022C179.802 64.197 180.803 64.722 181.314 65.492C181.489 65.7903 181.587 66.1272 181.601 66.4728C181.614 66.8184 181.542 67.162 181.391 67.473C181.713 67.51 182.027 67.5974 182.322 67.732C182.758 67.9285 183.146 68.2184 183.458 68.5813C183.77 68.9441 183.999 69.3711 184.128 69.832C184.276 70.3884 184.284 70.9727 184.152 71.5332C184.021 72.0937 183.752 72.6129 183.372 73.045C182.694 73.7464 181.881 74.3039 180.983 74.684C180.084 75.0641 179.118 75.2589 178.143 75.257ZM174.3 73.955C174.972 73.9776 175.64 74.081 176.288 74.263C176.79 74.3977 177.303 74.4914 177.821 74.543C178.754 74.5971 179.687 74.4473 180.557 74.1039C181.426 73.7606 182.21 73.232 182.854 72.555C183.167 72.2103 183.387 71.7921 183.495 71.3392C183.603 70.8864 183.594 70.4136 183.47 69.965C183.366 69.6098 183.188 69.281 182.946 69.0009C182.705 68.7207 182.406 68.4956 182.07 68.341C181.682 68.1564 181.25 68.086 180.824 68.138C180.615 68.2713 180.372 68.3417 180.124 68.341C180.044 68.3444 179.966 68.3195 179.904 68.2708C179.841 68.2221 179.797 68.1527 179.781 68.075C179.764 67.997 179.774 67.9156 179.808 67.8436C179.842 67.7715 179.899 67.7126 179.97 67.676C180.152 67.5858 180.345 67.5199 180.544 67.48C180.639 67.3974 180.717 67.2976 180.775 67.186C180.888 66.9799 180.947 66.7488 180.947 66.514C180.947 66.2791 180.888 66.048 180.775 65.842C180.376 65.219 179.571 64.834 178.367 64.687C177.57 64.5477 176.751 64.6127 175.987 64.876C175.652 65.0175 175.353 65.2316 175.111 65.5027C174.869 65.7739 174.69 66.0953 174.587 66.444C174.553 66.5226 174.49 66.5859 174.412 66.6217C174.335 66.6576 174.246 66.6635 174.164 66.6385C174.082 66.6134 174.012 66.5591 173.967 66.4858C173.923 66.4125 173.907 66.3254 173.922 66.241C173.712 65.947 171.528 65.59 171.122 65.632C170.548 65.7327 170.001 65.9538 169.519 66.2807C169.036 66.6077 168.628 67.0331 168.322 67.529C167.412 68.866 166.796 70.973 168.077 72.513C169.778 74.557 171.367 74.333 173.768 73.997C173.944 73.972 174.122 73.958 174.3 73.955Z" fill="#D1D3D4"/>
<path d="M162.533 75.0819C161.869 74.7953 161.126 74.7508 160.433 74.9559C160.093 75.0625 159.794 75.2693 159.574 75.5491C159.354 75.829 159.224 76.1688 159.201 76.5239C159.202 76.7004 159.24 76.8748 159.313 77.0356C159.385 77.1963 159.491 77.3399 159.624 77.4569C159.756 77.5739 159.911 77.6616 160.08 77.7143C160.248 77.7671 160.426 77.7836 160.601 77.7629C158.963 78.8339 162.477 81.6269 164.031 78.6449C164.208 78.3188 164.309 77.9571 164.327 77.5865C164.345 77.216 164.28 76.8461 164.136 76.5042C163.993 76.1622 163.774 75.8569 163.496 75.6107C163.219 75.3646 162.89 75.1839 162.533 75.0819Z" fill="white"/>
<path d="M162.134 80.332C162.034 80.339 161.933 80.339 161.833 80.332C161.391 80.2851 160.971 80.1134 160.623 79.837C160.274 79.5606 160.012 79.1909 159.866 78.771C159.813 78.5374 159.832 78.2932 159.922 78.071C159.769 78.0128 159.628 77.93 159.502 77.826C159.31 77.6744 159.154 77.4821 159.045 77.2631C158.936 77.044 158.877 76.8036 158.872 76.559C158.894 76.1305 159.046 75.719 159.309 75.3799C159.572 75.0407 159.932 74.7902 160.342 74.662C161.106 74.4359 161.924 74.4804 162.659 74.788C163.068 74.9325 163.443 75.16 163.76 75.4564C164.076 75.7527 164.328 76.1115 164.5 76.51C164.638 76.8831 164.693 77.2816 164.661 77.678C164.63 78.0745 164.513 78.4594 164.318 78.806C164.133 79.2395 163.831 79.6125 163.445 79.8823C163.059 80.1521 162.604 80.308 162.134 80.332ZM160.608 77.413C160.676 77.4119 160.744 77.4313 160.801 77.4687C160.858 77.5061 160.903 77.5599 160.93 77.623C160.961 77.6985 160.965 77.7826 160.94 77.8605C160.916 77.9385 160.865 78.0056 160.797 78.05C160.701 78.0989 160.624 78.1784 160.578 78.2761C160.532 78.3738 160.521 78.4839 160.545 78.589C160.661 78.8727 160.853 79.1189 161.1 79.3005C161.347 79.482 161.639 79.5919 161.945 79.618C162.327 79.6481 162.708 79.554 163.033 79.3496C163.357 79.1453 163.606 78.8417 163.744 78.484C163.893 78.2253 163.984 77.937 164.009 77.6394C164.034 77.3418 163.994 77.0423 163.891 76.762C163.758 76.4454 163.56 76.1606 163.309 75.9265C163.058 75.6924 162.76 75.5143 162.435 75.404C161.849 75.1602 161.199 75.1183 160.587 75.285C160.315 75.3665 160.075 75.5287 159.897 75.7499C159.72 75.9712 159.613 76.2411 159.593 76.524C159.6 76.6606 159.637 76.7939 159.701 76.9148C159.765 77.0356 159.855 77.1412 159.964 77.224C160.042 77.2959 160.136 77.3491 160.238 77.3794C160.34 77.4097 160.447 77.4164 160.552 77.399L160.608 77.413Z" fill="#D1D3D4"/>
<path d="M201.789 122.08C201.903 120.491 201.566 118.901 200.816 117.495C200.2 116.473 199.262 115.668 198.758 114.59C197.89 112.728 198.499 110.537 198.296 108.493C198.111 106.779 197.357 105.177 196.154 103.943C195.083 102.865 193.704 102.123 192.654 100.996C190.981 99.148 190.498 96.544 189.546 94.241C188.196 90.9777 185.855 88.2208 182.854 86.359C184.681 90.034 180.523 94.703 182.406 98.35C183.001 99.505 184.142 100.345 184.583 101.57C185.64 104.524 182.112 107.73 183.246 110.67C183.806 112.133 185.346 112.98 186.102 114.373C187.089 116.242 186.312 118.51 186.396 120.624C186.508 123.536 188.279 126.147 190.386 128.163C191.695 129.423 193.186 130.508 194.586 131.663C196.28 133.063 196.994 134.463 198.492 132.272C200.558 129.267 201.703 125.725 201.789 122.08Z" fill="#D1D3D4"/>
<path d="M203.7 123.746C203.154 121.492 202.762 119.042 203.7 116.914C204.736 114.506 207.326 112.805 207.634 110.201C207.83 108.5 206.934 106.771 207.305 105.084C207.676 103.397 209.02 102.249 210.154 101.01C212.766 98.1387 214.319 94.4615 214.557 90.587C216.195 92.75 217.854 94.962 218.757 97.524C219.66 100.086 219.667 103.124 218.148 105.343C217.711 105.867 217.352 106.452 217.084 107.079C216.573 108.738 217.994 110.292 218.729 111.867C219.164 112.767 219.345 113.768 219.254 114.763C219.163 115.759 218.802 116.71 218.211 117.516C216.72 119.378 213.843 120.099 213.115 122.367C212.93 123.211 212.843 124.073 212.856 124.936C212.7 126.432 212.1 127.848 211.134 129.001C210.167 130.153 208.877 130.99 207.431 131.404C205.667 131.831 205.702 131.131 205.387 129.654C204.925 127.659 204.162 125.734 203.7 123.746Z" fill="#D1D3D4"/>
<path d="M198.1 107.527C196.847 103.194 196.35 98.665 195.027 94.353C193.9 90.9909 192.529 87.7156 190.925 84.553L196.301 86.821C198.023 87.521 199.892 88.403 200.704 90.09C202.104 93.023 199.577 96.775 201.061 99.673C201.586 100.688 202.531 101.416 203.161 102.347C204.743 104.573 204.505 107.625 203.63 110.208C203.259 111.321 201.635 117.068 200.179 115.472C199.591 114.835 199.542 112.448 199.297 111.58C198.926 110.201 198.464 108.878 198.1 107.527Z" fill="#D1D3D4"/>
<path d="M201.005 165.081C199.941 158.004 196.581 133.042 196.546 132.79L197.47 132.671C197.47 132.923 200.858 157.871 201.929 164.948L201.005 165.081Z" fill="#D1D3D4"/>
<path d="M202.3 171.773H201.369C201.432 163.373 204.939 131.229 206.969 129.024L207.669 129.647C206.276 131.103 202.356 160.258 202.3 171.773Z" fill="#D1D3D4"/>
<path d="M204.092 170.17L203.161 170.128C203.966 151.998 200.123 113.925 200.081 113.547L201.005 113.449C201.047 113.834 204.897 151.97 204.092 170.17Z" fill="#D1D3D4"/>
<path d="M191.8 148.015H211.806L210.406 168.266C210.29 169.955 209.538 171.537 208.301 172.692C207.064 173.847 205.434 174.489 203.742 174.489H199.871C198.177 174.49 196.547 173.847 195.309 172.692C194.071 171.537 193.317 169.955 193.2 168.266L191.8 148.015Z" fill="white"/>
<path d="M203.742 174.839H199.871C198.095 174.828 196.388 174.148 195.091 172.935C193.794 171.722 193.001 170.065 192.871 168.294L191.471 148.043C191.467 147.945 191.502 147.849 191.569 147.777C191.634 147.725 191.716 147.697 191.8 147.7H211.806C211.854 147.7 211.902 147.71 211.947 147.729C211.991 147.748 212.031 147.777 212.064 147.812C212.097 147.848 212.122 147.89 212.138 147.935C212.154 147.981 212.16 148.03 212.156 148.078L210.756 168.329C210.619 170.097 209.821 171.748 208.521 172.955C207.222 174.161 205.515 174.834 203.742 174.839ZM192.178 148.4L193.578 168.28C193.694 169.875 194.407 171.367 195.575 172.46C196.743 173.552 198.279 174.164 199.878 174.174H203.749C205.348 174.166 206.886 173.554 208.054 172.461C209.222 171.369 209.934 169.875 210.049 168.28L211.449 148.4H192.178Z" fill="#D1D3D4"/>
</svg>
